<?xml version="1.0" encoding="utf-8"?>
<!-- Generator: Adobe Illustrator 23.0.1, SVG Export Plug-In . SVG Version: 6.00 Build 0)  -->
<svg preserveAspectRatio="xMinYMin meet" version="1.1" id="Layer_1" xmlns="http://www.w3.org/2000/svg" xmlns:xlink="http://www.w3.org/1999/xlink" x="0px" y="0px"
	 viewBox="0 0 213.9 107.1" style="enable-background:new 0 0 213.9 107.1;" xml:space="preserve">
<style type="text/css">
	.st0{fill:#010101;}
</style>

<path class="st0" d="M198.5,36.4L198.5,36.4c-4.2-2-8.7-2.4-13.2-2.8c-0.8-0.1-1.6-0.1-2.3-0.2c0.9-9.7-6.4-18.7-13.7-22.9
	c-9.7-5.5-21.5-5.1-30.8,1.1c-2.3-3.1-6-5.1-10.1-5.5c-4.2-0.4-8.3,0.9-11.2,3.6c-7.8-8-19.6-11.5-30.1-8.9
	c-10.5,2.8-18.7,10.7-22,21c-14.5-7.5-32.5-2.1-40.3,12.3c-1.2,2.2-2.1,4.6-2.7,7.1c-5.9,0.2-11.7,2.9-16,7.5C2,53.1-0.2,58.5,0,64
	s3,11,7.6,15c4.8,4.1,10.8,6.2,16.5,5.6C28.9,92.8,38,98.1,48,98.4c5.1,0.2,10.1-1,14.5-3.4c3-1.9,5.8-4,8.3-6.4
	c0.9,1.1,1.8,2.2,2.8,3.3c1.9,1.9,4.3,3.4,6.6,4.8l1,0.6c7.4,4.6,14.1,6.9,20.5,7.2c0.4,0,0.8,0,1.2,0c11.4,0,22.4-7.1,27.3-17.7
	c5.5,6.8,13.4,11.2,22.1,12.2c8.9,1,17.6-1.4,24.7-7c2.8-2.2,5.1-4.8,7.1-7.7c0.1-0.1,0.2-0.3,0.2-0.4c12.3,2.2,24.5-4.5,28.3-15.8
	C216.7,56.2,210.5,42.4,198.5,36.4z M116.9,12.9c0.3,0.1,0.7,0,0.9-0.2c0.1-0.1,0.2-0.2,0.3-0.3c2.3-2.7,5.9-4.1,9.8-3.7
	c3.9,0.3,7.4,2.4,9.3,5.5c0.2,0.3,0.5,0.5,0.8,0.5c0.3,0.1,0.7,0,0.9-0.2c0,0,0,0,0.1,0c8.3-6.1,19.5-6.9,28.6-2
	c7.5,4.2,14.2,13.1,12.7,21.9c-0.1,0.7,0.4,1.4,1.1,1.4c1.2,0.1,2.5,0.3,3.7,0.4c4.2,0.4,8.5,0.7,12.4,2.6c7,3.5,12,10,13.6,17.7
	c1.3,6.9-0.7,13.5-5.8,18.6c-5.6,5.6-13.9,8.1-21.7,6.6l0,0c-0.4-0.1-0.9,0.2-1,0.6c-0.2,0.1-0.5,0.3-0.6,0.5
	c-5.6,8.2-14.8,13.3-24.7,13.8c-10.4,0.2-20.1-4.7-26-13.2c-0.4-0.7-1.3-0.9-2-0.5c-0.3,0.2-0.5,0.5-0.6,0.8
	c-4.3,11.2-15.9,18.7-27.7,17.8c-5.8-0.4-11.8-2.7-18.9-7.2c-2.4-1.3-4.6-2.9-6.6-4.8c-1.1-1.2-2.2-2.6-3.2-3.9
	c-0.3-0.3-0.7-0.4-1-0.4c-0.4,0-0.7,0.1-1,0.4c-2.5,2.3-5.1,4.4-7.8,6.4c-3.9,2.5-8.3,3.8-12.9,3.8c-0.1,0-0.1,0-0.2,0
	c-9.8,0-18.9-5.1-23.2-13C26,82.3,25.4,82,24.8,82c-5.3,0.8-11-1-15.4-4.7c-4.3-3.6-6.7-8.6-6.8-13.7s2.2-10.1,6.2-13.7
	c4.1-3.8,9.4-5.6,14.6-5.2c0.9,0.1,1.7-0.6,1.8-1.4C26.5,36,30.6,30,36.6,26.1s13.2-5.3,20.2-3.8c3,0.6,5.9,1.8,8.5,3.4
	c0.8,0.4,1.7,0,2.1-0.8c0-0.1,0.1-0.2,0.1-0.3c1.7-7.3,6.1-13.5,12.5-17.5s13.9-5.2,21.2-3.6c5.8,1.3,11,4.4,14.9,8.9
	C116.2,12.7,116.5,12.8,116.9,12.9z"/>
<path d="M168.7,49.8c0,0.5,0,1,0,1.4c0,0.2-0.1,0.4-0.3,0.5l0,0c-0.3,0-0.6,0-0.9,0c-0.5,0-0.6-0.1-0.6-0.7v-1.2L168.7,49.8z"/>
<path d="M158.6,49.8c0,0.5,0,1,0,1.4c0,0.2-0.1,0.4-0.3,0.5l0,0c-0.3,0-0.7,0-1,0c-0.5,0-0.6-0.1-0.6-0.7v-1.2L158.6,49.8z"/>
<path d="M163.4,49.8c0,0.1,0,0.2,0,0.2c0.6,0.9,0.6,0.9,0.2,1.3c-0.4,0.5-1.1,0.5-1.6,0.2c-0.6-0.5-0.6-0.6,0-1.4c0-0.1,0-0.2,0-0.2
	L163.4,49.8z"/>
<path d="M139.9,56.5c-0.2,0-0.5,0-0.7,0c-0.1-0.1-0.2-0.2-0.3-0.3c-0.2-0.7,0.2-1.4,0.9-1.5c0.2-0.1,0.4-0.1,0.5,0
	c0.4,0.1,0.8,0.4,1,0.8c0.1,0.2-0.4,1-0.7,1.1C140.4,56.6,140.1,56.6,139.9,56.5z"/>
<path d="M149.8,56.5h-0.2c-0.5,0-0.7-0.3-0.6-0.9c0.1-0.7,0.7-1.1,1.4-1c0.2,0,0.4,0.1,0.5,0.2c0.2,0.2,0.5,0.3,0.5,0.7
	s-0.6,0.9-0.9,1C150.3,56.6,150,56.6,149.8,56.5z"/>
<path d="M159.9,56.5h-0.2c-0.5,0-0.7-0.3-0.6-0.9c0.1-0.7,0.7-1.1,1.4-1c0.2,0,0.4,0.1,0.5,0.2c0.2,0.2,0.5,0.3,0.5,0.7
	s-0.6,0.9-0.9,1C160.4,56.6,160.1,56.6,159.9,56.5z"/>
<path d="M170,56.5h-0.2c-0.6,0-0.7-0.3-0.6-0.9c0.1-0.6,0.7-1.1,1.4-1c0.2,0,0.4,0.1,0.5,0.2c0.2,0.2,0.5,0.3,0.5,0.7
	c-0.1,0.4-0.4,0.8-0.9,1C170.5,56.6,170.2,56.6,170,56.5z"/>
<path d="M179.9,56.5c-0.6,0-0.8-0.2-0.7-0.8c0-0.1,0-0.2,0-0.2c0.2-0.7,1-1,1.6-0.8c0.4,0.1,0.7,0.4,0.8,0.8
	c-0.1,0.4-0.4,0.8-0.8,1.1C180.6,56.6,180.2,56.6,179.9,56.5z"/>
<path d="M122.8,59.9c0.6,0,0.8,0.2,0.7,0.8c0,0.1,0,0.2,0,0.2c-0.2,0.7-1,1-1.6,0.8c-0.4-0.1-0.7-0.4-0.8-0.8c0-0.2,0.5-1,0.8-1
	C122.2,59.9,122.5,59.9,122.8,59.9z"/>
<path d="M133.6,60.4c0,0.7-0.4,1.3-0.8,1.4c-0.4,0.1-0.9,0-1.2-0.3s-0.4-0.9-0.1-1.2c0.1-0.1,0.2-0.2,0.4-0.2c0.5-0.1,1.1-0.1,1.6,0
	C133.5,60,133.6,60.4,133.6,60.4z"/>
<path d="M142.9,59.9c0.2,0,0.3,0,0.5,0s0.4,0.2,0.3,0.5l0,0c-0.1,0.3,0.1,0.6-0.2,0.9c-0.2,0.2-0.5,0.4-0.7,0.5
	c-0.6,0.1-1.2-0.2-1.5-0.7c-0.1-0.1-0.1-0.3,0-0.4C141.7,60.1,142.2,59.7,142.9,59.9z"/>
<path d="M153.1,59.9c0.6,0,0.8,0.2,0.7,0.8c0,0.1,0,0.2,0,0.2c-0.2,0.5-0.7,0.8-1.2,0.8s-1-0.4-1.2-0.9c0.1-0.4,0.4-0.8,0.8-1
	C152.5,59.9,152.8,59.9,153.1,59.9z"/>
<path d="M163.9,60.5c0.2,0.6-0.3,1-0.7,1.3s-1.2,0-1.6-0.6c-0.1-0.2-0.1-0.4,0-0.6c0.3-0.3,0.5-0.8,1.1-0.7c0.2,0,0.5,0,0.7,0
	C163.8,59.9,163.9,60.1,163.9,60.5z"/>
<path d="M173.9,60.3c0.1,0.6-0.1,1.1-0.6,1.4c-0.5,0.2-1.1,0.1-1.4-0.3c-0.3-0.3-0.4-0.8-0.1-1.2c0.1-0.1,0.3-0.2,0.4-0.3
	c0.5-0.1,1-0.1,1.6,0C173.8,60,173.9,60.2,173.9,60.3z"/>
<path d="M183.3,59.9c0.6,0,0.8,0.2,0.7,0.8c0,0.1,0,0.2,0,0.2c-0.2,0.7-1,1-1.6,0.8c-0.4-0.1-0.7-0.4-0.8-0.8c-0.1-0.2,0.5-1,0.8-1
	C182.7,59.9,183,59.9,183.3,59.9z"/>
<path d="M193.3,59.9c0.1,0,0.2,0,0.2,0c0.5,0,0.6,0.1,0.6,0.7c0,0.5-0.2,0.9-0.7,1.1c-0.4,0.3-0.9,0.2-1.2-0.2
	c-0.2-0.2-0.5-0.3-0.5-0.7c0.1-0.4,0.5-0.8,0.9-0.9C192.8,59.9,193,59.9,193.3,59.9z"/>
<path d="M28.7,66.6c-0.6,0-0.9-0.4-0.7-1.1c0.2-0.5,0.7-0.8,1.2-0.9c0.5,0,1,0.3,1.2,0.8c-0.1,0.4-0.4,0.8-0.8,1.1
	C29.4,66.6,29,66.6,28.7,66.6z"/>
<path d="M38.8,66.6c-0.6,0-0.8-0.2-0.7-0.8c0-0.1,0-0.2,0-0.2c0.2-0.5,0.7-0.8,1.2-0.8s1,0.4,1.2,0.9c-0.1,0.4-0.4,0.8-0.8,1
	C39.4,66.6,39.1,66.6,38.8,66.6z"/>
<path d="M119.5,66.6c-0.6,0-0.8-0.2-0.7-0.8c0-0.1,0-0.2,0-0.2c0.2-0.7,1-1,1.6-0.8c0.4,0.1,0.7,0.4,0.8,0.8
	c-0.1,0.4-0.4,0.8-0.8,1.1C120.1,66.6,119.8,66.6,119.5,66.6z"/>
<path d="M129.7,66.6c-0.2,0-0.3,0-0.5,0s-0.4-0.2-0.4-0.4c0,0,0,0,0-0.1c0.1-0.3-0.1-0.6,0.2-0.9c0.2-0.2,0.5-0.4,0.7-0.5
	c0.6-0.1,1.2,0.2,1.5,0.8c0.1,0.1,0.1,0.3,0,0.4C130.8,66.4,130.4,66.8,129.7,66.6z"/>
<path d="M139.6,66.6c-0.6,0-0.9-0.4-0.7-1.1c0.2-0.5,0.7-0.8,1.2-0.9c0.5,0,1,0.3,1.2,0.8c-0.1,0.4-0.4,0.8-0.8,1.1
	C140.2,66.6,139.9,66.6,139.6,66.6z"/>
<path d="M149.8,66.6h-0.2c-0.5,0-0.6-0.1-0.6-0.7c0-0.5,0.2-0.9,0.7-1.1c0.4-0.3,0.9-0.2,1.2,0.1c0.2,0.2,0.5,0.3,0.5,0.7
	c-0.1,0.4-0.5,0.8-0.9,0.9C150.3,66.6,150,66.6,149.8,66.6z"/>
<path d="M159.8,66.6c-0.6,0-0.8-0.2-0.7-0.8c0-0.1,0-0.2,0-0.2c0.2-0.7,1-1,1.6-0.8c0.4,0.1,0.7,0.4,0.8,0.8
	c-0.1,0.4-0.4,0.8-0.8,1.1C160.4,66.6,160.1,66.6,159.8,66.6z"/>
<path d="M170,66.6c-0.2,0-0.3,0-0.5,0s-0.4-0.2-0.4-0.4c0,0,0,0,0-0.1c0.1-0.3-0.1-0.6,0.2-0.9c0.2-0.2,0.5-0.4,0.7-0.5
	c0.6-0.1,1.2,0.2,1.5,0.8c0.1,0.1,0.1,0.3,0,0.4C171.1,66.4,170.7,66.8,170,66.6z"/>
<path d="M180,66.6h-0.2c-0.5,0-0.6-0.1-0.6-0.7c0-0.5,0.2-0.9,0.7-1.1c0.4-0.3,0.9-0.2,1.2,0.1c0.2,0.2,0.5,0.3,0.5,0.7
	c-0.1,0.4-0.5,0.8-0.9,0.9C180.5,66.6,180.3,66.6,180,66.6z"/>
<path d="M190.1,66.6h-0.2c-0.6,0-0.7-0.3-0.6-0.9c0.1-0.7,0.7-1.1,1.4-1c0.2,0,0.4,0.1,0.5,0.2c0.2,0.2,0.5,0.3,0.5,0.7
	c-0.1,0.4-0.4,0.8-0.9,1C190.6,66.7,190.4,66.6,190.1,66.6z"/>
<path d="M200.1,66.6c-0.6,0-0.8-0.2-0.7-0.8c0-0.1,0-0.2,0-0.2c0.2-0.7,1-1,1.6-0.8c0.4,0.1,0.7,0.4,0.8,0.8
	c-0.1,0.4-0.4,0.8-0.8,1.1C200.7,66.6,200.4,66.6,200.1,66.6z"/>
<path d="M22.7,70.6c0.2,0.7-0.3,1-0.7,1.3s-1.2-0.1-1.6-0.6c-0.1-0.2-0.1-0.4,0-0.6c0.3-0.3,0.5-0.8,1.1-0.7c0.2,0,0.5,0,0.7,0
	C22.6,70,22.7,70.1,22.7,70.6z"/>
<path d="M32.1,70c0.6,0,0.9,0.4,0.7,1c-0.2,0.7-1,1-1.6,0.8c-0.4-0.1-0.7-0.4-0.8-0.8c-0.1-0.2,0.5-1,0.8-1.1
	C31.5,69.9,31.8,70,32.1,70z"/>
<path d="M42.2,70c0.6,0,0.9,0.4,0.7,1c-0.2,0.7-1,1-1.6,0.8c-0.4-0.1-0.7-0.4-0.8-0.8c-0.1-0.2,0.5-1,0.8-1.1
	C41.6,69.9,41.9,70,42.2,70z"/>
<path d="M52.2,70h0.2c0.5,0,0.7,0.3,0.6,0.9s-0.7,1.1-1.4,1c-0.2,0-0.4-0.1-0.5-0.2c-0.2-0.2-0.5-0.3-0.5-0.7s0.6-0.9,0.9-1
	S51.9,70,52.2,70z"/>
<path d="M72.4,70c0.6,0,0.8,0.2,0.7,0.8c0,0.1,0,0.2,0,0.2c-0.2,0.5-0.7,0.8-1.2,0.9c-0.5,0-1-0.4-1.2-0.9c0.1-0.4,0.4-0.8,0.8-1
	C71.8,70,72.1,70,72.4,70z"/>
<path d="M82.5,70c0.6,0,0.9,0.4,0.7,1c-0.2,0.7-1,1-1.6,0.8c-0.4-0.1-0.7-0.4-0.8-0.8c-0.1-0.2,0.5-1,0.8-1.1
	C81.9,69.9,82.2,70,82.5,70z"/>
<path d="M93.3,70.6c0.2,0.6-0.3,1-0.7,1.3s-1.2-0.1-1.6-0.6c-0.1-0.2-0.1-0.4,0-0.6c0.3-0.3,0.5-0.8,1.1-0.7c0.2,0,0.5,0,0.7,0
	C93.2,70,93.3,70.2,93.3,70.6z"/>
<path d="M102.7,70c0.6,0,0.8,0.2,0.7,0.8c0,0.1,0,0.2,0,0.2c-0.2,0.7-1,1-1.6,0.8c-0.4-0.1-0.7-0.4-0.8-0.8c0-0.2,0.5-1,0.8-1
	C102,70,102.4,70,102.7,70z"/>
<path d="M112.6,70c0.1,0,0.2,0,0.2,0c0.5,0,0.6,0.1,0.6,0.7c0,0.5-0.2,0.9-0.7,1.1c-0.4,0.3-0.9,0.2-1.2-0.1
	c-0.2-0.2-0.5-0.3-0.5-0.7c0.1-0.4,0.5-0.8,0.9-0.9C112.2,70,112.4,70,112.6,70z"/>
<path d="M122.8,70c0.6,0,0.9,0.4,0.7,1c-0.2,0.5-0.7,0.8-1.2,0.9c-0.5,0-1-0.3-1.2-0.9c-0.1-0.2,0.5-1,0.8-1.1
	C122.2,70,122.5,70,122.8,70z"/>
<path d="M133.6,70.6c0.2,0.7-0.3,1-0.7,1.3s-1.2-0.1-1.6-0.6c-0.1-0.2-0.1-0.4,0-0.6c0.3-0.3,0.5-0.8,1.1-0.7c0.2,0,0.5,0,0.7,0
	C133.5,70,133.6,70.1,133.6,70.6z"/>
<path d="M143,70c0.6,0,0.8,0.2,0.7,0.8c0,0.1,0,0.2,0,0.2c-0.2,0.7-1,1-1.6,0.8c-0.4-0.1-0.7-0.4-0.8-0.8c0-0.2,0.5-1,0.8-1
	C142.4,70,142.7,70,143,70z"/>
<path d="M153,70c0.1,0,0.2,0,0.2,0c0.5,0,0.6,0.1,0.6,0.7c0,0.5-0.2,0.9-0.7,1.1c-0.4,0.3-0.9,0.2-1.2-0.1c-0.2-0.2-0.5-0.3-0.5-0.7
	c0.1-0.4,0.5-0.8,0.9-0.9C152.5,70,152.7,70,153,70z"/>
<path d="M163,70c0.1,0,0.2,0,0.2,0c0.5,0,0.6,0.1,0.6,0.7c0,0.5-0.2,0.9-0.7,1.1c-0.4,0.3-0.9,0.2-1.2-0.1c-0.2-0.2-0.5-0.3-0.5-0.7
	c0.1-0.4,0.5-0.8,0.9-0.9C162.6,70,162.8,70,163,70z"/>
<path d="M173.2,70c0.6,0,0.8,0.2,0.7,0.8c0,0.1,0,0.2,0,0.2c-0.2,0.5-0.7,0.8-1.2,0.9c-0.5,0-1-0.4-1.2-0.9c0.1-0.4,0.4-0.8,0.8-1
	C172.6,70,172.9,70,173.2,70z"/>
<path d="M184,70.6c0.2,0.6-0.3,1-0.7,1.3s-1.2-0.1-1.6-0.6c-0.1-0.2-0.1-0.4,0-0.6c0.3-0.3,0.5-0.8,1.1-0.7c0.2,0,0.5,0,0.7,0
	C183.9,70,184,70.2,184,70.6z"/>
<path d="M193.4,70c0.6,0,0.9,0.4,0.7,1c-0.2,0.5-0.7,0.8-1.2,0.9c-0.5,0-1-0.3-1.2-0.9c-0.1-0.2,0.5-1,0.8-1.1
	C192.8,70,193.1,70,193.4,70z"/>
<path d="M203.4,70h0.2c0.5,0,0.7,0.3,0.6,0.9c-0.1,0.7-0.7,1.1-1.4,1c-0.2,0-0.4-0.1-0.5-0.2c-0.2-0.2-0.5-0.3-0.5-0.7
	c0.1-0.4,0.5-0.8,0.9-1C202.9,70,203.1,70,203.4,70z"/>
<path d="M18.7,76.7c-0.6,0-0.9-0.4-0.7-1c0.2-0.7,1-1,1.6-0.8c0.4,0.1,0.7,0.4,0.8,0.8c-0.1,0.4-0.4,0.8-0.7,1.1
	C19.3,76.8,19,76.7,18.7,76.7z"/>
<path d="M28.8,76.7h-0.2c-0.5,0-0.7-0.3-0.6-0.9c0.1-0.7,0.7-1.1,1.4-1c0.2,0,0.4,0.1,0.5,0.2c0.2,0.2,0.5,0.3,0.5,0.7
	c-0.1,0.4-0.5,0.8-0.9,0.9C29.3,76.7,29.1,76.7,28.8,76.7z"/>
<path d="M38.9,76.7h-0.2c-0.5,0-0.7-0.3-0.6-0.9c0.1-0.7,0.7-1.1,1.4-1c0.2,0,0.4,0.1,0.5,0.2c0.2,0.2,0.5,0.3,0.5,0.7
	s-0.6,0.9-0.9,0.9C39.4,76.7,39.2,76.7,38.9,76.7z"/>
<path d="M48.9,76.7c-0.6,0-0.8-0.2-0.7-0.8c0-0.1,0-0.2,0-0.2c0.2-0.5,0.7-0.8,1.2-0.9c0.5,0,1,0.4,1.2,0.9
	c-0.1,0.4-0.4,0.8-0.8,1.1C49.5,76.7,49.2,76.7,48.9,76.7z"/>
<path d="M59,76.7c-0.6,0-0.8-0.2-0.7-0.8c0-0.1,0-0.2,0-0.2c0.2-0.5,0.7-0.8,1.2-0.9c0.5,0,1,0.4,1.2,0.9c-0.1,0.4-0.4,0.8-0.8,1.1
	C59.6,76.7,59.3,76.7,59,76.7z"/>
<path d="M69,76.7c-0.6,0-0.8-0.2-0.7-0.9c0-0.1,0-0.2,0-0.2c0.2-0.5,0.7-0.8,1.2-0.8s1,0.4,1.2,0.9c-0.1,0.4-0.4,0.8-0.8,1
	C69.7,76.7,69.4,76.7,69,76.7z"/>
<path d="M79.1,76.7c-0.7,0-0.8-0.2-0.7-0.8c0-0.1,0-0.2,0-0.2c0.2-0.7,1-1,1.6-0.8c0.4,0.1,0.7,0.4,0.8,0.8
	c-0.1,0.4-0.4,0.8-0.8,1.1C79.8,76.7,79.4,76.7,79.1,76.7z"/>
<path d="M89.2,76.7c-0.6,0-0.8-0.2-0.7-0.9c0-0.1,0-0.2,0-0.2c0.2-0.5,0.7-0.8,1.2-0.8s1,0.4,1.2,0.9c-0.1,0.4-0.4,0.8-0.8,1
	C89.8,76.7,89.5,76.7,89.2,76.7z"/>
<path d="M99.4,76.7h-0.2c-0.5,0-0.7-0.3-0.6-0.9c0.1-0.7,0.8-1.1,1.4-0.9c0.2,0,0.3,0.1,0.5,0.2c0.2,0.2,0.5,0.3,0.5,0.7
	c-0.1,0.4-0.5,0.8-0.9,0.9C99.9,76.7,99.6,76.7,99.4,76.7z"/>
<path d="M109.5,76.7c-0.2,0-0.3,0-0.5,0s-0.4-0.2-0.4-0.4c0,0,0,0,0-0.1c0.1-0.3-0.1-0.6,0.2-0.9c0.2-0.2,0.5-0.4,0.7-0.5
	c0.6-0.1,1.2,0.2,1.5,0.8c0.1,0.1,0.1,0.3,0,0.4C110.6,76.5,110.2,76.9,109.5,76.7z"/>
<path d="M119.6,76.7c-0.2,0-0.3,0-0.5,0s-0.4-0.2-0.4-0.4c0,0,0,0,0-0.1c0.1-0.3-0.1-0.6,0.2-0.9c0.2-0.2,0.5-0.4,0.7-0.5
	c0.6-0.1,1.2,0.2,1.5,0.8c0.1,0.1,0.1,0.3,0,0.4C120.7,76.5,120.3,76.9,119.6,76.7z"/>
<path d="M129.7,76.7h-0.2c-0.5,0-0.7-0.3-0.6-0.9c0.1-0.7,0.7-1.1,1.4-1c0.2,0,0.4,0.1,0.5,0.2c0.2,0.2,0.5,0.3,0.5,0.7
	c-0.1,0.4-0.5,0.8-0.9,0.9C130.1,76.7,129.9,76.7,129.7,76.7z"/>
<path d="M139.7,76.7h-0.2c-0.5,0-0.7-0.3-0.6-0.9c0.1-0.7,0.7-1.1,1.4-1c0.2,0,0.4,0.1,0.5,0.2c0.2,0.2,0.5,0.3,0.5,0.7
	c-0.1,0.4-0.5,0.8-0.9,0.9C140.2,76.7,140,76.7,139.7,76.7z"/>
<path d="M149.8,76.7h-0.2c-0.5,0-0.7-0.3-0.6-0.9c0.1-0.7,0.7-1.1,1.4-1c0.2,0,0.4,0.1,0.5,0.2c0.2,0.2,0.5,0.3,0.5,0.7
	c-0.1,0.4-0.5,0.8-0.9,0.9C150.3,76.7,150,76.7,149.8,76.7z"/>
<path d="M159.8,76.7c-0.6,0-0.9-0.4-0.7-1.1c0.2-0.5,0.7-0.8,1.2-0.9c0.5,0,1,0.3,1.2,0.8c-0.1,0.4-0.4,0.8-0.8,1.1
	C160.4,76.7,160.1,76.7,159.8,76.7z"/>
<path d="M170,76.7h-0.2c-0.5,0-0.7-0.3-0.6-0.9c0.1-0.7,0.7-1.1,1.4-1c0.2,0,0.4,0.1,0.5,0.2c0.2,0.2,0.5,0.3,0.5,0.7
	c-0.1,0.4-0.5,0.8-0.9,0.9C170.4,76.7,170.2,76.7,170,76.7z"/>
<path d="M179.9,76.7c-0.6,0-0.9-0.4-0.7-1c0.2-0.7,1-1,1.6-0.8c0.4,0.1,0.7,0.4,0.8,0.8c-0.1,0.4-0.4,0.8-0.7,1.1
	C180.6,76.8,180.3,76.7,179.9,76.7z"/>
<path d="M190,76.7c-0.7,0-0.9-0.4-0.8-1c0.2-0.5,0.6-0.8,1.2-0.9c0.5,0,1,0.3,1.2,0.8c-0.1,0.5-0.3,0.9-0.7,1.1
	C190.7,76.7,190.4,76.7,190,76.7z"/>
<path d="M200.1,76.7c-0.6,0-0.8-0.2-0.7-0.9c0-0.1,0-0.2,0-0.2c0.2-0.5,0.7-0.8,1.2-0.8s1,0.4,1.2,0.9c-0.1,0.4-0.4,0.8-0.8,1
	C200.7,76.7,200.4,76.7,200.1,76.7z"/>
<path d="M21.9,80.1h0.2c0.5,0,0.7,0.3,0.6,0.9c-0.1,0.7-0.7,1.1-1.4,1c-0.2,0-0.4-0.1-0.5-0.2c-0.2-0.2-0.5-0.3-0.5-0.7
	c0.1-0.4,0.4-0.8,0.9-1C21.4,80,21.7,80.1,21.9,80.1z"/>
<path d="M32.8,80.6c0,0.6-0.4,1.3-0.8,1.4c-0.4,0.1-0.9,0-1.2-0.4c-0.3-0.3-0.4-0.9-0.1-1.2c0.1-0.1,0.2-0.2,0.4-0.2
	c0.5-0.1,1.1-0.1,1.6,0C32.7,80.2,32.8,80.5,32.8,80.6z"/>
<path d="M42.1,80.1h0.2c0.5,0,0.7,0.3,0.6,0.9c-0.1,0.6-0.7,1.1-1.4,1c-0.2,0-0.4-0.1-0.5-0.2c-0.2-0.2-0.5-0.3-0.5-0.7
	s0.6-0.9,0.9-0.9S41.8,80.1,42.1,80.1z"/>
<path d="M52.3,80.1c0.7,0,0.8,0.2,0.7,0.8c0,0.1,0,0.2,0,0.2c-0.2,0.7-1,1-1.6,0.8c-0.4-0.1-0.7-0.4-0.8-0.8
	c0.1-0.4,0.4-0.8,0.8-1.1C51.6,80,52,80,52.3,80.1z"/>
<path d="M62.2,80.1h0.2c0.6,0,0.7,0.3,0.6,0.9c-0.1,0.7-0.7,1.1-1.4,1c-0.2,0-0.4-0.1-0.5-0.2c-0.2-0.2-0.5-0.3-0.5-0.7
	c0.1-0.4,0.4-0.8,0.9-1C61.8,80,62,80.1,62.2,80.1z"/>
<path d="M72.3,80.1h0.2c0.6,0,0.7,0.3,0.6,0.9c-0.1,0.7-0.7,1.1-1.4,1c-0.2,0-0.4-0.1-0.5-0.2c-0.2-0.2-0.5-0.3-0.5-0.7
	c0.1-0.4,0.4-0.8,0.9-1C71.8,80,72.1,80.1,72.3,80.1z"/>
<path d="M83.2,80.6c0.2,0.6-0.3,1-0.7,1.3s-1.2-0.1-1.6-0.6c-0.1-0.2-0.1-0.4,0-0.6c0.3-0.3,0.5-0.8,1.1-0.7c0.2,0,0.5,0,0.7,0
	C83.1,80,83.2,80.3,83.2,80.6z"/>
<path d="M93.3,80.6c0.2,0.7-0.3,1-0.7,1.3s-1.2-0.1-1.6-0.6c-0.1-0.2-0.1-0.4,0-0.6c0.3-0.3,0.5-0.8,1.1-0.7c0.2,0,0.5,0,0.7,0
	C93.2,80.1,93.3,80.2,93.3,80.6z"/>
<path d="M102.7,80.1c0.6,0,0.8,0.2,0.7,0.8c0,0.1,0,0.2,0,0.2c-0.2,0.5-0.7,0.8-1.2,0.9c-0.5,0-1-0.4-1.2-0.9c0.1-0.4,0.4-0.8,0.8-1
	C102.1,80.1,102.4,80.1,102.7,80.1z"/>
<path d="M113.5,80.6c0.2,0.6-0.3,1-0.7,1.3s-1.2-0.1-1.6-0.6c-0.1-0.2-0.1-0.4,0-0.6c0.3-0.3,0.5-0.8,1.1-0.7c0.2,0,0.5,0,0.7,0
	C113.4,80,113.5,80.3,113.5,80.6z"/>
<path d="M123.5,80.6c0.2,0.7-0.3,1-0.7,1.3s-1.3-0.1-1.6-0.6c-0.1-0.2-0.1-0.4,0-0.6c0.3-0.3,0.5-0.8,1.1-0.7c0.2,0,0.5,0,0.7,0
	C123.4,80.1,123.5,80.2,123.5,80.6z"/>
<path d="M132.9,80.1c0.6,0,0.9,0.4,0.7,1.1c-0.2,0.7-1,1-1.6,0.8c-0.4-0.1-0.7-0.4-0.8-0.8c-0.1-0.2,0.5-1,0.8-1.1
	S132.6,80,132.9,80.1z"/>
<path d="M142.9,80.1h0.2c0.5,0,0.6,0.1,0.6,0.7c0,0.5-0.2,0.9-0.7,1.1c-0.4,0.3-0.9,0.2-1.2-0.1c-0.2-0.2-0.5-0.3-0.5-0.7
	c0.1-0.4,0.5-0.8,0.9-0.9C142.4,80,142.6,80.1,142.9,80.1z"/>
<path d="M153.8,80.6c0,0.6-0.4,1.3-0.8,1.4c-0.4,0.1-0.9,0-1.2-0.4c-0.3-0.3-0.4-0.9-0.1-1.2c0.1-0.1,0.2-0.2,0.4-0.2
	c0.5-0.1,1.1-0.1,1.6,0C153.7,80.2,153.8,80.5,153.8,80.6z"/>
<path d="M163.1,80.1c0.6,0,0.9,0.4,0.7,1.1c-0.2,0.7-1,1-1.6,0.8c-0.4-0.1-0.7-0.4-0.8-0.8c-0.1-0.2,0.5-1,0.8-1.1
	S162.8,80,163.1,80.1z"/>
<path d="M173.1,80.1h0.2c0.5,0,0.7,0.3,0.6,0.9c-0.1,0.7-0.7,1.1-1.4,1c-0.2,0-0.4-0.1-0.5-0.2c-0.2-0.2-0.5-0.3-0.5-0.7
	c0.1-0.4,0.5-0.8,0.9-0.9C172.6,80,172.9,80.1,173.1,80.1z"/>
<path d="M184,80.5c0.1,0.6-0.1,1.1-0.6,1.4c-0.5,0.2-1.1,0.1-1.4-0.3c-0.3-0.3-0.4-0.8-0.1-1.2c0.1-0.1,0.3-0.2,0.4-0.3
	c0.5-0.1,1-0.1,1.6,0C183.9,80.2,184,80.4,184,80.5z"/>
<path d="M193.3,80.1h0.2c0.6,0,0.7,0.3,0.6,0.9c-0.1,0.7-0.7,1.1-1.4,1c-0.2,0-0.4-0.1-0.5-0.2c-0.2-0.2-0.5-0.3-0.5-0.7
	c0.1-0.4,0.4-0.8,0.9-1C192.8,80,193,80.1,193.3,80.1z"/>
<path d="M28.8,86.8c-0.2,0-0.3,0-0.5,0s-0.4-0.2-0.4-0.4c0,0,0,0,0-0.1c0.1-0.3-0.2-0.6,0.2-0.9c0.2-0.2,0.5-0.4,0.7-0.5
	c0.6-0.1,1.2,0.2,1.5,0.8c0.1,0.1,0.1,0.3,0,0.4C30,86.6,29.6,87,28.8,86.8z"/>
<path d="M38.8,86.8c-0.7,0-0.8-0.2-0.7-0.8c0-0.1,0-0.2,0-0.2c0.2-0.7,1-1,1.6-0.8c0.4,0.1,0.7,0.4,0.8,0.8
	c-0.1,0.4-0.4,0.8-0.8,1.1C39.4,86.8,39.1,86.8,38.8,86.8z"/>
<path d="M49,86.8h-0.2c-0.6,0-0.7-0.3-0.6-0.9c0.1-0.7,0.7-1.1,1.4-1c0.2,0,0.4,0.1,0.5,0.2c0.2,0.2,0.5,0.3,0.5,0.7
	c-0.1,0.4-0.4,0.8-0.9,1C49.5,86.8,49.3,86.8,49,86.8z"/>
<path d="M59.2,86.8c-0.2,0-0.5,0-0.7,0c-0.1-0.1-0.2-0.2-0.3-0.3c-0.2-0.7,0.2-1.4,0.9-1.5c0.2-0.1,0.4-0.1,0.5,0
	c0.4,0.1,0.8,0.4,1,0.8c0.1,0.2-0.4,1-0.7,1.1C59.7,86.8,59.5,86.8,59.2,86.8z"/>
<path d="M69.2,86.8H69c-0.5,0-0.6-0.1-0.6-0.7c0-0.5,0.2-0.9,0.7-1.1c0.4-0.3,0.9-0.2,1.2,0.1c0.2,0.2,0.5,0.3,0.5,0.7
	c-0.1,0.4-0.5,0.8-0.9,0.9C69.6,86.8,69.4,86.8,69.2,86.8z"/>
<path d="M79.1,86.8c-0.6,0-0.9-0.4-0.7-1.1c0.2-0.7,1-1,1.6-0.8c0.4,0.1,0.7,0.4,0.8,0.8c-0.1,0.4-0.4,0.8-0.7,1.1
	C79.8,86.8,79.5,86.8,79.1,86.8z"/>
<path d="M89.3,86.8h-0.2c-0.5,0-0.6-0.1-0.6-0.7c0-0.5,0.2-0.9,0.7-1.1c0.4-0.3,0.9-0.2,1.2,0.1c0.2,0.2,0.5,0.3,0.5,0.7
	c-0.1,0.4-0.5,0.8-0.9,0.9C89.8,86.8,89.6,86.8,89.3,86.8z"/>
<path d="M99.3,86.8c-0.6,0-0.9-0.4-0.7-1.1c0.2-0.7,1-1,1.6-0.8c0.4,0.1,0.7,0.4,0.8,0.8c-0.1,0.4-0.4,0.8-0.7,1.1
	C99.9,86.8,99.6,86.8,99.3,86.8z"/>
<path d="M109.5,86.8h-0.2c-0.6,0-0.7-0.3-0.6-0.9c0.1-0.7,0.7-1.1,1.4-1c0.2,0,0.4,0.1,0.5,0.2c0.2,0.2,0.5,0.3,0.5,0.7
	c-0.1,0.4-0.4,0.8-0.9,1C110,86.8,109.7,86.8,109.5,86.8z"/>
<path d="M119.6,86.8h-0.2c-0.6,0-0.7-0.3-0.6-0.9c0.1-0.7,0.7-1.1,1.4-1c0.2,0,0.4,0.1,0.5,0.2c0.2,0.2,0.5,0.3,0.5,0.7
	c-0.1,0.4-0.4,0.8-0.9,1C120.1,86.8,119.8,86.8,119.6,86.8z"/>
<path d="M139.6,86.8c-0.6,0-0.8-0.2-0.7-0.9c0-0.1,0-0.2,0-0.2c0.2-0.5,0.7-0.8,1.2-0.8s1,0.4,1.2,0.9c-0.1,0.4-0.4,0.8-0.8,1
	C140.2,86.8,139.9,86.8,139.6,86.8z"/>
<path d="M149.7,86.8c-0.6,0-0.8-0.2-0.7-0.8c0-0.1,0-0.2,0-0.2c0.2-0.7,1-1,1.6-0.8c0.4,0.1,0.7,0.4,0.8,0.8
	c-0.1,0.4-0.4,0.8-0.8,1.1C150.3,86.8,150,86.8,149.7,86.8z"/>
<path d="M159.8,86.8c-0.7,0-0.9-0.4-0.8-1c0.2-0.5,0.6-0.8,1.2-0.9c0.5,0,1,0.3,1.2,0.8c-0.1,0.5-0.3,0.9-0.7,1.1
	C160.4,86.8,160.1,86.8,159.8,86.8z"/>
<path d="M169.9,86.8c-0.6,0-0.9-0.4-0.7-1.1c0.2-0.5,0.7-0.8,1.2-0.9c0.5,0,1,0.3,1.2,0.8c-0.1,0.4-0.4,0.8-0.8,1.1
	C170.5,86.8,170.2,86.8,169.9,86.8z"/>
<path d="M179.9,86.8c-0.6,0-0.8-0.2-0.7-0.8c0-0.1,0-0.2,0-0.2c0.2-0.5,0.7-0.8,1.2-0.9c0.5,0,1,0.4,1.2,0.9
	c-0.1,0.4-0.4,0.8-0.8,1.1C180.5,86.8,180.2,86.8,179.9,86.8z"/>
<path d="M42.9,90.6c0.1,0.6-0.1,1.1-0.6,1.4c-0.5,0.2-1.1,0.1-1.4-0.3c-0.3-0.3-0.4-0.8-0.1-1.2c0.1-0.1,0.3-0.2,0.4-0.3
	c0.5-0.1,1-0.1,1.6,0C42.8,90.2,42.8,90.5,42.9,90.6z"/>
<path d="M52.2,90.1c0.2,0,0.3,0,0.5,0s0.4,0.2,0.3,0.5l0,0c-0.1,0.3,0.2,0.6-0.2,0.9c-0.2,0.2-0.5,0.4-0.7,0.5
	c-0.6,0.1-1.2-0.2-1.5-0.7c-0.1-0.1-0.1-0.3,0-0.4C51,90.3,51.4,89.9,52.2,90.1z"/>
<path d="M62.2,90.1h0.2c0.5,0,0.6,0.1,0.6,0.7c0,0.5-0.2,0.9-0.7,1.1c-0.4,0.3-0.9,0.2-1.2-0.1c-0.2-0.2-0.5-0.3-0.5-0.7
	c0.1-0.4,0.5-0.8,0.9-0.9C61.8,90.1,62,90.1,62.2,90.1z"/>
<path d="M83.2,90.7c0.2,0.6-0.3,1-0.7,1.3s-1.2-0.1-1.6-0.6c-0.1-0.2-0.1-0.4,0-0.6c0.3-0.3,0.5-0.8,1.1-0.7c0.2,0,0.5,0,0.7,0
	C83.1,90.1,83.2,90.3,83.2,90.7z"/>
<path d="M93.3,90.7c0.2,0.6-0.3,1-0.7,1.3s-1.2-0.1-1.6-0.6c-0.1-0.2-0.1-0.4,0-0.6c0.3-0.3,0.5-0.8,1.1-0.7c0.2,0,0.5,0,0.7,0
	C93.2,90.1,93.3,90.3,93.3,90.7z"/>
<path d="M103.4,90.7c0.2,0.6-0.3,1-0.7,1.3s-1.2-0.1-1.6-0.6c-0.1-0.2-0.1-0.4,0-0.6c0.3-0.3,0.5-0.8,1.1-0.7c0.2,0,0.5,0,0.7,0
	C103.3,90.1,103.4,90.3,103.4,90.7z"/>
<path d="M112.6,90.1h0.2c0.5,0,0.7,0.3,0.6,0.9c-0.1,0.7-0.7,1.1-1.4,1c-0.2,0-0.4-0.1-0.5-0.2c-0.2-0.2-0.5-0.3-0.5-0.7
	c0.1-0.4,0.5-0.8,0.9-1C112.2,90.1,112.4,90.1,112.6,90.1z"/>
<path d="M122.7,90.1h0.2c0.6,0,0.7,0.3,0.6,0.9c-0.1,0.7-0.7,1.1-1.4,1c-0.2,0-0.4-0.1-0.5-0.2c-0.2-0.2-0.5-0.3-0.5-0.7
	c0.1-0.4,0.4-0.8,0.9-1C122.2,90.1,122.5,90.1,122.7,90.1z"/>
<path d="M143,90.1c0.6,0,0.8,0.2,0.7,0.8c0,0.1,0,0.2,0,0.2c-0.2,0.5-0.7,0.8-1.2,0.9c-0.5,0-1-0.4-1.2-0.9c0.1-0.4,0.4-0.8,0.8-1
	C142.4,90.2,142.7,90.1,143,90.1z"/>
<path d="M152.9,90.1h0.2c0.6,0,0.7,0.3,0.6,0.9c-0.1,0.7-0.7,1.1-1.4,1c-0.2,0-0.4-0.1-0.5-0.2c-0.2-0.2-0.5-0.3-0.5-0.7
	c0.1-0.4,0.4-0.8,0.9-1C152.5,90.1,152.7,90.1,152.9,90.1z"/>
<path d="M163,90.1h0.2c0.5,0,0.7,0.3,0.6,0.9c-0.1,0.7-0.7,1.1-1.4,1c-0.2,0-0.4-0.1-0.5-0.2c-0.2-0.2-0.5-0.3-0.5-0.7
	c0.1-0.4,0.5-0.8,0.9-1C162.6,90.1,162.8,90.1,163,90.1z"/>
<path d="M173.9,90.7c0.2,0.7-0.3,1-0.7,1.3s-1.2-0.1-1.6-0.6c-0.1-0.2-0.1-0.4,0-0.6c0.3-0.3,0.5-0.8,1.1-0.7c0.2,0,0.5,0,0.7,0
	C173.8,90.1,173.9,90.3,173.9,90.7z"/>
<path d="M49,96.9h-0.2c-0.5,0-0.7-0.3-0.6-1s0.8-1.1,1.4-0.9c0.2,0,0.3,0.1,0.5,0.2c0.2,0.2,0.5,0.3,0.5,0.7
	c-0.1,0.4-0.5,0.8-0.9,0.9C49.5,96.8,49.2,96.9,49,96.9z"/>
<path d="M89.3,96.9c-0.7,0-0.9-0.4-0.8-1c0.2-0.5,0.6-0.8,1.2-0.9c0.5,0,1,0.3,1.2,0.8c-0.1,0.5-0.3,0.9-0.7,1.1
	C89.9,96.9,89.6,96.9,89.3,96.9z"/>
<path d="M99.4,96.9h-0.2c-0.6,0-0.7-0.3-0.6-0.9c0.1-0.7,0.7-1.1,1.4-1c0.2,0,0.4,0.1,0.5,0.2c0.2,0.2,0.5,0.3,0.5,0.7
	c-0.1,0.4-0.4,0.8-0.9,1C99.9,96.9,99.7,96.9,99.4,96.9z"/>
<path d="M109.5,96.9h-0.2c-0.6,0-0.7-0.3-0.6-0.9c0.1-0.6,0.7-1.1,1.4-1c0.2,0,0.4,0.1,0.5,0.2c0.2,0.2,0.5,0.3,0.5,0.7
	c-0.1,0.4-0.4,0.8-0.9,1C110,96.9,109.7,96.9,109.5,96.9z"/>
<path d="M119.4,96.9c-0.6,0-0.8-0.2-0.7-0.8c0-0.1,0-0.2,0-0.2c0.2-0.5,0.7-0.8,1.2-0.9c0.5,0,1,0.4,1.2,0.9c-0.1,0.4-0.4,0.8-0.8,1
	C120.1,96.8,119.8,96.9,119.4,96.9z"/>
<path d="M149.8,96.9h-0.2c-0.6,0-0.7-0.3-0.6-0.9c0.1-0.6,0.7-1.1,1.4-1c0.2,0,0.4,0.1,0.5,0.2c0.2,0.2,0.5,0.3,0.5,0.7
	c-0.1,0.4-0.4,0.8-0.9,1C150.3,96.9,150.1,96.9,149.8,96.9z"/>
<path d="M159.8,96.9c-0.6,0-0.8-0.2-0.7-0.8c0-0.1,0-0.2,0-0.2c0.2-0.7,1-1,1.6-0.8c0.4,0.1,0.7,0.4,0.8,0.8
	c-0.1,0.4-0.4,0.8-0.8,1.1C160.4,96.9,160.1,96.9,159.8,96.9z"/>
<path d="M102.7,100.2c0.6,0,0.9,0.4,0.7,1.1c-0.2,0.5-0.7,0.8-1.2,0.9c-0.5,0-1-0.3-1.2-0.9c-0.1-0.2,0.5-1,0.8-1.1
	C102,100.2,102.4,100.2,102.7,100.2z"/>
<path d="M112.7,100.2c0.6,0,0.9,0.4,0.7,1.1c-0.2,0.7-1,1-1.6,0.8c-0.4-0.1-0.7-0.4-0.8-0.8c-0.1-0.2,0.5-1,0.8-1.1
	C112.1,100.2,112.4,100.2,112.7,100.2z"/>
<path d="M135,56.5c-0.5,0.1-0.8-0.2-1.2-0.5c-0.2-0.2-0.2-0.2,0-0.3s0.3-0.2,0.3-0.3c0-0.3,0-0.7,0.4-0.7c0.3-0.1,0.6,0,0.9,0.1
	c0.5,0.3,0.8,0.8,0.7,1.3c-0.1,0.3-0.1,0.4-0.4,0.5C135.4,56.6,135.2,56.6,135,56.5z"/>
<path d="M145.2,56.5c-0.2,0-0.5,0-0.7,0c-0.3-0.2-0.5-0.4-0.7-0.6c0-0.1,0.2-0.3,0.3-0.5c0.3-0.6,0.6-0.9,1-0.8
	c0.6,0.1,1.1,0.7,1,1.3c0,0.5-0.1,0.6-0.5,0.6H145.2z"/>
<path d="M155.1,56.5c-0.4,0.1-0.8-0.1-1-0.4s-0.2-0.3,0-0.7c0.1-0.2,0.1-0.6,0.3-0.8c0.6-0.3,1.4,0,1.7,0.6c0,0.1,0.1,0.2,0.1,0.3
	c0.1,0.7-0.1,1-0.8,1H155.1z"/>
<path d="M165.3,56.5c-0.2,0-0.3,0-0.5,0c-0.6,0-0.8-0.6-0.6-1.1c0-0.1,0.1-0.1,0.1-0.2c0-0.3,0.1-0.6,0.5-0.6s0.6-0.1,0.9,0.2
	s0.6,0.6,0.6,1.2s-0.1,0.6-0.5,0.6L165.3,56.5z"/>
<path d="M175.4,56.5c-0.2,0-0.3,0-0.5,0c-0.6,0-0.8-0.6-0.6-1.1c0-0.1,0.1-0.1,0.1-0.2c0-0.3,0.1-0.6,0.5-0.6s0.6-0.1,0.9,0.2
	s0.6,0.6,0.6,1.2s-0.1,0.6-0.5,0.6L175.4,56.5z"/>
<path d="M185.9,56.5c-1,0.1-1.4-0.1-1.8-0.5c-0.1-0.2-0.1-0.2,0-0.3c0.2-0.2,0.3-0.4,0.3-0.6c0-0.3,0.1-0.4,0.4-0.4
	c0.5,0,0.9-0.1,1.2,0.4c0.2,0.2,0.4,1.2,0.3,1.3C186.2,56.4,186.1,56.5,185.9,56.5z"/>
<path d="M128.3,60.8c0,0.2,0,0.5,0,0.7c0,0.1-0.1,0.1-0.1,0.2h-1.6c-0.1,0-0.1-0.1-0.1-0.2c0-0.5,0-0.9,0-1.4c0-0.1,0.1-0.1,0.1-0.2
	c0.5,0,1.1,0,1.6,0c0.1,0,0.1,0.2,0.1,0.4C128.4,60.5,128.4,60.7,128.3,60.8z"/>
<path d="M137.5,61.8c-0.2,0-0.5,0-0.7,0c-0.1,0-0.2-0.1-0.2-0.2c0-0.5,0-1.1,0-1.6c0,0,0.1-0.2,0.2-0.2c0.5,0,1,0,1.4,0
	c0.1,0,0.2,0.1,0.2,0.2c0,0.5,0,1.1,0,1.6c0,0.1-0.2,0.1-0.4,0.2C137.8,61.8,137.6,61.8,137.5,61.8z"/>
<path d="M146.6,60.8c0-0.2,0-0.3,0-0.5c0-0.3,0.1-0.4,0.4-0.5c0.3,0,0.6,0,0.9,0c0.5,0,0.6,0.1,0.6,0.7c0,0.2,0,0.5,0,0.7
	s-0.1,0.4-0.3,0.5h-0.1c-0.3,0-0.6,0-0.9,0c-0.5,0-0.6-0.1-0.6-0.7L146.6,60.8z"/>
<path d="M158.6,61.1c0,0.6-0.1,0.7-0.6,0.7c-0.3,0-0.6,0-0.9,0c-0.1,0-0.4-0.2-0.4-0.2c0-0.5,0-0.9,0-1.4c0-0.1,0.2-0.2,0.4-0.2
	c0.3,0,0.6,0,0.9,0c0.5,0,0.6,0.1,0.6,0.7V61.1z"/>
<path d="M167.7,59.9c0.2,0,0.3,0,0.5,0s0.4,0.1,0.5,0.3v0.1c0,0.3,0,0.7,0,1c0,0.5-0.1,0.6-0.7,0.6c-0.2,0-0.5,0-0.7,0
	s-0.4-0.1-0.5-0.3v-0.1c0-0.3,0-0.7,0-1c0-0.5,0.1-0.6,0.7-0.6H167.7z"/>
<path d="M177.7,59.9c0.2,0,0.5,0,0.7,0c0.1,0,0.4,0.1,0.4,0.2c0,0.5,0,1,0,1.4c0,0.1-0.1,0.2-0.1,0.2h-1.6c-0.1,0-0.1-0.1-0.1-0.2
	c0-0.5,0-0.9,0-1.4c0-0.1,0.2-0.2,0.4-0.2C177.3,59.9,177.5,59.9,177.7,59.9z"/>
<path d="M188.8,60.8c0,0.2,0,0.5,0,0.7c0,0.1-0.1,0.1-0.1,0.2h-1.6c-0.1,0-0.1-0.1-0.1-0.2c0-0.5,0-0.9,0-1.4c0-0.1,0.1-0.1,0.1-0.2
	c0.5,0,1.1,0,1.6,0c0.1,0,0.1,0.2,0.1,0.4C188.8,60.5,188.8,60.7,188.8,60.8z"/>
<path d="M24.2,66.6H24c-0.9,0-1.1-0.4-0.8-1.3c0.1-0.3,0-0.6,0.5-0.6c0.3,0,0.6,0,0.9,0.2c0.4,0.2,0.7,0.7,0.6,1.2
	c-0.1,0.5-0.1,0.6-0.5,0.6L24.2,66.6z"/>
<path d="M34.3,66.6h-0.2c-0.9,0-1.1-0.4-0.8-1.3c0.1-0.3,0.1-0.6,0.5-0.6c0.3,0,0.6-0.1,0.9,0.2s0.7,0.6,0.6,1.2s-0.1,0.6-0.5,0.6
	L34.3,66.6L34.3,66.6z"/>
<path d="M114.8,66.6c-0.4,0.1-0.8-0.1-1-0.4s-0.2-0.3,0-0.7c0.1-0.2,0.1-0.6,0.3-0.8c0.6-0.3,1.4,0,1.7,0.6c0,0.1,0.1,0.2,0.1,0.3
	c0.1,0.7-0.1,1-0.8,1H114.8z"/>
<path d="M124.9,66.6c-0.5,0.1-0.8-0.2-1.2-0.5c-0.2-0.2-0.2-0.2,0-0.3s0.3-0.2,0.3-0.3c0-0.3,0-0.7,0.4-0.7c0.3-0.1,0.6,0,0.9,0.1
	c0.5,0.2,0.8,0.8,0.7,1.3c-0.1,0.3-0.1,0.4-0.4,0.5C125.4,66.6,125.1,66.6,124.9,66.6z"/>
<path d="M135.1,66.6c-0.2,0-0.5,0.1-0.7,0c-0.3-0.2-0.5-0.4-0.7-0.6c0-0.1,0.2-0.3,0.3-0.5c0-0.1,0.1-0.1,0.1-0.2
	c0-0.3,0.1-0.6,0.5-0.6s0.6-0.1,0.9,0.2s0.6,0.6,0.6,1.2s-0.1,0.6-0.5,0.6L135.1,66.6z"/>
<path d="M145,66.6c-0.4,0.1-0.8-0.1-1-0.4s-0.2-0.3,0-0.7c0.1-0.2,0.1-0.6,0.3-0.8c0.6-0.3,1.4,0,1.7,0.6c0,0.1,0.1,0.2,0.1,0.3
	c0.1,0.7-0.1,1-0.8,1H145z"/>
<path d="M155.2,66.6c-0.2,0-0.3,0-0.5,0c-0.4,0-0.5-0.3-0.7-0.5c-0.4-0.4,0.1-0.4,0.2-0.7s0-0.6,0.3-0.8c0.2-0.1,0.5-0.1,0.7,0
	c0.6,0.2,1,0.7,0.9,1.4c0,0.3-0.1,0.6-0.5,0.6C155.5,66.6,155.4,66.6,155.2,66.6z"/>
<path d="M165.3,66.6c-0.2,0-0.3,0-0.5,0c-0.4,0-0.5-0.3-0.7-0.5c-0.4-0.4,0.1-0.4,0.2-0.7s0-0.6,0.3-0.8c0.2-0.1,0.5-0.1,0.7,0
	c0.6,0.2,1,0.7,0.9,1.4c0,0.3-0.1,0.6-0.5,0.6C165.6,66.6,165.4,66.6,165.3,66.6z"/>
<path d="M175.4,66.6c-0.2,0-0.5,0.1-0.7,0c-0.3-0.2-0.5-0.4-0.7-0.6c0-0.1,0.2-0.3,0.3-0.5c0-0.1,0.1-0.1,0.1-0.2
	c0-0.3,0.1-0.6,0.5-0.6s0.6-0.1,0.9,0.2s0.6,0.6,0.6,1.2s-0.1,0.6-0.5,0.6L175.4,66.6z"/>
<path d="M107.2,102.1c-0.2,0-0.5,0-0.7,0c-0.1,0-0.2-0.1-0.2-0.1c0-0.5,0-1.1,0-1.6c0,0,0.1-0.1,0.2-0.2h1.4c0.1,0,0.2,0.1,0.2,0.1
	c0,0.5,0,1.1,0,1.6c0,0.1-0.2,0.1-0.4,0.2C107.6,102.2,107.4,102.2,107.2,102.1z"/>
<path d="M98.1,101.2c0,0.2,0,0.5,0,0.7c0,0.1-0.1,0.1-0.1,0.2c-0.5,0-1.1,0-1.6,0c-0.1,0-0.2-0.1-0.2-0.2c0-0.5,0-1,0-1.4
	c0-0.1,0.1-0.1,0.1-0.2c0.5,0,1.1,0,1.6,0c0.1,0,0.1,0.2,0.2,0.4C98.1,100.8,98.1,101,98.1,101.2z"/>
<path d="M185.3,66.6c-0.4,0.1-0.8-0.1-1-0.4s-0.2-0.3,0-0.7c0.1-0.2,0.1-0.6,0.3-0.8c0.6-0.3,1.4,0,1.7,0.6c0,0.1,0.1,0.2,0.1,0.3
	c0.1,0.7-0.1,1-0.8,1H185.3z"/>
<path d="M165.3,96.9c-0.2,0-0.3,0-0.5,0c-0.6,0-0.8-0.6-0.6-1.1c0-0.1,0.1-0.1,0.1-0.2c0-0.3,0.1-0.6,0.5-0.6s0.6-0.1,0.9,0.2
	s0.6,0.6,0.6,1.2s-0.1,0.6-0.5,0.6L165.3,96.9z"/>
<path d="M155.2,96.9H155c-0.9,0-1.1-0.4-0.8-1.3c0.1-0.3,0.1-0.6,0.5-0.6c0.3,0,0.6,0,0.9,0.2c0.4,0.2,0.7,0.7,0.6,1.1
	c-0.1,0.5-0.1,0.6-0.5,0.6H155.2z"/>
<path d="M145.3,96.9c-0.5,0.1-1.1-0.1-1.4-0.6c-0.1-0.2-0.2-0.2,0-0.4c0.1-0.2,0.2-0.4,0.3-0.6c0.1-0.1,0.1-0.3,0.2-0.4
	c0.7-0.3,1.4,0,1.7,0.7c0,0.1,0,0.1,0.1,0.2C146.2,96.6,146,96.9,145.3,96.9z"/>
<path d="M114.8,96.9c-0.4,0.1-0.8-0.1-1-0.4c-0.2-0.3-0.2-0.3,0-0.7c0.1-0.2,0.1-0.6,0.3-0.8c0.6-0.3,1.4,0,1.7,0.6
	c0,0.1,0.1,0.2,0.1,0.3c0.1,0.7-0.1,1-0.8,1L114.8,96.9z"/>
<path d="M105,96.9c-0.5,0.1-1.1-0.1-1.4-0.6c-0.1-0.2-0.2-0.2,0-0.4c0.1-0.2,0.2-0.4,0.3-0.6c0.1-0.1,0.1-0.3,0.2-0.4
	c0.7-0.3,1.4,0.1,1.7,0.7c0,0.1,0,0.1,0.1,0.2C105.9,96.6,105.7,96.9,105,96.9z"/>
<path d="M94.6,96.9c-0.5,0.1-0.8-0.2-1.2-0.5c-0.2-0.2-0.2-0.2,0-0.4s0.3-0.2,0.3-0.3c0-0.3,0-0.6,0.4-0.7c0.3-0.1,0.6,0,0.9,0.1
	c0.5,0.3,0.8,0.8,0.7,1.4c-0.1,0.3-0.1,0.4-0.4,0.5C95.1,96.9,94.8,96.9,94.6,96.9z"/>
<path d="M195.6,66.6h-0.2c-0.9,0-1.1-0.4-0.8-1.3c0.1-0.3,0-0.6,0.5-0.6c0.3,0,0.6,0,0.9,0.2c0.4,0.2,0.7,0.7,0.6,1.2
	c-0.1,0.5-0.1,0.6-0.5,0.6L195.6,66.6z"/>
<path d="M44.2,96.9c-0.5,0.1-0.8-0.2-1.2-0.5c-0.2-0.2-0.2-0.2,0-0.4s0.3-0.2,0.3-0.3c0-0.3,0-0.6,0.4-0.7c0.3-0.1,0.6,0,0.8,0.1
	c0.5,0.3,0.8,0.8,0.7,1.4c0,0.3-0.1,0.4-0.4,0.5C44.7,96.9,44.5,96.9,44.2,96.9z"/>
<path d="M167.5,92.1c-0.6,0-0.7-0.1-0.7-0.6c0-0.3,0-0.6,0-0.9c0-0.1,0.1-0.3,0.2-0.4c0.5,0,0.9,0,1.4,0c0.1,0,0.2,0.2,0.2,0.4
	c0,0.3,0,0.7,0,1c0,0.5-0.1,0.6-0.7,0.6L167.5,92.1z"/>
<path d="M157.5,90.1c0.2,0,0.5,0,0.7,0c0.1,0,0.4,0.1,0.4,0.2c0,0.5,0,1,0,1.4c0,0.1-0.1,0.2-0.1,0.2h-1.6c-0.1,0-0.1-0.1-0.1-0.2
	c0-0.5,0-0.9,0-1.4c0-0.1,0.2-0.2,0.4-0.2C157.2,90.1,157.3,90.1,157.5,90.1z"/>
<path d="M147.3,92.1c-0.6,0-0.7-0.1-0.7-0.6c0-0.3,0-0.6,0-0.9c0-0.1,0.1-0.3,0.2-0.4c0.5,0,0.9,0,1.4,0c0.1,0,0.2,0.2,0.2,0.4
	c0,0.3,0,0.7,0,1c0,0.5-0.1,0.6-0.7,0.6L147.3,92.1z"/>
<path d="M138.4,91.3c0,0.6-0.1,0.7-0.6,0.7c-0.3,0-0.6,0-0.9,0c-0.1,0-0.4-0.1-0.4-0.2c0-0.5,0-0.9,0-1.4c0-0.1,0.2-0.2,0.4-0.2
	c0.3,0,0.6,0,0.9,0c0.5,0,0.6,0.1,0.6,0.7V91.3z"/>
<path d="M117.5,90.1c0.6,0,0.7,0.1,0.7,0.6c0,0.3,0,0.6,0,0.9c0,0.1-0.1,0.3-0.2,0.4c-0.5,0-0.9,0-1.4,0c-0.1,0-0.2-0.2-0.2-0.4
	c0-0.3,0-0.6,0-0.9c0-0.5,0.1-0.6,0.7-0.6H117.5z"/>
<path d="M107.1,90.1c0.2,0,0.5,0,0.7,0c0.1,0,0.4,0.1,0.4,0.2c0,0.5,0,1,0,1.4c0,0.1-0.1,0.2-0.1,0.2h-1.6c-0.1,0-0.1-0.1-0.1-0.2
	c0-0.5,0-0.9,0-1.4c0-0.1,0.2-0.2,0.4-0.2C106.8,90.1,106.9,90.1,107.1,90.1z"/>
<path d="M97.4,90.1c0.6,0,0.7,0.1,0.7,0.6c0,0.3,0,0.6,0,0.9c0,0.1-0.1,0.3-0.2,0.4c-0.5,0-0.9,0-1.4,0c-0.1,0-0.2-0.2-0.2-0.4
	c0-0.3,0-0.6,0-0.9c0-0.5,0.1-0.6,0.7-0.6H97.4z"/>
<path d="M87.1,92.1c-0.2,0-0.5,0-0.7,0c-0.1,0-0.2-0.1-0.2-0.1c0-0.5,0-1.1,0-1.6c0-0.1,0.1-0.1,0.2-0.2h1.4c0.1,0,0.2,0.1,0.2,0.1
	c0,0.5,0,1.1,0,1.6c0,0.1-0.2,0.1-0.4,0.2C87.4,92.1,87.2,92.1,87.1,92.1z"/>
<path d="M57.8,91.3c0,0.6-0.1,0.7-0.6,0.7c-0.3,0-0.6,0-0.9,0c-0.1,0-0.3-0.1-0.3-0.2c0-0.5,0-0.9,0-1.4c0-0.1,0.2-0.2,0.3-0.2
	c0.3,0,0.7,0,1,0c0.5,0,0.6,0.1,0.6,0.7L57.8,91.3z"/>
<path d="M47.7,91.1c0,0.2,0,0.5,0,0.7c0,0.1-0.1,0.1-0.2,0.2c-0.5,0-1.1,0-1.6,0c-0.1,0-0.2-0.1-0.2-0.2c0-0.5,0-0.9,0-1.4
	c0-0.1,0.1-0.1,0.2-0.2c0.5,0,1.1,0,1.6,0c0.1,0,0.1,0.2,0.2,0.4C47.7,90.8,47.7,90.9,47.7,91.1z"/>
<path d="M36.9,90.1c0.6,0,0.7,0.1,0.7,0.6c0,0.3,0,0.6,0,0.9c0,0.1-0.2,0.3-0.2,0.4c-0.5,0-0.9,0-1.4,0c-0.1,0-0.2-0.2-0.2-0.4
	c0-0.3,0-0.6,0-0.9c0-0.5,0.1-0.6,0.7-0.6H36.9z"/>
<path d="M175.4,86.8c-0.2,0-0.5,0.1-0.7,0c-0.3-0.2-0.5-0.4-0.7-0.6c0-0.1,0.2-0.3,0.3-0.5c0-0.1,0.1-0.1,0.1-0.2
	c0-0.3,0.1-0.6,0.5-0.6s0.6-0.1,0.9,0.1s0.6,0.6,0.6,1.2s-0.1,0.6-0.5,0.6H175.4z"/>
<path d="M17.5,71.2c0,0.6-0.1,0.7-0.6,0.7c-0.3,0-0.6,0-0.9,0c-0.1,0-0.3-0.1-0.3-0.2c0-0.5,0-0.9,0-1.4c0-0.1,0.2-0.2,0.3-0.2
	c0.3,0,0.6,0,1,0c0.5,0,0.6,0.1,0.6,0.7L17.5,71.2L17.5,71.2z"/>
<path d="M165.2,86.8c-0.5,0.1-0.8-0.2-1.2-0.5c-0.2-0.2-0.2-0.2,0-0.4s0.3-0.2,0.3-0.3c0-0.3,0-0.6,0.4-0.7c0.3-0.1,0.6,0,0.9,0.1
	c0.5,0.3,0.8,0.8,0.7,1.4c-0.1,0.3-0.1,0.4-0.4,0.5C165.7,86.8,165.4,86.8,165.2,86.8z"/>
<path d="M155.2,86.8H155c-0.9,0-1.1-0.4-0.8-1.3c0.1-0.3,0.1-0.6,0.5-0.6s0.6-0.1,0.9,0.1s0.6,0.6,0.6,1.2s-0.1,0.6-0.5,0.6H155.2z"
	/>
<path d="M145.1,86.8c-0.2,0-0.3,0-0.5,0c-0.6-0.1-0.8-0.6-0.6-1.1c0-0.1,0.1-0.1,0.1-0.2c0-0.3,0.1-0.6,0.5-0.6s0.6-0.1,0.9,0.2
	s0.6,0.6,0.6,1.2s-0.1,0.6-0.5,0.6L145.1,86.8z"/>
<path d="M135.1,86.8h-0.2c-0.9,0-1.1-0.4-0.8-1.3c0.1-0.3,0.1-0.6,0.5-0.6s0.6-0.1,0.9,0.1s0.6,0.6,0.6,1.2s-0.1,0.6-0.5,0.6H135.1z
	"/>
<path d="M26.5,70c0.2,0,0.5,0,0.7,0c0.1,0,0.3,0.1,0.3,0.2c0,0.5,0,1,0,1.4c0,0-0.1,0.2-0.2,0.2h-1.6c-0.1,0-0.1-0.1-0.2-0.2
	c0-0.5,0-0.9,0-1.4c0-0.1,0.2-0.2,0.3-0.2C26.1,70,26.3,70,26.5,70z"/>
<path d="M124.9,86.8c-0.5,0.1-0.8-0.2-1.2-0.5c-0.2-0.2-0.2-0.2,0-0.4s0.3-0.2,0.3-0.3c0-0.3,0-0.6,0.4-0.7c0.3-0.1,0.6,0,0.9,0.1
	c0.5,0.3,0.8,0.8,0.7,1.4c-0.1,0.3-0.1,0.4-0.4,0.5C125.3,86.8,125.1,86.8,124.9,86.8z"/>
<path d="M114.8,86.8c-0.4,0.1-0.8-0.1-1-0.4c-0.2-0.3-0.2-0.3,0-0.7s0.1-0.6,0.3-0.8c0.6-0.3,1.4,0,1.7,0.6c0,0.1,0.1,0.2,0.1,0.2
	c0.1,0.7-0.1,1-0.8,1L114.8,86.8z"/>
<path d="M104.8,86.8h-0.2c-0.9,0-1.1-0.4-0.8-1.3c0.1-0.3,0-0.6,0.5-0.6c0.3,0,0.6,0,0.9,0.2c0.4,0.2,0.7,0.7,0.6,1.1
	c-0.1,0.5-0.1,0.6-0.5,0.6H104.8z"/>
<path d="M94.9,86.8c-0.5,0.1-1.1-0.1-1.4-0.6c-0.1-0.2-0.2-0.2,0-0.4c0.1-0.2,0.2-0.4,0.3-0.6c0.1-0.1,0.1-0.3,0.2-0.4
	c0.7-0.3,1.4,0.1,1.7,0.7c0,0.1,0,0.1,0.1,0.2C95.8,86.6,95.6,86.8,94.9,86.8z"/>
<path d="M84.7,86.8c-0.2,0-0.3,0-0.5,0c-0.6,0-0.8-0.6-0.6-1.1c0-0.1,0.1-0.1,0.1-0.2c0-0.4,0.1-0.6,0.5-0.6s0.6-0.1,0.9,0.2
	c0.4,0.3,0.6,0.7,0.6,1.2c-0.1,0.4-0.1,0.6-0.5,0.6L84.7,86.8z"/>
<path d="M74.7,86.8c-0.5,0.1-1.1-0.1-1.4-0.6c-0.1-0.2-0.2-0.2,0-0.4c0.1-0.2,0.2-0.4,0.3-0.6c0.1-0.1,0.1-0.3,0.2-0.4
	c0.7-0.3,1.4,0.1,1.7,0.7c0,0.1,0,0.1,0.1,0.2C75.7,86.6,75.5,86.8,74.7,86.8z"/>
<path d="M64.5,86.8c-0.2,0-0.3,0-0.5,0c-0.6,0-0.8-0.6-0.6-1.1c0-0.1,0.1-0.1,0.1-0.2c0-0.4,0.1-0.6,0.5-0.6s0.6-0.1,0.9,0.2
	s0.6,0.6,0.6,1.2s-0.1,0.6-0.5,0.6L64.5,86.8z"/>
<path d="M54.4,86.8h-0.2c-0.9,0-1.1-0.4-0.8-1.3c0.1-0.3,0.1-0.6,0.5-0.6c0.3,0,0.6-0.1,0.9,0.1s0.7,0.6,0.6,1.2s-0.1,0.6-0.5,0.6
	H54.4z"/>
<path d="M44.3,86.8c-0.2,0-0.3,0-0.5,0c-0.6,0-0.8-0.6-0.6-1.1c0-0.1,0.1-0.1,0.1-0.2c0-0.4,0.1-0.6,0.5-0.6s0.6-0.1,0.9,0.2
	s0.6,0.6,0.6,1.2s-0.1,0.6-0.5,0.6L44.3,86.8z"/>
<path d="M36.7,71.9c-0.2,0-0.5,0-0.7,0c-0.1,0-0.2-0.1-0.2-0.1c0-0.5,0-1.1,0-1.6c0,0,0.1-0.2,0.2-0.2c0.5,0,1,0,1.4,0
	c0.1,0,0.2,0.1,0.2,0.2c0,0.5,0,1.1,0,1.6c0,0.1-0.2,0.1-0.4,0.2C37,71.9,36.8,71.9,36.7,71.9z"/>
<path d="M47,70c0.6,0,0.7,0.1,0.7,0.6c0,0.3,0,0.7,0,1c0,0.1-0.2,0.3-0.2,0.4c-0.5,0-0.9,0-1.4,0c-0.1,0-0.2-0.2-0.2-0.4
	c0-0.3,0-0.7,0-1c0-0.5,0.1-0.6,0.7-0.6L47,70z"/>
<path d="M34.3,86.8c-0.2,0-0.5,0.1-0.7,0c-0.3-0.2-0.5-0.4-0.7-0.6c0-0.1,0.2-0.3,0.3-0.5c0-0.1,0.1-0.1,0.1-0.2
	c0-0.3,0.1-0.6,0.5-0.6s0.6-0.1,0.9,0.1s0.7,0.6,0.6,1.2s-0.1,0.6-0.5,0.6H34.3z"/>
<path d="M197.8,80.1c0.2,0,0.5,0,0.7,0c0.1,0,0.4,0.1,0.4,0.2c0,0.5,0,1,0,1.4c0,0.1-0.1,0.2-0.1,0.2c-0.5,0-1.1,0-1.6,0
	c-0.1,0-0.1-0.1-0.1-0.2c0-0.5,0-0.9,0-1.4c0-0.1,0.2-0.2,0.4-0.2C197.5,80,197.7,80,197.8,80.1z"/>
<path d="M187.9,80.1c0.2,0,0.3,0,0.5,0s0.4,0.1,0.5,0.3v0.1c0,0.3,0,0.6,0,0.9c0,0.5-0.1,0.6-0.7,0.6c-0.2,0-0.5,0-0.7,0
	s-0.4-0.1-0.5-0.3v-0.1c0-0.3,0-0.6,0-0.9c0-0.5,0.1-0.6,0.7-0.6H187.9z"/>
<path d="M178.7,81c0,0.2,0,0.5,0,0.7c0,0.1-0.1,0.1-0.1,0.2c-0.5,0-1.1,0-1.6,0c-0.1,0-0.1-0.1-0.1-0.2c0-0.5,0-0.9,0-1.4
	c0-0.1,0.1-0.1,0.1-0.2c0.5,0,1.1,0,1.6,0c0.1,0,0.1,0.2,0.1,0.4C178.8,80.7,178.8,80.8,178.7,81z"/>
<path d="M167.5,82c-0.6,0-0.7-0.1-0.7-0.6c0-0.3,0-0.7,0-1c0-0.1,0.1-0.3,0.2-0.4c0.5,0,0.9,0,1.4,0c0.1,0,0.2,0.2,0.2,0.4
	c0,0.3,0,0.6,0,0.9c0,0.5-0.1,0.6-0.7,0.6L167.5,82z"/>
<path d="M156.7,81c0-0.2,0-0.3,0-0.5c-0.1-0.3,0.1-0.4,0.4-0.5c0.3,0,0.6,0,0.9,0c0.5,0,0.6,0.1,0.6,0.7c0,0.2,0,0.5,0,0.7
	s-0.1,0.4-0.3,0.5h-0.1c-0.3,0-0.6,0-0.9,0c-0.5,0-0.6-0.1-0.6-0.7L156.7,81z"/>
<path d="M61.7,71.9c-0.5,0-0.7-0.4-1-0.7s-0.1-0.8,0.2-0.8c0.5,0,0.7-0.3,1-0.5c0.4-0.1,0.8,0,1.1,0.2c0.2,0.4,0.1,0.9-0.2,1.3
	C62.6,71.8,62.1,72,61.7,71.9z"/>
<path d="M148.5,81c0,0.2,0,0.5,0,0.7c0,0.1-0.1,0.1-0.1,0.2c-0.5,0-1.1,0-1.6,0c-0.1,0-0.2-0.1-0.2-0.2c0-0.5,0-1,0-1.4
	c0-0.1,0.1-0.1,0.1-0.2c0.5,0,1.1,0,1.6,0c0.1,0,0.1,0.2,0.2,0.4C148.5,80.7,148.5,80.8,148.5,81z"/>
<path d="M138.4,80.9c0,0.2,0,0.5,0,0.7c0,0.1-0.1,0.3-0.2,0.4c-0.5,0-0.9,0-1.4,0c-0.1,0-0.1-0.1-0.2-0.1c0-0.5,0-1.1,0-1.6
	c0-0.1,0.1-0.1,0.2-0.2c0.5,0,0.9,0,1.4,0c0.1,0,0.2,0.2,0.2,0.4C138.4,80.6,138.4,80.7,138.4,80.9z"/>
<path d="M127.4,80.1c0.2,0,0.3,0,0.5,0s0.4,0.1,0.5,0.3v0.1c0,0.3,0,0.6,0,0.9c0,0.5-0.1,0.6-0.7,0.6c-0.2,0-0.5,0-0.7,0
	s-0.4-0.1-0.5-0.3v-0.1c0-0.3,0-0.6,0-0.9c0-0.5,0.1-0.6,0.7-0.6H127.4z"/>
<path d="M67.9,70.9c0,0.2,0,0.5,0,0.7c0,0.1-0.1,0.1-0.2,0.2c-0.5,0-1.1,0-1.6,0c-0.1,0-0.2-0.1-0.2-0.2c0-0.5,0-1,0-1.4
	c0-0.1,0.1-0.1,0.2-0.2c0.5,0,1.1,0,1.6,0c0.1,0,0.1,0.2,0.2,0.4C67.9,70.6,67.9,70.8,67.9,70.9z"/>
<path d="M118.3,81c0,0.2,0,0.3,0,0.5c0.1,0.3-0.1,0.4-0.4,0.5s-0.6,0-0.9,0c-0.5,0-0.6-0.1-0.6-0.7c0-0.2,0-0.5,0-0.7
	s0.1-0.4,0.3-0.5h0.1c0.3,0,0.6,0,0.9,0c0.5,0,0.6,0.1,0.6,0.7L118.3,81z"/>
<path d="M107.2,80.1c0.2,0,0.3,0,0.5,0s0.4,0.1,0.5,0.3v0.1c0,0.3,0,0.6,0,0.9c0,0.5-0.1,0.6-0.7,0.6c-0.2,0-0.5,0-0.7,0
	s-0.4-0.1-0.5-0.3v-0.1c0-0.3,0-0.6,0-0.9c0-0.5,0.1-0.6,0.7-0.6H107.2z"/>
<path d="M98.1,81c0,0.2,0,0.5,0,0.7c0,0.1-0.1,0.1-0.1,0.2c-0.5,0-1.1,0-1.6,0c-0.1,0-0.2-0.1-0.2-0.2c0-0.5,0-1,0-1.4
	c0-0.1,0.1-0.1,0.1-0.2c0.5,0,1.1,0,1.6,0c0.1,0,0.1,0.2,0.2,0.4C98.1,80.7,98.1,80.8,98.1,81z"/>
<path d="M86.1,81c0-0.2,0-0.3,0-0.5c0-0.3,0.1-0.4,0.4-0.5c0.3,0,0.6,0,0.9,0c0.5,0,0.6,0.1,0.6,0.7c0,0.2,0,0.5,0,0.7
	s-0.1,0.4-0.3,0.5h-0.1c-0.3,0-0.6,0-0.9,0c-0.5,0-0.6-0.1-0.6-0.7V81z"/>
<path d="M77,71.9c-0.2,0-0.5,0-0.7,0c-0.1,0-0.2-0.1-0.2-0.1c0-0.5,0-1.1,0-1.6c0,0,0.1-0.2,0.2-0.2c0.5,0,0.9,0,1.4,0
	c0.1,0,0.2,0.1,0.2,0.2c0,0.5,0,1.1,0,1.6c0,0.1-0.2,0.1-0.4,0.2C77.3,71.9,77.1,71.9,77,71.9z"/>
<path d="M77,82c-0.2,0-0.3,0-0.5,0s-0.4-0.1-0.5-0.3v-0.1c0-0.3,0-0.6,0-0.9c0-0.5,0.1-0.6,0.7-0.6c0.2,0,0.5,0,0.7,0
	s0.4,0.1,0.5,0.3v0.1c0,0.3,0,0.6,0,0.9c0,0.5-0.1,0.6-0.7,0.6H77z"/>
<path d="M65.9,81c0-0.2,0-0.3,0-0.5c0-0.3,0.1-0.4,0.4-0.5c0.3,0,0.6,0,0.9,0c0.5,0,0.6,0.1,0.6,0.7c0,0.2,0,0.5,0,0.7
	s-0.1,0.4-0.3,0.5h-0.1c-0.3,0-0.6,0-0.9,0c-0.5,0-0.6-0.1-0.6-0.7V81z"/>
<path d="M56.8,80.1c0.2,0,0.3,0,0.5,0s0.4,0.1,0.5,0.3v0.1c0,0.3,0,0.6,0,0.9c0,0.5-0.1,0.6-0.7,0.6c-0.2,0-0.5,0-0.7,0
	s-0.4-0.1-0.5-0.3v-0.1c0-0.3,0-0.6,0-0.9c0-0.5,0.1-0.6,0.7-0.6H56.8z"/>
<path d="M46.8,82c-0.2,0-0.5,0-0.7,0c-0.1,0-0.2-0.1-0.2-0.1c0-0.5,0-1.1,0-1.6c0-0.1,0.1-0.1,0.2-0.2h1.4c0.1,0,0.2,0.1,0.2,0.1
	c0,0.5,0,1.1,0,1.6c0,0.1-0.2,0.1-0.4,0.2C47.1,82,46.9,82,46.8,82z"/>
<path d="M36.7,82c-0.2,0-0.3,0-0.5,0s-0.4-0.1-0.5-0.3v-0.1c0-0.3,0-0.6,0-0.9c0-0.5,0.1-0.6,0.7-0.6c0.2,0,0.5,0,0.7,0
	s0.4,0.1,0.5,0.3v0.1c0,0.3,0,0.6,0,0.9c0,0.5-0.1,0.6-0.7,0.6H36.7z"/>
<path d="M26.6,82c-0.2,0-0.5,0-0.7,0c-0.1,0-0.2-0.1-0.2-0.1c0-0.5,0-1.1,0-1.6c0-0.1,0.1-0.1,0.2-0.2h1.4c0.1,0,0.2,0.1,0.2,0.2
	c0,0.5,0,1.1,0,1.6c0,0.1-0.2,0.1-0.4,0.2C26.9,82,26.8,82,26.6,82z"/>
<path d="M17.5,81.3c0,0.6-0.1,0.7-0.6,0.7c-0.3,0-0.6,0-0.9,0c-0.1,0-0.3-0.1-0.3-0.2c0-0.5,0-0.9,0-1.4c0-0.1,0.2-0.2,0.3-0.2
	c0.3,0,0.6,0,1,0c0.5,0,0.6,0.1,0.6,0.7L17.5,81.3L17.5,81.3z"/>
<path d="M205.5,76.7c-0.4,0.1-0.8-0.1-1-0.4c-0.2-0.3-0.2-0.3,0-0.7c0.1-0.2,0.1-0.6,0.3-0.8c0.6-0.3,1.4,0,1.7,0.6
	c0,0.1,0.1,0.2,0.1,0.2c0.1,0.7-0.1,1-0.8,1L205.5,76.7z"/>
<path d="M195.4,76.7c-0.5,0.1-0.8-0.2-1.2-0.5c-0.2-0.2-0.2-0.2,0-0.4s0.3-0.2,0.3-0.3c0-0.3,0-0.6,0.4-0.7c0.3-0.1,0.6,0,0.9,0.1
	c0.5,0.2,0.8,0.8,0.7,1.3c0,0.3-0.1,0.4-0.4,0.5C195.9,76.7,195.7,76.7,195.4,76.7z"/>
<path d="M185.5,76.7h-0.2c-0.9,0-1.1-0.4-0.8-1.3c0.1-0.3,0.1-0.6,0.5-0.6c0.3,0,0.6-0.1,0.9,0.1s0.6,0.6,0.6,1.2s-0.1,0.6-0.5,0.6
	H185.5z"/>
<path d="M87.1,71.9c-0.2,0-0.5,0-0.7,0c-0.1,0-0.2-0.1-0.2-0.1c0-0.5,0-1.1,0-1.6c0,0,0.1-0.2,0.2-0.2c0.5,0,1,0,1.4,0
	c0.1,0,0.2,0.1,0.2,0.2c0,0.5,0,1.1,0,1.6c0,0.1-0.2,0.1-0.4,0.2C87.4,71.9,87.2,71.9,87.1,71.9z"/>
<path d="M175.4,76.7c-0.2,0-0.5,0-0.7,0c-0.3-0.2-0.5-0.4-0.7-0.6c0-0.1,0.2-0.3,0.3-0.5c0.3-0.6,0.6-0.9,1-0.8
	c0.6,0.1,1.1,0.7,1,1.3c0,0.4-0.1,0.6-0.5,0.6H175.4z"/>
<path d="M165.2,76.7c-0.5,0.1-0.8-0.2-1.2-0.5c-0.2-0.2-0.2-0.2,0-0.4s0.3-0.2,0.3-0.3c0-0.3,0-0.6,0.4-0.7c0.3-0.1,0.6,0,0.9,0.1
	c0.5,0.2,0.8,0.8,0.7,1.3c-0.1,0.3-0.1,0.4-0.4,0.5C165.7,76.7,165.4,76.7,165.2,76.7z"/>
<path d="M155.2,76.7H155c-0.9,0-1.1-0.4-0.8-1.3c0.1-0.3,0.1-0.6,0.5-0.6c0.3,0,0.6,0,0.9,0.2c0.4,0.2,0.7,0.7,0.6,1.1
	c-0.1,0.5-0.1,0.6-0.5,0.6H155.2z"/>
<path d="M145.6,76.6c-1,0.1-1.4-0.1-1.8-0.5c-0.1-0.1-0.1-0.2,0-0.3c0.2-0.2,0.3-0.4,0.3-0.6c0-0.3,0.1-0.4,0.4-0.4
	c0.5,0,0.9-0.1,1.2,0.4c0.2,0.2,0.4,1.1,0.3,1.3C145.9,76.6,145.8,76.6,145.6,76.6z"/>
<path d="M135.1,76.7c-0.2,0-0.3,0-0.5,0c-0.6-0.1-0.8-0.6-0.6-1.1c0-0.1,0.1-0.1,0.1-0.2c0-0.3,0.1-0.6,0.5-0.6s0.6-0.1,0.9,0.2
	s0.6,0.6,0.6,1.2s-0.1,0.6-0.5,0.6L135.1,76.7z"/>
<path d="M125,76.7c-0.2,0-0.5,0-0.7,0c-0.3-0.2-0.5-0.4-0.7-0.6c0-0.1,0.2-0.3,0.3-0.5c0.3-0.6,0.6-0.9,1-0.8c0.6,0.1,1,0.7,1,1.3
	c0,0.5-0.1,0.6-0.5,0.6H125z"/>
<path d="M115,76.7c-0.5,0.1-1.1-0.1-1.4-0.6c-0.1-0.2-0.2-0.2,0-0.4c0.1-0.2,0.3-0.4,0.3-0.6c0.1-0.1,0.1-0.3,0.2-0.4
	c0.7-0.3,1.4,0.1,1.7,0.7c0,0.1,0,0.1,0.1,0.2C116,76.5,115.8,76.7,115,76.7z"/>
<path d="M104.8,76.7c-0.2,0-0.3,0-0.5,0c-0.6-0.1-0.8-0.6-0.6-1.1c0-0.1,0.1-0.1,0.1-0.2c0-0.4,0.1-0.6,0.5-0.6s0.6-0.1,0.9,0.2
	s0.6,0.6,0.6,1.2s-0.1,0.6-0.5,0.6L104.8,76.7z"/>
<path d="M95.2,76.6c-1,0.1-1.4-0.1-1.8-0.5c-0.1-0.1-0.1-0.2,0-0.3c0.2-0.2,0.3-0.4,0.3-0.6c0-0.3,0.1-0.4,0.4-0.4
	c0.5,0,0.9-0.1,1.2,0.4c0.2,0.2,0.4,1.1,0.3,1.3C95.5,76.6,95.4,76.6,95.2,76.6z"/>
<path d="M84.5,76.7c-0.4,0.1-0.8-0.1-1-0.4c-0.2-0.3-0.2-0.3,0-0.7c0.1-0.2,0.1-0.6,0.3-0.8c0.6-0.3,1.4,0,1.7,0.6
	c0,0.1,0.1,0.2,0.1,0.2c0.1,0.7-0.1,1-0.8,1L84.5,76.7z"/>
<path d="M74.6,76.7c-0.2,0-0.5,0-0.7,0c-0.3-0.2-0.5-0.4-0.7-0.6c0-0.1,0.2-0.3,0.3-0.5c0.3-0.6,0.6-0.9,1-0.8c0.6,0.1,1,0.7,1,1.3
	c0,0.5-0.1,0.6-0.5,0.6H74.6z"/>
<path d="M64.5,76.7h-0.2c-0.9,0-1.1-0.4-0.8-1.3c0.1-0.3,0.1-0.6,0.5-0.6c0.3,0,0.6-0.1,0.9,0.1s0.7,0.6,0.6,1.2s-0.1,0.6-0.5,0.6
	H64.5z"/>
<path d="M54.9,76.6c-1,0.1-1.4-0.1-1.8-0.5c-0.1-0.1-0.1-0.2,0-0.3c0.2-0.2,0.3-0.4,0.3-0.6c0-0.3,0.2-0.4,0.4-0.4
	c0.5,0,0.9-0.1,1.2,0.4c0.2,0.2,0.4,1.1,0.3,1.3C55.2,76.6,55.1,76.6,54.9,76.6z"/>
<path d="M44.2,76.7c-0.4,0.1-0.8-0.1-1-0.4C43,76,43,76,43.2,75.6c0.1-0.2,0.1-0.6,0.3-0.8c0.6-0.3,1.4,0,1.7,0.6
	c0,0.1,0.1,0.2,0.1,0.3c0.1,0.7-0.1,1-0.8,1L44.2,76.7z"/>
<path d="M34.4,76.7c-0.5,0.1-1.1-0.1-1.4-0.6c-0.1-0.2-0.2-0.2,0-0.4c0.1-0.2,0.3-0.4,0.3-0.6c0.1-0.1,0.1-0.3,0.2-0.4
	c0.7-0.3,1.4,0.1,1.7,0.7c0,0.1,0,0.1,0.1,0.2C35.4,76.5,35.2,76.7,34.4,76.7z"/>
<path d="M24.2,76.7H24c-0.9,0-1.1-0.4-0.8-1.3c0.1-0.3,0-0.6,0.5-0.6c0.3,0,0.6,0,0.9,0.2c0.4,0.2,0.7,0.7,0.6,1.1
	c-0.1,0.5-0.1,0.6-0.5,0.6H24.2z"/>
<path d="M14.1,76.7h-0.2c-0.9,0-1.1-0.4-0.8-1.3c0.1-0.3,0.1-0.6,0.5-0.6c0.3,0,0.6-0.1,0.9,0.1s0.7,0.6,0.6,1.2s-0.1,0.6-0.5,0.6
	H14.1z"/>
<path d="M8.7,76.7c-0.2,0-0.4,0-0.7-0.1c-0.1-0.1-0.2-0.2-0.2-0.4c0.2-0.5,0.4-0.9,0.7-1.4c0.1-0.2,0.9-0.1,1.2,0.1
	c0.1,0.1,0.2,0.2,0.3,0.3c0.2,0.2,0.2,0.6,0,0.8C9.8,76.6,9.2,76.8,8.7,76.7z"/>
<path d="M97.2,71.9c-0.2,0-0.5,0-0.7,0c-0.1,0-0.2-0.1-0.2-0.1c0-0.5,0-1.1,0-1.6c0,0,0.1-0.2,0.2-0.2c0.5,0,1,0,1.4,0
	c0.1,0,0.2,0.1,0.2,0.2c0,0.5,0,1.1,0,1.6c0,0.1-0.2,0.1-0.4,0.2C97.5,71.9,97.3,71.9,97.2,71.9z"/>
<path d="M209,70.9c0,0.2,0,0.5,0,0.7c0,0.1-0.1,0.1-0.1,0.2c-0.5,0-1.1,0-1.6,0c-0.1,0-0.2-0.1-0.2-0.2c0-0.5,0-1,0-1.4
	c0-0.1,0.1-0.1,0.1-0.2c0.5,0,1.1,0,1.6,0c0.1,0,0.1,0.2,0.2,0.4C209,70.6,209,70.8,209,70.9z"/>
<path d="M198.9,70.8c0,0.2,0,0.5,0,0.7c0,0.1-0.1,0.3-0.2,0.4c-0.5,0-0.9,0-1.4,0c-0.1,0-0.1-0.1-0.2-0.1c0-0.5,0-1.1,0-1.6
	c0,0,0.1-0.2,0.2-0.2c0.5,0,1,0,1.4,0c0.1,0,0.2,0.2,0.2,0.3C198.9,70.5,198.9,70.7,198.9,70.8z"/>
<path d="M188.1,70c0.6,0,0.7,0.1,0.7,0.6c0,0.3,0,0.7,0,1c0,0.1-0.1,0.3-0.2,0.4c-0.5,0-0.9,0-1.4,0c-0.1,0-0.2-0.2-0.2-0.4
	c0-0.3,0-0.7,0-1c0-0.5,0.1-0.6,0.7-0.6L188.1,70z"/>
<path d="M177.8,71.9c-0.2,0-0.5,0-0.7,0c-0.1,0-0.2-0.1-0.2-0.1c0-0.5,0-1.1,0-1.6c0,0,0.1-0.2,0.2-0.2c0.5,0,0.9,0,1.4,0
	c0.1,0,0.2,0.1,0.2,0.2c0,0.5,0,1.1,0,1.6c0,0.1-0.2,0.1-0.4,0.2C178.1,71.9,177.9,71.9,177.8,71.9z"/>
<path d="M166.7,70.9c0-0.2,0-0.3,0-0.5c0-0.3,0.1-0.4,0.4-0.5c0.3,0,0.6,0,0.9,0c0.5,0,0.6,0.1,0.6,0.7c0,0.2,0,0.5,0,0.7
	s-0.1,0.4-0.3,0.5h-0.1c-0.3,0-0.6,0-0.9,0c-0.5,0-0.6-0.1-0.6-0.7L166.7,70.9z"/>
<path d="M108.2,70.9c0,0.2,0,0.5,0,0.7c0,0.1-0.1,0.1-0.1,0.2c-0.5,0-1.1,0-1.6,0c-0.1,0-0.2-0.1-0.2-0.2c0-0.5,0-1,0-1.4
	c0-0.1,0.1-0.1,0.1-0.2c0.5,0,1.1,0,1.6,0c0.1,0,0.1,0.2,0.2,0.4C108.2,70.6,108.2,70.8,108.2,70.9z"/>
<path d="M157.5,70c0.2,0,0.5,0,0.7,0c0.1,0,0.4,0.1,0.4,0.2c0,0.5,0,1,0,1.4l-0.1,0.2h-1.6c-0.1,0-0.1-0.1-0.1-0.2
	c0-0.5,0-0.9,0-1.4c0-0.1,0.2-0.2,0.4-0.2C157.2,70,157.3,70,157.5,70z"/>
<path d="M147.8,70c0.6,0,0.7,0.1,0.7,0.6c0,0.3,0,0.7,0,1c0,0.1-0.1,0.3-0.2,0.4c-0.5,0-0.9,0-1.4,0c-0.1,0-0.2-0.2-0.2-0.4
	c0-0.3,0-0.7,0-1c0-0.5,0.1-0.6,0.7-0.6L147.8,70z"/>
<path d="M136.5,70.7c0-0.6,0.1-0.7,0.6-0.7c0.3,0,0.6,0,0.9,0c0.1,0,0.4,0.2,0.4,0.2c0,0.5,0,0.9,0,1.4c0,0.1-0.2,0.2-0.4,0.2
	c-0.3,0-0.6,0-0.9,0c-0.5,0-0.6-0.1-0.6-0.7V70.7z"/>
<path d="M126.4,70.9c0-0.2,0-0.3,0-0.5c0-0.3,0.1-0.4,0.4-0.5c0.3,0,0.6,0,0.9,0c0.5,0,0.6,0.1,0.6,0.7c0,0.2,0,0.5,0,0.7
	s-0.1,0.4-0.3,0.5h-0.1c-0.3,0-0.6,0-0.9,0c-0.5,0-0.6-0.1-0.6-0.7L126.4,70.9z"/>
<path d="M118.3,70.9c0,0.2,0,0.5,0,0.7c0,0.1-0.1,0.1-0.1,0.2c-0.5,0-1.1,0-1.6,0c-0.1,0-0.2-0.1-0.2-0.2c0-0.5,0-1,0-1.4
	c0-0.1,0.1-0.1,0.1-0.2c0.5,0,1.1,0,1.6,0c0.1,0,0.1,0.2,0.2,0.4C118.3,70.6,118.3,70.8,118.3,70.9z"/>
<path d="M65.9,91.1c0-0.2,0-0.3,0-0.5c0-0.1,0.1-0.4,0.2-0.4c0.5,0,1.1,0,1.6,0c0.1,0,0.2,0.2,0.2,0.4c0.1,0.6-0.3,1.3-0.9,1.4
	c-0.1,0-0.3,0-0.4,0c-0.4,0-0.6-0.1-0.6-0.5L65.9,91.1z"/>
<path d="M128.8,85.8c0-0.1,0.2-0.3,0.3-0.6c0.2-0.3,0.6-0.5,1-0.4c0.3,0,0.6,0.1,0.6,0.5c0.1,0.7-0.3,1.3-1,1.4c-0.1,0-0.2,0-0.3,0
	C128.9,86.8,128.8,86.6,128.8,85.8z"/>
<path d="M54.1,96.9c-0.4-0.1-0.8-0.4-1.1-0.7c0.1-0.1,0.2-0.3,0.3-0.4c0.3-0.3,0-1,0.8-0.9c0.6,0,1,0.4,1.3,0.9
	c0.1,0.1,0,0.3-0.1,0.4C54.9,96.5,54.3,96.4,54.1,96.9z"/>
<path d="M152.7,50.3c0.2,0,0.5,0,0.7,0c0.1,0,0.4,0.1,0.4,0.2c0,0.2,0,0.4-0.1,0.6c-0.3,0.6-1,0.8-1.6,0.5c-0.1-0.1-0.3-0.2-0.4-0.3
	c-0.2-0.2-0.4-0.5-0.3-0.8s0.4-0.2,0.6-0.2C152.2,50.3,152.5,50.3,152.7,50.3z"/>
<path d="M198.2,61.8c-0.3,0-0.6,0-0.9,0c-0.1,0-0.3-0.2-0.3-0.3c0-0.5-0.3-1.2,0.2-1.5c0.6-0.5,0.9,0.3,1.3,0.6
	c0.2,0.1,0.4,0.3,0.4,0.5s0,0.4-0.2,0.6C198.5,61.9,198.3,61.8,198.2,61.8z"/>
<path d="M44.4,66.6c-0.5,0.1-1.1-0.2-1.4-0.6c-0.1-0.2-0.1-0.2,0-0.3c0.4-0.6,1.1-0.7,1.7-0.4c0.2,0.1,0.4,0.4,0.5,0.6
	c0,0.2,0,0.4-0.2,0.6C44.9,66.7,44.7,66.6,44.4,66.6z"/>
<path d="M19,66.7c-0.3,0-0.6-0.1-0.8-0.1c-0.1,0-0.1-0.2-0.2-0.4c0-0.1,0-0.1,0-0.2c0.7-0.2,1.2-0.9,2-0.8c0.3,0.1,0.6,0.4,0.4,0.7
	C19.9,66.4,19.5,66.8,19,66.7z"/>
<path d="M173.9,51.1c-0.3,0.6-1.1,0.8-1.8,0.5l0,0c-0.2-0.1-0.4-0.3-0.5-0.5s-0.1-0.4,0-0.6c0-0.1,0.2-0.2,0.4-0.2
	c0.4,0,0.8-0.1,1,0.3c0.1,0.1,0.4,0.1,0.6,0.2S173.8,51,173.9,51.1z"/>
<path d="M127.2,90.1c0.6,0,0.6,0.1,0.6,0.7c0,0.6-0.3,1-0.9,1.2c-0.2,0-0.4-0.1-0.6-0.2c0-0.3,0-0.6,0-0.9
	C126.4,90.2,126.5,90.1,127.2,90.1z"/>
<path d="M85.2,96.4c-0.6,0.1-1.2-0.2-1.4-0.8c-0.1-0.1,0.1-0.5,0.2-0.6c0.5-0.2,1.1,0,1.4,0.4c0.2,0.3,0.3,0.5,0.1,0.8
	C85.4,96.3,85.3,96.4,85.2,96.4z"/>
<path d="M31.9,90.1h0.2c0.7,0,0.7,0.1,0.7,0.8s-0.3,0.8-0.9,0.4c-0.2-0.2-0.5-0.3-0.8-0.3c-0.1,0-0.2-0.4-0.2-0.6
	c0-0.2,0.2-0.4,0.4-0.4h0.1C31.6,90.1,31.7,90.1,31.9,90.1z"/>
<path d="M77.2,90.1c0.2,0,0.3,0,0.5,0c0.1,0.1,0.2,0.2,0.2,0.4c0,0.4,0.2,0.8-0.2,1.1c-0.1,0.1-0.3,0.1-0.5,0
	c-0.3-0.2-0.5-0.6-1-0.5c-0.1-0.2-0.2-0.4-0.2-0.6c0-0.2,0.2-0.4,0.5-0.4C76.7,90.1,77,90.1,77.2,90.1z"/>
<path d="M171.1,95.4c-0.1,0.1-0.1,0.3-0.2,0.4s-0.5,0.2-0.8,0.3c-0.5,0.3-0.9,0.3-1,0c-0.1-0.5,0.2-0.7,0.5-1s0.8-0.3,1.3-0.2
	C171,95,171,95.3,171.1,95.4z"/>
<path d="M84.4,65.7c0.3,0,0.6,0,0.9,0c0.1,0,0.2,0.2,0.2,0.3s0,0.4-0.1,0.4c-0.6,0.3-1.3,0.2-1.9-0.2c-0.1,0-0.1-0.1-0.2-0.2
	s-0.1-0.2-0.1-0.3c0,0,0.1-0.1,0.2-0.1L84.4,65.7z"/>
<path d="M79.8,65.7h0.8c0.1,0,0.2,0.1,0.2,0.1c0,0.1-0.1,0.2-0.1,0.3c-0.2,0.4-0.6,0.6-1,0.5c-0.3,0-0.6,0-0.9,0
	c-0.1,0-0.2-0.4-0.2-0.6s0.1-0.3,0.2-0.3C79.1,65.7,79.5,65.7,79.8,65.7z"/>
<path d="M56.5,71.9c-0.2,0-0.3,0-0.5-0.1c-0.1,0-0.2-0.2-0.2-0.4S55.9,71,56,71c0.5-0.1,0.9-0.1,1.4-0.1c0.2,0,0.4,0.2,0.4,0.5
	c0,0.2-0.1,0.4-0.3,0.5l0,0C57.1,71.9,56.8,71.9,56.5,71.9z"/>
<path d="M11.7,71.9c-0.1,0-0.3-0.1-0.4-0.2c-0.1-0.1-0.1-0.3-0.1-0.4c0.2-0.5,0.9-1,1.2-0.8c0.1,0.1,0.2,0.2,0.2,0.3
	C12.6,71.3,12.2,71.8,11.7,71.9z"/>
<path d="M147.3,51.7c-0.2,0-0.3,0-0.5,0c-0.1,0-0.2-0.1-0.2-0.1c0-0.1,0-0.2,0.1-0.3c0.3-0.4,0.7-0.6,1.2-0.5c0.4,0,0.6,0.2,0.5,0.6
	s-0.2,0.4-0.5,0.4S147.6,51.7,147.3,51.7z"/>
<path d="M58.9,95.9c-0.1,0-0.3,0-0.5-0.1c-0.1,0-0.2-0.1-0.2-0.2s0.1-0.1,0.2-0.2c0.3-0.5,0.9-0.7,1.4-0.6c0.2,0,0.4,0.3,0.4,0.5
	c0,0.3-0.1,0.4-0.4,0.5S59.2,95.9,58.9,95.9z"/>
<path d="M125,95.4c-0.1,0.5-0.5,0.9-1.1,1c-0.1,0-0.1,0-0.2-0.1c-0.2-0.1-0.2-0.2,0-0.3s0.3-0.5,0.3-0.8s0.5-0.4,0.8-0.2
	S124.9,95.3,125,95.4z"/>
<path d="M109.6,66.6l-0.4-0.1c0-0.1,0.1-0.2,0.1-0.3c0.2-0.4,0.7-0.6,1.2-0.5c0.1,0,0.3,0.1,0.4,0.1c0,0.1-0.1,0.2-0.1,0.3
	C110.5,66.5,110.1,66.7,109.6,66.6z"/>
<path d="M190.5,56.5c-0.3,0-0.6,0-0.9,0c-0.1,0-0.2-0.3-0.3-0.5c0-0.2,0.1-0.4,0.3-0.4c0.1,0,0.1,0,0.2,0c0.5,0.1,0.9,0.5,1.4,0.6
	c0,0.1,0,0.1,0,0.2s-0.1,0.2-0.2,0.2C190.8,56.6,190.7,56.6,190.5,56.5z"/>
<path d="M11.9,80.1c0.2,0,0.3,0,0.5,0c0.1,0.1,0.2,0.2,0.2,0.4s-0.1,0.4-0.2,0.6c-0.1,0.1-0.3,0.1-0.4,0c-0.2-0.1-0.4-0.3-0.5-0.5
	c-0.1-0.1-0.1-0.2-0.1-0.3L11.9,80.1C11.8,80,11.9,80,11.9,80.1z"/>
<path d="M130,56.1c0.2,0,0.3,0,0.5,0c0.1,0,0.2,0.1,0.2,0.2s-0.1,0.3-0.2,0.3c-0.3,0-0.6,0-0.9,0c-0.1,0-0.2-0.1-0.2-0.2
	s0.1-0.3,0.2-0.3C129.7,56,129.9,56,130,56.1z"/>
<path d="M205.5,66.5c-0.1,0-0.1,0.1-0.2,0.1c-0.5,0.1-0.7-0.1-0.7-0.6c0-0.1,0.1-0.2,0.2-0.4l0.2,0.2
	C205.5,66.3,205.6,66.3,205.5,66.5z"/>
<path d="M75,66.4c-0.2,0.2-0.5,0.2-0.7,0.1c0,0,0,0-0.1-0.1c0-0.1,0-0.1,0-0.2c0.2-0.2,0.5-0.2,0.7-0.1c0,0,0,0,0.1,0.1
	C75,66.3,75,66.4,75,66.4z"/>
<path d="M92.3,100.7c-0.1-0.1-0.3-0.3-0.3-0.3c0.1-0.3,0.6-0.3,0.8,0c0,0,0,0.1,0,0.2L92.3,100.7z"/>
</svg>
