<?xml version="1.0" encoding="utf-8"?>
<!-- Generator: Adobe Illustrator 23.0.1, SVG Export Plug-In . SVG Version: 6.00 Build 0)  -->
<svg preserveAspectRatio="xMinYMin meet" version="1.1" id="Layer_1" xmlns="http://www.w3.org/2000/svg" xmlns:xlink="http://www.w3.org/1999/xlink" x="0px" y="0px"
	 viewBox="0 0 195.5 120.1" style="enable-background:new 0 0 195.5 120.1;" xml:space="preserve">

<g>
	<path d="M87.9,82.7c0.5,0,0.9,0,1.3,0c0.2-0.3,0.3-0.5,0.4-0.8c0,0,0,0,0,0c0,0,0,0,0,0c-0.1-0.3-0.3-0.6-0.4-0.8
		c-0.5,0-0.8,0-1.2,0c-0.3,0.3-0.4,0.5-0.3,0.8C87.6,82.2,87.7,82.4,87.9,82.7z"/>
	<path d="M81.6,76c-0.4,0.1-0.8,0-1.3,0.4c0,0.2,0,0.3,0,0.5c0,0.3,0.1,0.6,0.4,0.9c0.4,0,0.9,0.2,1.3-0.4c0,0,0-0.1,0-0.1
		c0,0,0,0,0,0C82,76.9,82.2,76.4,81.6,76z"/>
	<path d="M86.6,96.3c-0.4-0.1-0.8-0.2-1.3,0.3c0,0.2,0,0.3,0,0.5c0,0.2,0,0.5,0.2,0.7c0.1,0.1,0.1,0.1,0.2,0.2c0.2,0,0.3,0,0.5,0
		c0.3,0,0.6-0.1,0.8-0.4c0,0,0,0,0,0C87,97.1,87.2,96.7,86.6,96.3z"/>
	<path d="M131,87.8c0.4,0,0.8,0.2,1.3-0.3c0-0.4,0.2-0.9-0.4-1.3c-0.3,0-0.6-0.1-0.9,0.1c-0.1,0.1-0.3,0.1-0.4,0.3
		C130.6,87,130.4,87.4,131,87.8z"/>
	<path d="M94.2,91.2c-0.5,0-0.8,0-1.2,0c0,0-0.1,0-0.1,0c-0.3,0.9-0.3,0.9,0.1,1.6c0,0,0.1,0,0.1,0c0.3,0,0.7,0,1.2,0
		c0.1-0.2,0.2-0.4,0.2-0.6c0-0.1,0.1-0.2,0.2-0.3C94.5,91.6,94.4,91.4,94.2,91.2C94.3,91.2,94.2,91.2,94.2,91.2z"/>
	<path d="M81.7,86.2c-0.4-0.1-0.9-0.2-1.3,0.2c0,0,0,0,0,0c0,0-0.1,0.1-0.1,0.1c0,0.4-0.2,0.8,0.3,1.3c0.4,0,0.8,0.2,1.3-0.3
		c0-0.1,0-0.3,0-0.4c0,0,0,0,0,0C82,86.8,82,86.5,81.7,86.2z"/>
	<path d="M89.2,101.3c-0.4,0-0.7,0-1.1,0c0,0-0.1,0-0.1,0c-0.5,0.8-0.4,1,0.1,1.6c0,0,0.1,0,0.1,0c0.4,0,0.7,0,1.1,0
		c0,0,0.1,0,0.1,0c0-0.2,0.1-0.4,0.3-0.8C89.5,101.8,89.4,101.5,89.2,101.3C89.3,101.3,89.2,101.3,89.2,101.3z"/>
	<path d="M88.1,72.7c0.4,0,0.8,0,1.2,0c0.1-0.3,0.2-0.6,0.4-1c-0.6-0.3-1-0.5-1.5-0.7C87.5,71.8,87.5,71.9,88.1,72.7z"/>
	<path d="M69.5,92c-0.1-0.3-0.3-0.5-0.4-0.8c-0.5,0-0.9,0-1.3,0c-0.3,0.6-0.4,1.1,0.1,1.6c0.4,0,0.8,0,1.2,0
		C69.2,92.6,69.4,92.3,69.5,92L69.5,92L69.5,92C69.5,92,69.5,92,69.5,92z"/>
	<path d="M81.6,106.3c-0.3,0.1-0.8,0.1-1.3,0.1c-0.1,0.5-0.3,1,0.1,1.4c0,0.1,0.1,0.2,0.1,0.2c0.4,0,0.9,0.2,1.3-0.3
		c0.1-0.3,0.2-0.7,0-1C81.8,106.5,81.7,106.4,81.6,106.3z"/>
	<path d="M66,66c-0.3,0-0.6,0-0.9,0.4c0,0.4-0.2,0.9,0.4,1.3c0,0,0.1,0,0.1,0c0,0,0,0,0,0c0.4,0,0.9,0.2,1.3-0.4
		c-0.1-0.4,0-0.8-0.4-1.3C66.3,66,66.2,66,66,66z"/>
	<path d="M69.1,101.3L69.1,101.3c-0.5,0-0.8,0-1.2,0c-0.5,0.5-0.5,1-0.1,1.6c0.5,0,0.9,0,1.3,0h0c0,0,0,0,0,0
		c0.2-0.3,0.3-0.5,0.4-0.8C69.4,101.8,69.2,101.5,69.1,101.3C69.1,101.3,69.1,101.3,69.1,101.3z"/>
	<path d="M65.5,97.9c0.4,0,0.8,0.1,1.3-0.3c0-0.4,0.2-0.9-0.4-1.3c-0.3,0-0.6-0.1-0.9,0.1c-0.1,0.1-0.3,0.1-0.4,0.3
		C65.1,97.1,64.9,97.5,65.5,97.9z"/>
	<path d="M74.1,101.3C74.1,101.3,74,101.3,74.1,101.3c-0.6,0-0.9,0-1.3,0c0,0-0.1,0-0.1,0c-0.3,0.9-0.3,0.9,0.1,1.6c0,0,0.1,0,0.1,0
		c0.4,0,0.7,0,1.2,0c0.1-0.2,0.2-0.4,0.3-0.6c0-0.1,0.1-0.2,0.1-0.3C74.3,101.7,74.2,101.5,74.1,101.3z"/>
	<path d="M74.1,91.2c-0.5,0-0.9,0-1.3,0c-0.3,0.6-0.4,1.1,0.1,1.6c0.4,0,0.8,0,1.2,0c0.1-0.2,0.3-0.5,0.4-0.8v0l0,0
		C74.4,91.8,74.3,91.5,74.1,91.2z"/>
	<path d="M76.6,96.3c-0.4-0.1-0.9-0.3-1.3,0.2c-0.1,0.4-0.3,0.8,0.2,1.3c0.4,0.1,0.9,0.3,1.3-0.2c0.1-0.2,0.1-0.4,0.1-0.6
		C76.9,96.7,76.8,96.5,76.6,96.3z"/>
	<path d="M116.5,106.3c-0.2,0-0.5,0-0.7,0.1c-0.5,0.4-0.3,0.9-0.2,1.3c0.4,0.5,0.9,0.3,1.3,0.2c0.5-0.3,0.3-0.8,0.3-1.2
		C116.9,106.4,116.7,106.3,116.5,106.3z"/>
	<path d="M119.5,91.3C119.5,91.3,119.4,91.3,119.5,91.3c-0.5,0-0.8,0-1.2,0c0,0-0.1,0-0.1,0c-0.5,0.8-0.4,1,0.1,1.6c0,0,0.1,0,0.1,0
		c0.4,0,0.7,0,1.1,0c0,0,0.1,0,0.1,0c0-0.3,0.1-0.5,0.3-0.8c-0.1-0.2-0.2-0.4-0.3-0.5C119.6,91.5,119.5,91.4,119.5,91.3z"/>
	<path d="M119.4,101.3c-0.5,0-0.8,0-1.2,0c0,0-0.1,0-0.1,0c-0.3,0.9-0.3,0.9,0.1,1.6c0,0,0.1,0,0.1,0c0.3,0,0.7,0,1.2,0
		c0.1-0.2,0.2-0.4,0.2-0.6c0-0.1,0.1-0.2,0.2-0.3C119.7,101.7,119.6,101.5,119.4,101.3C119.5,101.3,119.4,101.3,119.4,101.3z"/>
	<path d="M113.2,91.2c-0.2,0.3-0.3,0.6-0.3,0.8c0,0.3,0.1,0.5,0.3,0.8c0.4,0,0.8,0,1.3,0c0.1-0.3,0.3-0.6,0.4-0.9
		c-0.2-0.3-0.3-0.5-0.5-0.8C113.9,91.2,113.5,91.2,113.2,91.2z"/>
	<path d="M124,111.4c-0.2,0-0.4,0-0.5,0c-0.1,0-0.2,0.1-0.3,0.1c-0.1,0-0.1,0.1-0.2,0.2c0,0.3,0,0.7,0,1.3c0.6,0,1,0,1.5,0
		c0.1-0.2,0.3-0.5,0.4-0.8c-0.2-0.3-0.3-0.5-0.5-0.8C124.3,111.4,124.2,111.4,124,111.4z"/>
	<path d="M123.8,101.3c-0.3,0-0.5,0.1-0.8,0.3c0,0.4-0.2,0.9,0.3,1.3c0.4,0,0.7,0,1.2,0c0,0,0.1,0,0.1,0c0.1-0.3,0.2-0.5,0.4-0.8
		c-0.2-0.3-0.3-0.5-0.5-0.8C124.2,101.3,124,101.2,123.8,101.3z"/>
	<path d="M118.2,81.2c-0.2,0.3-0.3,0.5-0.3,0.8c0,0.3,0.1,0.5,0.3,0.8c0.4,0,0.8,0,1.3,0c0.1-0.3,0.3-0.6,0.4-0.9
		c-0.2-0.3-0.3-0.5-0.5-0.8C119,81.1,118.6,81.1,118.2,81.2z"/>
	<path d="M111.9,106.4C111.9,106.4,111.8,106.3,111.9,106.4c-0.5-0.1-0.9-0.3-1.4,0.2c0,0.3-0.1,0.5,0,0.8c0,0.2,0.1,0.4,0.3,0.5
		c0.3,0.1,0.6,0.2,0.9,0c0.1,0,0.3-0.1,0.4-0.2C112.2,107.3,112.3,106.8,111.9,106.4C111.9,106.4,111.9,106.4,111.9,106.4z"/>
	<path d="M109.4,111.5C109.4,111.5,109.4,111.5,109.4,111.5c-0.1,0-0.1-0.1-0.1-0.1c-0.5,0-0.9,0-1.3,0c-0.3,0.6-0.4,1.1,0.1,1.6
		c0,0,0,0,0,0c0,0,0,0.1,0.1,0.1c0.4,0,0.8,0,1.3,0c0-0.4,0.2-0.6,0.3-0.9c-0.1-0.1-0.1-0.2-0.2-0.3
		C109.5,111.7,109.5,111.6,109.4,111.5z"/>
	<path d="M100.5,96.5c-0.1,0.4-0.3,0.9,0.2,1.3c0.4,0.1,0.9,0.3,1.3-0.2c0-0.3,0-0.8,0-1.3C101.4,96.2,100.9,96,100.5,96.5z"/>
	<path d="M98.1,82.8c0.4,0,0.8,0,1.2,0c0.1-0.2,0.3-0.5,0.4-0.8v0l0,0c-0.1-0.3-0.2-0.6-0.4-0.8c-0.5,0-0.9,0-1.3,0
		C97.7,81.8,97.6,82.3,98.1,82.8L98.1,82.8z"/>
	<path d="M102.1,77.1c-0.5-0.1-0.9-0.7-1.5-0.5c0,0,0,0.1-0.1,0.1c0,0,0,0,0,0c0,0,0,0.1,0,0.2c-0.1,0.3-0.1,0.6,0.2,0.8
		C101.7,77.9,101.7,77.9,102.1,77.1z"/>
	<path d="M105.7,96.3c-0.2,0.3-0.2,0.5-0.2,0.7c0,0.2,0,0.5,0.1,0.7c0.4,0.3,0.9,0.3,1.3,0.1c0.4-0.4,0.2-0.9,0.2-1.3
		C106.6,96.1,106.1,96.2,105.7,96.3z"/>
	<path d="M103,82.6c0.1,0.1,0.1,0.1,0.2,0.2c0.4,0,0.7,0,1.1,0c0.2-0.3,0.3-0.5,0.4-0.8c-0.1-0.3-0.3-0.6-0.4-0.8
		c-0.5,0-0.9,0-1.3,0c-0.2,0.4-0.3,0.7-0.2,1C102.8,82.4,102.9,82.5,103,82.6z"/>
	<path d="M105.7,106.4c-0.2,0.3-0.2,0.5-0.2,0.7c0,0.2,0,0.5,0.1,0.7c0.4,0.3,0.9,0.3,1.3,0.1c0.4-0.4,0.2-0.9,0.2-1.3
		C106.6,106.2,106.1,106.3,105.7,106.4z"/>
	<path d="M109.3,81.2c-0.5,0-0.8,0-1.2,0c0,0-0.1,0-0.1,0c-0.3,0.9-0.3,0.9,0.1,1.6c0,0,0.1,0,0.1,0c0.3,0,0.7,0,1.2,0
		c0.1-0.3,0.2-0.5,0.3-0.7c0-0.1,0.1-0.2,0.1-0.2c-0.2-0.3-0.3-0.5-0.4-0.7C109.4,81.2,109.3,81.2,109.3,81.2z"/>
	<path d="M50.1,106.6c-0.1,0.4-0.3,0.9,0.2,1.3c0.4,0.1,0.9,0.3,1.3-0.2c0-0.4,0-0.8,0-1.3C51,106.3,50.5,106.1,50.1,106.6z"/>
	<path d="M35.7,96.2c-0.3,0-0.5,0.1-0.8,0.3c0,0.2-0.1,0.4,0,0.7c0,0.2,0.1,0.5,0.3,0.7c0.4,0,0.9,0.2,1.3-0.3c0-0.3,0-0.7,0-1.1
		C36.2,96.3,36,96.2,35.7,96.2z"/>
	<path d="M36.3,86.3c-0.4-0.1-0.9-0.3-1.3,0.2c-0.1,0.4-0.3,0.9,0.2,1.3c0.3,0,0.8,0,1.3,0C36.6,87.2,36.8,86.7,36.3,86.3z"/>
	<path d="M36.3,76.1c-0.4-0.1-0.9-0.2-1.3,0.2c0,0,0,0.1,0,0.1c0,0.4,0,0.8,0,1.3c0.6,0,1.1,0.2,1.5-0.2c0.1-0.3,0.2-0.7,0-1
		C36.5,76.3,36.4,76.2,36.3,76.1z"/>
	<path d="M33.8,91.2c-0.4,0-0.8,0-1.4,0c-0.1,0.3-0.2,0.6-0.2,0.9c0,0.3,0.1,0.5,0.4,0.7c0.4,0,0.8,0,1.2,0c0.2-0.3,0.3-0.5,0.4-0.8
		v0l0,0C34.1,91.7,33.9,91.4,33.8,91.2z"/>
	<path d="M32.5,81.2c-0.3,0.5-0.4,1,0.1,1.6c0.4,0,0.8,0,1.3,0c0.1-0.3,0.3-0.6,0.4-0.9c-0.2-0.3-0.3-0.5-0.5-0.8
		C33.3,81.1,32.9,81.1,32.5,81.2z"/>
	<path d="M38.8,61c-0.5,0-0.8,0-1.2,0c0,0-0.1,0-0.1,0c-0.3,0.6-0.4,1.1,0.1,1.6c0,0,0.1,0,0.1,0c0.3,0,0.7,0,1.2,0
		c0.1-0.3,0.2-0.6,0.4-0.9c-0.2-0.3-0.3-0.5-0.4-0.7C38.9,61,38.8,61,38.8,61z"/>
	<path d="M42.7,62.6c0.4,0,0.7,0,1.1,0c0,0,0.1,0,0.1,0c0.1-0.2,0.3-0.5,0.4-0.8c-0.1-0.3-0.3-0.5-0.4-0.8c-0.5,0-0.8,0-1.2,0
		c0,0-0.1,0-0.1,0c-0.5,0.6-0.5,1.1,0,1.6C42.6,62.6,42.7,62.6,42.7,62.6z"/>
	<path d="M40.7,96.2c-0.3,0-0.5,0.1-0.8,0.3c0,0.2-0.1,0.4,0,0.7c0,0.3,0.1,0.5,0.3,0.7c0.4,0,0.9,0.2,1.3-0.3c0-0.3,0-0.7,0-1.1
		C41.2,96.3,41,96.2,40.7,96.2z"/>
	<path d="M31.4,76.3C31,76,30.5,76,30.1,76.2c-0.2,0.2-0.2,0.4-0.2,0.7c0,0.2,0,0.4,0.1,0.6c0.4,0.4,0.8,0.3,1.3,0.2
		c0.2-0.3,0.2-0.5,0.2-0.7C31.6,76.7,31.5,76.5,31.4,76.3z"/>
	<path d="M23.7,71.1C23.6,71.1,23.6,71,23.7,71.1c-0.5-0.1-0.9,0-1.5,0c0,0.2,0,0.3,0,0.4c0,0.1,0,0.2,0,0.3c0,0.3,0,0.6,0.2,0.8
		c0,0,0,0,0,0c0,0,0.1,0.1,0.1,0.1c0.4,0,0.8,0,1.3,0c0.1-0.3,0.2-0.5,0.4-0.8C24,71.6,23.9,71.4,23.7,71.1
		C23.7,71.1,23.7,71.1,23.7,71.1z"/>
	<path d="M25.2,67.8c0.2-0.1,0.5-0.1,0.8-0.1c0.2,0,0.3-0.1,0.5-0.3c0-0.3,0.1-0.6,0-0.9c0-0.2-0.1-0.4-0.4-0.5
		c-0.4,0-0.9-0.2-1.3,0.4c0,0,0,0.1,0,0.1c0,0,0,0,0,0C24.8,66.9,24.6,67.4,25.2,67.8z"/>
	<path d="M19.8,66.3c0,0.4-0.2,0.9,0.3,1.3c0.4,0.1,0.8,0.3,1.3-0.3c0-0.3,0-0.7,0-1.1C20.9,65.9,20.4,65.8,19.8,66.3z"/>
	<path d="M37.6,72.7c0.4,0,0.8,0,1.2,0c0.2-0.3,0.3-0.5,0.4-0.8c-0.1-0.3-0.3-0.6-0.4-0.8c-0.4,0-0.8,0-1.3,0
		c-0.2,0.3-0.3,0.6-0.2,0.9C37.2,72.3,37.3,72.5,37.6,72.7z"/>
	<path d="M66.5,86.2c-0.3-0.2-0.7-0.1-1.1,0c-0.4,0.4-0.3,0.9-0.2,1.3c0.1,0.1,0.1,0.1,0.2,0.2c0.2,0.1,0.4,0.2,0.6,0.1
		c0.1,0,0.2,0,0.2,0c0.1,0,0.2,0,0.3,0c0.5-0.5,0.3-0.9,0.3-1.3C66.7,86.4,66.6,86.3,66.5,86.2z"/>
	<path d="M32.6,72.7c0.4,0,0.7,0,1.1,0c0,0,0.1,0,0.1,0c0.1-0.2,0.3-0.5,0.4-0.8c-0.1-0.3-0.3-0.5-0.4-0.8c-0.5,0-0.8,0-1.2,0
		c0,0-0.1,0-0.1,0C32.1,71.7,32,72.2,32.6,72.7C32.5,72.7,32.6,72.7,32.6,72.7z"/>
	<path d="M28.7,81.2c-0.5,0-0.8,0-1.2,0c0,0-0.1,0-0.1,0c-0.3,0.6-0.4,1.1,0.1,1.6c0,0,0.1,0,0.1,0c0.3,0,0.7,0,1.2,0
		c0.1-0.3,0.2-0.6,0.4-0.9C29,81.6,28.9,81.4,28.7,81.2C28.8,81.2,28.7,81.2,28.7,81.2z"/>
	<path d="M43.9,71.1c0,0,0-0.1-0.1-0.1c-0.5,0.1-1-0.1-1.4,0.4c0,0.1,0,0.3,0,0.4c0,0.1,0,0.2,0,0.4c0,0.2,0.1,0.4,0.3,0.5
		c0.4,0,0.8,0,1.3,0c0.1-0.3,0.2-0.5,0.4-0.8C44.2,71.6,44.1,71.4,43.9,71.1C43.9,71.1,43.9,71.1,43.9,71.1z"/>
	<path d="M46.5,106.6C46.5,106.6,46.5,106.6,46.5,106.6C46.4,106.5,46.4,106.5,46.5,106.6c-0.5-0.4-1-0.4-1.4-0.2
		c-0.3,0.5-0.3,0.9-0.1,1.4c0,0,0.1,0,0.1,0c0,0,0,0,0,0.1c0.4,0.2,0.8,0.1,1.2,0.1c0.4-0.5,0.4-0.8,0.2-1.2
		C46.5,106.7,46.5,106.7,46.5,106.6z"/>
	<path d="M58.9,91.2c-0.5,0-0.8,0-1.2,0c0,0-0.1,0-0.1,0c-0.3,0.6-0.4,1.1,0.1,1.6c0,0,0.1,0,0.1,0c0.3,0,0.7,0,1.2,0
		c0.1-0.2,0.2-0.4,0.3-0.6c0-0.1,0.1-0.2,0.1-0.3C59.2,91.6,59.1,91.4,58.9,91.2C59,91.2,58.9,91.2,58.9,91.2z"/>
	<path d="M56,86.2c-0.2,0-0.4,0-0.7,0c-0.4,0.5-0.3,0.9-0.2,1.4c0.4,0.5,0.9,0.3,1.3,0.2c0.5-0.4,0.3-0.9,0.2-1.3
		C56.4,86.2,56.2,86.2,56,86.2z"/>
	<path d="M59,101.4c-0.5,0-0.9,0-1.2,0c-0.3,0.2-0.4,0.4-0.4,0.6c0,0.2,0,0.5,0.1,0.7c0.5,0.5,1,0.3,1.5,0.3c0,0,0,0,0,0
		c0.2-0.3,0.3-0.6,0.4-0.9C59.3,101.8,59.1,101.6,59,101.4z"/>
	<path d="M80.3,97.7c0.4,0.4,0.9,0.3,1.3,0.2c0.2-0.2,0.3-0.4,0.3-0.7c0-0.2,0-0.5-0.1-0.7c-0.2-0.2-0.4-0.2-0.7-0.2
		c-0.2,0-0.5,0-0.7,0.1c-0.2,0.2-0.2,0.4-0.2,0.6C80.2,97.3,80.2,97.5,80.3,97.7z"/>
	<path d="M66.4,76c-0.2,0.1-0.5,0.1-0.8,0.1c-0.2,0-0.3,0.1-0.5,0.3c0,0.3-0.1,0.7,0.1,1c0.1,0.1,0.1,0.3,0.3,0.4
		c0.4,0,0.9,0.2,1.3-0.4c0,0,0-0.1,0-0.1c0,0,0,0,0,0C66.8,76.9,67,76.4,66.4,76z"/>
	<path d="M77.7,72.5c0.5,0.5,1,0.3,1.5,0.3c0.1-0.3,0.3-0.6,0.4-0.9c0,0,0,0,0,0c0,0,0,0,0-0.1c-0.1-0.2-0.3-0.5-0.4-0.7
		c-0.4,0-0.8,0-1.2,0c-0.5,0.3-0.4,0.7-0.4,1C77.7,72.3,77.7,72.4,77.7,72.5z"/>
	<path d="M58.4,61c-0.1,0-0.1,0-0.2,0c-0.2,0-0.3,0-0.5,0c-0.4,0.6-0.4,1,0,1.6c0.4,0,0.8,0,1.3,0c0.1-0.3,0.3-0.6,0.4-0.9
		c-0.2-0.3-0.3-0.5-0.5-0.8C58.7,60.9,58.6,61,58.4,61z"/>
	<path d="M129.5,111.4c-0.5,0-0.8,0-1.3,0c-0.2,0.4-0.3,0.7-0.2,1c0,0.2,0.1,0.4,0.2,0.6c0,0,0.1,0,0.1,0c0.4,0,0.7,0,1.2,0
		c0,0,0.1,0,0.1,0c0.1-0.3,0.2-0.6,0.4-0.9c-0.2-0.3-0.3-0.5-0.4-0.7C129.6,111.4,129.5,111.4,129.5,111.4z"/>
	<path d="M51.4,96.3c-0.4-0.1-0.9-0.3-1.3,0.2c-0.1,0.4-0.3,0.8,0.2,1.3c0.4,0.1,0.9,0.3,1.3-0.2c0.1-0.2,0.1-0.4,0.1-0.6
		C51.7,96.7,51.6,96.5,51.4,96.3z"/>
	<path d="M48.9,81.2c0,0-0.1,0-0.1,0c-0.4,0-0.7,0-1.1,0c0,0-0.1,0-0.1,0c-0.5,0.8-0.4,1,0.1,1.6c0,0,0.1,0,0.1,0c0.4,0,0.7,0,1.1,0
		c0,0,0.1,0,0.1,0c0.1-0.3,0.2-0.5,0.3-0.8c-0.1-0.2-0.2-0.4-0.3-0.5C49,81.4,48.9,81.3,48.9,81.2z"/>
	<path d="M50.9,66c-0.3,0-0.6,0-0.9,0.4c0,0.4-0.2,0.9,0.4,1.3c0,0,0.1,0,0.1,0c0,0,0,0,0,0c0.4,0,0.9,0.2,1.3-0.4
		c-0.1-0.4,0-0.8-0.4-1.3C51.2,66,51.1,66,50.9,66z"/>
	<path d="M53.9,101.3c-0.4,0-0.7,0-1.1,0c0,0-0.1,0-0.1,0c-0.5,0.8-0.4,1,0.1,1.6c0,0,0.1,0,0.1,0c0.4,0,0.7,0,1.1,0
		c0,0,0.1,0,0.1,0c0-0.2,0.1-0.4,0.3-0.8C54.2,101.8,54.1,101.5,53.9,101.3C54,101.3,53.9,101.3,53.9,101.3z"/>
	<path d="M51.3,76c-0.4,0.1-0.8,0-1.3,0.4c0,0.2,0,0.3,0,0.5c0,0.3,0.1,0.6,0.4,0.9c0.4,0,0.9,0.2,1.3-0.4c0,0,0-0.1,0-0.1
		c0,0,0,0,0,0C51.7,76.9,51.9,76.4,51.3,76z"/>
	<path d="M55.3,67.6c0.3,0,0.4,0.1,0.6,0.1c0.2,0,0.4-0.1,0.8-0.3c0-0.5,0.2-1-0.3-1.4c-0.2,0-0.4,0-0.5,0c-0.3,0-0.6,0-0.9,0.4
		C55,66.8,54.8,67.2,55.3,67.6z"/>
	<path d="M53.2,71.1c-0.3,0-0.5,0.1-0.8,0.3c0,0.4-0.2,0.9,0.3,1.3c0,0,0.1,0,0.1,0c0.3,0,0.7,0,1.2,0c0.1-0.3,0.2-0.5,0.4-0.8
		c-0.2-0.3-0.3-0.5-0.5-0.8C53.6,71.1,53.4,71,53.2,71.1z"/>
	<path d="M159.8,71.1c-0.5,0-0.8,0-1.2,0c0,0-0.1,0-0.1,0c-0.5,0.6-0.5,1.1,0,1.6c0,0,0.1,0,0.1,0c0.4,0,0.7,0,1.1,0
		c0,0,0.1,0,0.1,0c0.1-0.2,0.3-0.5,0.4-0.8c0-0.1-0.1-0.2-0.2-0.3C160,71.4,159.9,71.3,159.8,71.1z"/>
	<path d="M149.7,81.1c-0.5,0-0.8,0-1.2,0c-0.3,0.7-0.3,0.7-0.3,1.4c0.3,0.2,0.5,0.3,0.8,0.2c0.3,0,0.5,0,0.8,0
		c0.1-0.3,0.3-0.6,0.4-0.9C150.1,81.5,149.9,81.3,149.7,81.1C149.8,81.1,149.7,81.1,149.7,81.1z"/>
	<path d="M138.5,82.8c0.4,0,0.7,0,1.1,0c0,0,0.1,0,0.1,0c0.1-0.3,0.3-0.5,0.4-0.8c-0.2-0.3-0.3-0.6-0.4-0.8c-0.5,0-0.8,0-1.3,0
		c0,0-0.1,0-0.1,0C138.1,81.8,138,82.3,138.5,82.8C138.4,82.8,138.5,82.8,138.5,82.8z"/>
	<path d="M139.6,111.4c-0.5,0-0.8,0-1.2,0c0,0-0.1,0-0.1,0c-0.3,0.6-0.4,1.1,0.1,1.6c0,0,0.1,0,0.1,0c0.3,0,0.7,0,1.2,0
		c0.1-0.3,0.2-0.6,0.4-0.9c-0.2-0.3-0.3-0.5-0.4-0.7C139.7,111.4,139.6,111.4,139.6,111.4z"/>
	<path d="M143.9,72.7c0.2,0,0.5,0,0.8,0c0.1-0.2,0.2-0.5,0.4-0.8c-0.2-0.3-0.3-0.6-0.3-0.8c0,0-0.1,0-0.1,0c-0.5,0-0.8,0-1.2,0
		c0,0-0.1,0-0.1,0c-0.3,0.6-0.3,0.6-0.2,1.4C143.4,72.7,143.7,72.8,143.9,72.7z"/>
	<path d="M154.7,71.1c-0.4,0-0.7,0-1.1,0c0,0-0.1,0-0.1,0c-0.5,0.8-0.4,1,0.1,1.6c0,0,0.1,0,0.1,0c0.4,0,0.7,0,1.1,0
		c0,0,0.1,0,0.1,0c0-0.3,0.1-0.5,0.3-0.8C155,71.6,154.9,71.3,154.7,71.1C154.8,71.1,154.7,71.1,154.7,71.1z"/>
	<path d="M171.8,77.7c0.3,0,0.5-0.1,0.8-0.3c0-0.4,0.2-0.8-0.3-1.3c-0.2,0-0.4-0.1-0.6,0c-0.2,0-0.5,0.1-0.7,0.3c0,0.3,0,0.8,0,1.3
		C171.3,77.7,171.6,77.7,171.8,77.7z"/>
	<path d="M136.5,86.2c-0.2,0-0.5,0.1-0.7,0.3c0,0.3,0,0.7,0,1.3c0.6,0,1.1,0.2,1.6-0.3c0-0.4,0.2-0.8-0.3-1.3
		C136.9,86.2,136.7,86.1,136.5,86.2z"/>
	<path d="M171.9,86.1c-0.2,0-0.4,0-0.6,0.1c-0.4,0.4-0.3,0.9-0.2,1.3c0.2,0.2,0.4,0.3,0.7,0.3c0.2,0,0.5,0,0.7-0.1
		c0.3-0.4,0.2-0.9,0.1-1.3C172.4,86.2,172.2,86.1,171.9,86.1z"/>
	<path d="M139.8,71.4c-0.1-0.1-0.1-0.2-0.1-0.3c-0.2-0.1-0.4-0.1-0.6-0.1c-0.5,0-0.8,0.3-1.1,0.9c0.1,0.2,0.2,0.5,0.3,0.8
		c0,0,0.1,0,0.1,0c0.5,0,0.8,0,1.2,0c0,0,0.1,0,0.1,0c0.1-0.2,0.2-0.5,0.4-0.8C140,71.7,139.9,71.6,139.8,71.4
		C139.9,71.5,139.8,71.5,139.8,71.4z"/>
	<path d="M149.7,91.2c-0.4,0-0.8,0-1.3,0c-0.3,0.7-0.4,1.2,0.1,1.6c0.4,0,0.8,0,1.2,0c0.2-0.3,0.3-0.5,0.4-0.8v0l0,0
		C150,91.7,149.8,91.4,149.7,91.2z"/>
	<path d="M144,101.3c-0.3,0-0.5,0.1-0.8,0.3c0,0.1,0,0.2,0,0.3c-0.1,0.2,0,0.5,0.1,0.7c0.1,0.1,0.1,0.2,0.2,0.3c0.4,0,0.7,0,1.2,0
		c0,0,0.1,0,0.1,0c0.1-0.3,0.2-0.5,0.4-0.8c-0.2-0.3-0.3-0.5-0.5-0.8C144.4,101.3,144.2,101.2,144,101.3z"/>
	<path d="M157.4,86.4c-0.4-0.4-0.8-0.2-1.3-0.2c-0.3,0.5-0.3,1-0.1,1.4c0.4,0.3,0.9,0.3,1.3,0.1c0.2-0.2,0.2-0.4,0.2-0.7
		C157.6,86.8,157.5,86.6,157.4,86.4z"/>
	<path d="M146.7,106.3c-0.2,0-0.5,0-0.7,0.1c-0.3,0.4-0.3,0.9-0.1,1.3c0.2,0.2,0.4,0.3,0.7,0.3c0.2,0,0.5,0,0.7-0.1
		c0.3-0.4,0.2-0.9,0.1-1.3C147.2,106.4,147,106.3,146.7,106.3z"/>
	<path d="M185.3,82c-0.1-0.3-0.3-0.6-0.4-0.8c-0.4,0-0.8,0-1.2,0c-0.1,0.1-0.2,0.3-0.2,0.4c-0.2,0.4-0.1,0.8,0.2,1.2
		c0.4,0,0.8,0,1.2,0C185,82.6,185.2,82.3,185.3,82L185.3,82L185.3,82C185.3,82,185.3,82,185.3,82z"/>
	<path d="M149.7,101.3c0,0-0.1,0-0.1,0c-0.5,0-0.8,0-1.2,0c0,0-0.1,0-0.1,0c-0.3,0.6-0.4,1.1,0.1,1.6c0,0,0.1,0,0.1,0
		c0.4,0,0.7,0,1.2,0c0.1-0.2,0.2-0.4,0.3-0.6c0-0.1,0.1-0.2,0.1-0.3C149.9,101.7,149.8,101.5,149.7,101.3z"/>
	<path d="M146.5,97.9c0.2,0,0.4,0,0.6,0c0.4-0.4,0.3-0.9,0.2-1.3c-0.1-0.1-0.1-0.1-0.2-0.2c-0.3-0.2-0.7-0.2-1.1-0.1
		c-0.4,0.4-0.3,0.9-0.2,1.3C146,97.9,146.2,97.9,146.5,97.9z"/>
	<path d="M147,86.2c-0.1,0-0.1,0-0.2,0c-0.2,0-0.5,0-0.7,0c-0.4,0.5-0.4,0.9-0.3,1.4c0.1,0.1,0.2,0.1,0.2,0.1
		c0.4,0.3,0.8,0.1,1.3,0.1c0.3-0.4,0.3-0.9,0.2-1.3C147.3,86.3,147.1,86.2,147,86.2z"/>
	<path d="M141.6,106.4c-0.2,0-0.5,0-0.7,0.1c-0.3,0.4-0.3,0.9-0.1,1.3c0.4,0.4,0.9,0.2,1.3,0.2c0.4-0.5,0.3-1,0.2-1.4
		C142,106.4,141.8,106.4,141.6,106.4z"/>
	<path d="M174.9,71.1c0,0-0.1,0-0.1,0c-0.4,0-0.7,0-1.1,0c0,0-0.1,0-0.1,0c-0.5,0.8-0.4,1,0.1,1.6c0,0,0.1,0,0.1,0
		c0.4,0,0.7,0,1.1,0c0,0,0.1,0,0.1,0c0.1-0.3,0.2-0.5,0.3-0.8c-0.1-0.2-0.2-0.4-0.3-0.5C175,71.3,174.9,71.2,174.9,71.1z"/>
	<path d="M152.1,87.8C152.1,87.8,152.1,87.7,152.1,87.8c0.1-0.1,0.1-0.1,0.1-0.1c0.4-0.4,0.3-0.8,0.2-1.3c-0.4-0.4-0.9-0.3-1.3-0.2
		c-0.5,0.4-0.3,0.9-0.3,1.3C151.2,88,151.7,87.8,152.1,87.8z"/>
	<path d="M182,86.2c-0.2,0-0.4,0-0.7,0c-0.4,0.5-0.3,0.9-0.3,1.4c0.1,0.1,0.2,0.1,0.2,0.1c0.4,0.3,0.8,0.1,1.3,0.1
		c0.3-0.4,0.3-0.9,0.2-1.3C182.5,86.2,182.2,86.2,182,86.2z"/>
	<path d="M174.9,81.2c-0.4,0-0.8,0-1.4,0c-0.1,0.3-0.2,0.6-0.2,0.9c0,0.3,0.1,0.5,0.4,0.7c0.4,0,0.8,0,1.2,0
		c0.2-0.3,0.3-0.5,0.4-0.8v0l0,0C175.2,81.7,175,81.4,174.9,81.2z"/>
	<path d="M174.9,91.2c-0.4,0-0.8,0-1.3,0c-0.3,0.7-0.4,1.2,0.1,1.6c0.4,0,0.8,0,1.2,0c0.2-0.3,0.3-0.5,0.4-0.8v0l0,0
		C175.2,91.7,175,91.4,174.9,91.2z"/>
	<path d="M134.1,111.4c-0.2,0-0.4,0-0.5,0c-0.1,0-0.2,0.1-0.3,0.1c-0.1,0-0.1,0.1-0.2,0.2c0,0.3,0,0.7,0,1.3c0.6,0,1,0,1.5,0
		c0.1-0.2,0.3-0.5,0.4-0.8c-0.2-0.3-0.3-0.5-0.5-0.8C134.4,111.4,134.2,111.4,134.1,111.4z"/>
	<path d="M177.6,86.5c-0.4-0.4-0.7-0.4-1.1-0.3c-0.1,0-0.2,0-0.3,0.1c-0.2,0.3-0.2,0.5-0.2,0.7c0,0.2,0,0.5,0.1,0.7
		c0.4,0.3,0.9,0.3,1.3,0.1c0.1-0.1,0.2-0.3,0.2-0.4C177.7,87.1,177.7,86.8,177.6,86.5z"/>
	<path d="M32.7,62.6c0.3,0,0.7,0,1.1,0c0.1-0.3,0.3-0.5,0.4-0.8c-0.1-0.3-0.3-0.6-0.4-0.8c-0.5,0-0.9,0-1.3,0
		C32.2,61.6,32.1,62.1,32.7,62.6z"/>
	<path d="M47.7,61c-0.5,0.4-0.4,0.9-0.3,1.3c0.5,0.5,1,0.3,1.5,0.3c0.2-0.3,0.3-0.6,0.4-0.9c-0.1-0.3-0.3-0.5-0.4-0.7
		C48.4,61,48,61,47.7,61z"/>
	<path d="M52.8,62.6c0.4,0,0.7,0,1.1,0c0.2-0.2,0.3-0.5,0.4-0.8c-0.1-0.3-0.3-0.6-0.4-0.8c-0.5,0-0.9,0-1.3,0
		C52.3,61.6,52.2,62.1,52.8,62.6z"/>
	<path d="M62.5,62.4c0.5,0.4,1,0.2,1.5,0.2c0.2-0.3,0.3-0.6,0.4-0.9c-0.1-0.3-0.3-0.5-0.4-0.7c-0.5,0-0.9,0-1.2,0
		c-0.1,0.1-0.2,0.2-0.2,0.3C62.4,61.6,62.4,62,62.5,62.4z"/>
	<path d="M118.3,111.4c-0.5,0.5-0.5,1-0.1,1.6c0.5,0,0.9,0,1.3,0c0.2-0.3,0.3-0.5,0.4-0.8c-0.1-0.3-0.3-0.6-0.4-0.8
		C119,111.4,118.7,111.4,118.3,111.4z"/>
	<path d="M113.2,111.4c-0.4,0.6-0.5,1.1,0,1.6c0.4,0,0.8,0,1.3,0c0.2-0.3,0.3-0.6,0.4-0.9c-0.1-0.2-0.3-0.5-0.4-0.7
		C114,111.4,113.6,111.4,113.2,111.4z"/>
	<path d="M7.3,71.1c-0.3,0.5-0.5,1.1,0.1,1.6c0.4,0,0.8,0,1.2,0c0.1-0.2,0.3-0.5,0.4-0.8c-0.1-0.3-0.3-0.6-0.4-0.8
		C8.1,71.1,7.7,71.1,7.3,71.1z"/>
	<path d="M12,71.5c0.1,0.4-0.2,0.9,0.4,1.2c0,0,0.1,0,0.1,0c0.4,0,0.7,0,1.1,0c0,0,0.1,0,0.1,0c0.1-0.3,0.3-0.5,0.4-0.8
		c-0.2-0.3-0.3-0.6-0.5-0.8C13.1,71.1,12.6,70.8,12,71.5z"/>
	<path d="M18.7,71c-0.5,0-1-0.2-1.4,0.2c-0.1,0-0.1,0.1-0.2,0.1c0,0.4-0.2,0.9,0.3,1.3c0,0,0.1,0,0.1,0c0.4,0,0.7,0,1.2,0
		c0,0,0.1,0,0.1,0c0.1-0.3,0.2-0.5,0.4-0.8c-0.1,0-0.1-0.1-0.2-0.1C19,71.4,18.9,71.2,18.7,71z"/>
	<path d="M27.6,71.1c-0.1,0.1-0.2,0.2-0.2,0.3c-0.2,0.3-0.2,0.7-0.1,1c0.5,0.5,1,0.3,1.5,0.3c0.1-0.2,0.2-0.5,0.4-0.8
		c-0.2-0.3-0.3-0.6-0.4-0.8C28.3,71.1,27.9,71.1,27.6,71.1z"/>
	<path d="M47.6,71.1c-0.3,0.6-0.4,1.1,0.2,1.6c0.3,0,0.7,0,1.1,0c0.1-0.2,0.3-0.5,0.4-0.8c-0.1-0.3-0.3-0.6-0.4-0.8
		C48.4,71.1,48,71.1,47.6,71.1z"/>
	<path d="M57.7,71.1c-0.3,0.6-0.4,1.1,0.2,1.6c0.3,0,0.7,0,1.1,0c0.1-0.3,0.3-0.5,0.4-0.8c-0.1-0.3-0.3-0.6-0.4-0.8
		C58.5,71.1,58.1,71.1,57.7,71.1z"/>
	<path d="M62.4,71.3c0,0.4-0.2,0.9,0.3,1.3c0,0,0,0,0,0c0,0,0.1,0.1,0.1,0.1c0.4,0,0.8,0,1.3,0c0.1-0.3,0.2-0.5,0.4-0.8
		c-0.2-0.3-0.3-0.6-0.5-0.9C63.5,71.1,63,70.8,62.4,71.3z"/>
	<path d="M67.8,71.1c-0.4,0.6-0.4,1.1,0,1.6c0.4,0,0.8,0,1.3,0c0.2-0.3,0.3-0.6,0.4-0.9c-0.1-0.2-0.3-0.5-0.4-0.7
		C68.6,71.1,68.3,71.1,67.8,71.1z"/>
	<path d="M72.8,71.1C72.8,71.1,72.7,71.1,72.8,71.1c-0.4,0.6-0.5,1.1,0,1.6c0,0,0.1,0,0.1,0c0.4,0,0.7,0,1.2,0c0,0,0.1,0,0.1,0
		c0.1-0.3,0.3-0.5,0.4-0.8c-0.2-0.3-0.4-0.6-0.5-0.8C73.6,71.1,73.2,71.1,72.8,71.1z"/>
	<path d="M83,71.1c-0.5,0.8-0.5,0.8,0,1.6c0.4,0,0.7,0,1.2,0c0.1-0.2,0.3-0.5,0.4-0.8c-0.1-0.3-0.3-0.6-0.4-0.8
		C83.7,71.1,83.3,71.1,83,71.1z"/>
	<path d="M148.5,71.1c-0.5,0.5-0.4,0.9-0.2,1.4c0.2,0.2,0.5,0.3,0.7,0.2c0.3,0,0.5,0,0.8,0c0.1-0.3,0.3-0.5,0.4-0.8
		c-0.1-0.3-0.3-0.6-0.4-0.8C149.3,71.1,148.9,71.1,148.5,71.1z"/>
	<path d="M163.5,72.5c0.1,0.1,0.1,0.1,0.2,0.2c0.4,0,0.7,0,1.1,0c0.1-0.2,0.3-0.5,0.4-0.8c-0.1-0.3-0.3-0.6-0.4-0.8
		c-0.5,0-0.9,0-1.3,0c-0.2,0.4-0.3,0.7-0.2,1C163.3,72.3,163.4,72.4,163.5,72.5z"/>
	<path d="M168.5,72.5c0.1,0.1,0.1,0.1,0.2,0.2c0.4,0,0.7,0,1.1,0c0.2-0.2,0.3-0.5,0.4-0.8c-0.1-0.3-0.3-0.6-0.4-0.8
		c-0.5,0-0.9,0-1.3,0c-0.2,0.4-0.3,0.7-0.2,1C168.3,72.3,168.4,72.4,168.5,72.5z"/>
	<path d="M27.5,91.2C27,92,27,92,27.5,92.8c0.4,0,0.7,0,1.2,0c0.1-0.2,0.3-0.5,0.4-0.8c-0.1-0.3-0.3-0.6-0.4-0.8
		C28.3,91.2,27.9,91.2,27.5,91.2z"/>
	<path d="M153.5,101.3c-0.4,0.7-0.5,1.2,0.1,1.6c0.4,0,0.8,0,1.2,0c0.2-0.3,0.3-0.5,0.4-0.8c-0.1-0.3-0.3-0.6-0.4-0.8
		C154.3,101.3,153.9,101.3,153.5,101.3z"/>
	<path d="M139.7,101.3C139.7,101.3,139.6,101.3,139.7,101.3c-0.6,0-0.9,0-1.3,0c0,0-0.1,0-0.1,0c-0.3,0.6-0.4,1.1,0.1,1.6
		c0,0,0.1,0,0.1,0c0.4,0,0.7,0,1.1,0c0,0,0.1,0,0.1,0c0-0.1,0.1-0.2,0.1-0.3c0.1-0.1,0.2-0.3,0.3-0.5c-0.1-0.2-0.2-0.4-0.3-0.5
		C139.7,101.5,139.7,101.4,139.7,101.3z"/>
	<path d="M133.1,101.6c0,0.3,0,0.8,0,1.3c0.6,0,1,0,1.5,0c0.1-0.2,0.3-0.5,0.4-0.8c-0.2-0.3-0.3-0.5-0.5-0.8
		C134,101.4,133.5,101.1,133.1,101.6z"/>
	<path d="M128.1,101.6c-0.1,0.3-0.1,0.7,0.1,1c0.1,0.1,0.1,0.2,0.2,0.3c0.4,0,0.8,0,1.2,0c0.1-0.2,0.2-0.5,0.4-0.8
		c-0.2-0.3-0.4-0.6-0.5-0.8C129,101.3,128.5,101.1,128.1,101.6z"/>
	<path d="M114.4,103c0.2-0.4,0.3-0.6,0.4-0.9c-0.1-0.3-0.3-0.5-0.4-0.7c-0.5,0-0.9,0-1.2,0c-0.5,0.4-0.3,0.9-0.3,1.3
		C113.3,103.2,113.8,103,114.4,103z"/>
	<path d="M108,101.3c-0.2,0.5-0.3,0.9-0.1,1.3c0,0.1,0.1,0.2,0.2,0.3c0.4,0,0.8,0,1.3,0c0.2-0.3,0.3-0.6,0.4-0.9
		c-0.2-0.3-0.3-0.5-0.4-0.7C108.9,101.3,108.5,101.3,108,101.3z"/>
	<path d="M103.1,101.3c-0.2,0.3-0.3,0.6-0.3,0.8c0,0.3,0.1,0.5,0.3,0.8c0.4,0,0.8,0,1.3,0c0.1-0.3,0.3-0.6,0.4-0.9
		c-0.2-0.3-0.3-0.5-0.5-0.8C103.8,101.3,103.5,101.3,103.1,101.3z"/>
	<path d="M98.1,101.3c-0.1,0.1-0.2,0.2-0.2,0.3c-0.2,0.3-0.2,0.7-0.1,1c0.5,0.5,1,0.3,1.5,0.3c0.2-0.3,0.3-0.6,0.4-0.9
		c-0.1-0.2-0.3-0.5-0.4-0.7C98.8,101.3,98.4,101.3,98.1,101.3z"/>
	<path d="M84.2,101.3c-0.4,0-0.8,0-1.2,0c-0.3,0.3-0.4,0.5-0.4,0.7c0,0.2,0,0.5,0.1,0.7c0.5,0.5,1,0.3,1.5,0.3
		c0.1-0.3,0.3-0.6,0.4-0.9c0,0,0,0,0,0c0,0,0,0,0-0.1C84.5,101.8,84.3,101.5,84.2,101.3z"/>
	<path d="M77.7,101.6c0,0.3,0,0.8,0,1.3c0.6,0,1,0,1.5,0c0.1-0.2,0.3-0.5,0.4-0.8c-0.2-0.3-0.3-0.5-0.5-0.8
		C78.6,101.4,78.1,101.1,77.7,101.6z"/>
	<path d="M62.7,101.3c-0.3,0.7-0.4,1.2,0.1,1.6c0.4,0,0.8,0,1.2,0c0.2-0.3,0.3-0.5,0.4-0.8c-0.1-0.3-0.3-0.6-0.4-0.8
		C63.6,101.3,63.2,101.3,62.7,101.3z"/>
	<path d="M47.7,101.3c-0.5,0.6-0.5,1.1,0,1.6c0.4,0,0.8,0,1.2,0c0.1-0.2,0.3-0.5,0.4-0.8c-0.1-0.3-0.3-0.5-0.4-0.8
		C48.5,101.3,48.1,101.3,47.7,101.3z"/>
	<path d="M42.6,101.3c-0.2,0.3-0.3,0.5-0.3,0.8c0,0.3,0.1,0.5,0.4,0.8c0.4,0,0.8,0,1.2,0c0.1-0.2,0.3-0.5,0.4-0.8
		c-0.1-0.3-0.3-0.6-0.4-0.8C43.5,101.3,43.1,101.3,42.6,101.3z"/>
	<path d="M37.6,101.3c-0.4,0.6-0.5,1.1,0,1.6c0.4,0,0.8,0,1.3,0c0.2-0.3,0.3-0.6,0.4-0.9c-0.1-0.2-0.3-0.5-0.4-0.7
		C38.4,101.3,38,101.3,37.6,101.3z"/>
	<path d="M169.8,91.3c-0.5,0-0.8,0-1.2,0c0,0-0.1,0-0.1,0c-0.3,0.6-0.4,1.1,0.1,1.6c0,0,0.1,0,0.1,0c0.4,0,0.7,0,1.1,0
		c0,0,0.1,0,0.1,0c0.1-0.2,0.2-0.5,0.4-0.8c-0.2-0.4-0.3-0.6-0.4-0.8C169.9,91.3,169.8,91.3,169.8,91.3z"/>
	<path d="M163.4,91.5c0,0.4,0,0.8,0,1.3c0.6,0,1,0,1.5,0c0.1-0.2,0.3-0.5,0.4-0.8c-0.2-0.3-0.3-0.5-0.5-0.8
		C164.3,91.3,163.8,91,163.4,91.5z"/>
	<path d="M158.3,91.5c0,0.4,0,0.8,0,1.3c0.6,0,1,0,1.5,0c0.1-0.2,0.3-0.5,0.4-0.8c-0.2-0.3-0.3-0.5-0.5-0.8
		C159.2,91.3,158.7,91,158.3,91.5z"/>
	<path d="M38.8,82.7c0.1-0.2,0.3-0.5,0.4-0.8c-0.1-0.3-0.3-0.5-0.4-0.8c-0.4,0-0.7,0-1.2,0c-0.5,0.6-0.5,1.1,0,1.6
		C38,82.7,38.4,82.7,38.8,82.7z"/>
	<path d="M42.6,81.2c-0.3,0.6-0.4,1.1,0.1,1.6c0.4,0,0.7,0,1.2,0c0.1-0.3,0.3-0.5,0.4-0.8c-0.1-0.3-0.3-0.6-0.4-0.8
		C43.4,81.2,43.1,81.2,42.6,81.2z"/>
	<path d="M53.2,81.2c-0.3,0-0.5,0.1-0.8,0.3c0,0.4-0.2,0.8,0.3,1.3c0,0,0.1,0,0.1,0c0.4,0,0.7,0,1.1,0c0,0,0.1,0,0.1,0
		c0.1-0.2,0.2-0.5,0.4-0.8c-0.2-0.4-0.4-0.6-0.4-0.8C53.7,81.2,53.4,81.1,53.2,81.2z"/>
	<path d="M57.8,81.2c-0.2,0.2-0.3,0.3-0.3,0.5c-0.1,0.3,0,0.6,0,0.9c0.5,0.4,1,0.2,1.5,0.2c0.1-0.3,0.3-0.5,0.4-0.8
		c-0.1-0.4-0.3-0.6-0.4-0.8C58.5,81.2,58.1,81.2,57.8,81.2z"/>
	<path d="M64,81.1c-0.4,0-0.8,0-1.2,0c-0.1,0.1-0.1,0.2-0.2,0.3c-0.2,0.4-0.2,0.7-0.1,1.1c0.5,0.5,1,0.3,1.5,0.3
		c0.1-0.3,0.3-0.6,0.4-0.9c0,0,0,0,0,0c0,0,0,0,0-0.1C64.3,81.6,64.1,81.3,64,81.1z"/>
	<path d="M67.9,82.8c0.4,0,0.7,0,1.1,0c0.2-0.3,0.3-0.5,0.4-0.8c-0.1-0.3-0.3-0.6-0.4-0.8c-0.5,0-0.9,0-1.3,0
		C67.4,81.8,67.3,82.3,67.9,82.8z"/>
	<path d="M72.9,81.2c-0.5,0.5-0.5,1,0,1.6c0.4,0,0.8,0,1.2,0c0.1-0.2,0.3-0.5,0.4-0.8c-0.1-0.3-0.3-0.6-0.4-0.8
		C73.7,81.2,73.3,81.2,72.9,81.2z"/>
	<path d="M77.9,81.2c0,0-0.1,0-0.1,0c-0.3,0.6-0.4,1.1,0.1,1.6c0,0,0.1,0,0.1,0c0.4,0,0.7,0,1.2,0c0,0,0.1,0,0.1,0
		c0.1-0.3,0.3-0.5,0.4-0.8c-0.3-0.3-0.4-0.6-0.5-0.8C78.7,81.2,78.3,81.2,77.9,81.2z"/>
	<path d="M83,81.2c-0.5,0.4-0.4,0.9-0.3,1.3c0.5,0.5,1,0.3,1.5,0.3c0.2-0.3,0.3-0.6,0.4-0.9c-0.1-0.3-0.3-0.5-0.4-0.7
		C83.7,81.2,83.3,81.2,83,81.2z"/>
	<path d="M93.1,81.2c-0.1,0.1-0.2,0.2-0.2,0.2c-0.2,0.3-0.2,0.7-0.1,1.1c0.5,0.5,1,0.3,1.5,0.3c0.2-0.3,0.3-0.6,0.4-0.9
		c-0.1-0.3-0.3-0.5-0.4-0.7C93.8,81.2,93.4,81.2,93.1,81.2z"/>
	<path d="M113,81.4c0,0.4,0,0.8,0,1.3c0.6,0,1,0,1.5,0c0.1-0.2,0.3-0.5,0.4-0.8c-0.2-0.3-0.3-0.5-0.5-0.8
		C113.9,81.2,113.4,80.9,113,81.4z"/>
	<path d="M124.9,81.9c-0.2-0.3-0.3-0.5-0.5-0.8c-0.5,0.1-1-0.2-1.4,0.3c0,0.4,0,0.8,0,1.3c0.6,0,1,0,1.5,0
		C124.6,82.5,124.8,82.2,124.9,81.9z"/>
	<path d="M128.4,81.2c-0.6,0.4-0.4,0.9-0.3,1.3c0.2,0.3,0.5,0.3,0.7,0.3c0.3,0,0.5,0,0.8,0c0.2-0.3,0.3-0.6,0.4-0.9
		c-0.1-0.3-0.3-0.5-0.4-0.7C129.1,81.2,128.7,81.2,128.4,81.2z"/>
	<path d="M134.6,81.1c-0.5,0-1-0.2-1.4,0.2c-0.1,0-0.1,0.1-0.2,0.1c0,0.4-0.2,0.9,0.3,1.3c0,0,0.1,0,0.1,0c0.4,0,0.7,0,1.2,0
		c0,0,0.1,0,0.1,0c0.1-0.3,0.2-0.5,0.4-0.8c-0.1-0.1-0.1-0.2-0.2-0.3C134.8,81.5,134.7,81.3,134.6,81.1z"/>
	<path d="M144.7,82.8c0.1-0.3,0.3-0.5,0.4-0.8c-0.1-0.3-0.3-0.6-0.4-0.8c-0.5,0-0.8,0-1.2,0c-0.5,0.6-0.5,1.1,0,1.6
		C143.9,82.8,144.2,82.8,144.7,82.8z"/>
	<path d="M153.6,81.2c-0.6,0.4-0.4,0.9-0.3,1.3c0.2,0.3,0.5,0.3,0.7,0.3c0.3,0,0.5,0,0.8,0c0.2-0.3,0.3-0.6,0.4-0.9
		c-0.1-0.3-0.3-0.5-0.4-0.7C154.3,81.2,153.9,81.2,153.6,81.2z"/>
	<path d="M159.7,81.2c-0.5,0-0.7,0-1.1,0c0,0-0.1,0-0.1,0c-0.4,0.6-0.5,1.1,0,1.6c0,0,0.1,0,0.1,0c0.4,0,0.7,0,1.1,0
		c0,0,0.1,0,0.1,0c0.1-0.2,0.2-0.5,0.4-0.8C160,81.6,159.9,81.4,159.7,81.2C159.8,81.2,159.7,81.2,159.7,81.2z"/>
	<path d="M164.8,81.2c-0.5,0-0.8,0-1.2,0c0,0-0.1,0-0.1,0c-0.1,0.1-0.1,0.2-0.1,0.3c-0.2,0.3-0.1,0.6-0.1,1c0.3,0.3,0.5,0.3,0.8,0.3
		c0.3,0,0.5,0,0.8,0c0.2-0.3,0.3-0.6,0.4-0.9c-0.1-0.2-0.3-0.5-0.4-0.7C164.9,81.2,164.8,81.2,164.8,81.2z"/>
	<path d="M168.7,81.2c0,0-0.1,0-0.1,0c-0.4,0.6-0.5,1.1,0,1.6c0,0,0.1,0,0.1,0c0.4,0,0.7,0,1.1,0c0,0,0.1,0,0.1,0
		c0.1-0.2,0.3-0.5,0.4-0.8c-0.1-0.3-0.3-0.5-0.4-0.8C169.4,81.2,169.1,81.2,168.7,81.2z"/>
	<path d="M179.9,81.1c-0.6,0-1-0.2-1.4,0.2c-0.1,0-0.1,0-0.2,0.1c0,0.4-0.2,0.9,0.3,1.3c0,0,0.1,0,0.1,0c0.4,0,0.7,0,1.2,0
		c0,0,0.1,0,0.1,0c0.1-0.3,0.2-0.5,0.4-0.8c-0.1-0.1-0.2-0.2-0.2-0.4C180.1,81.4,180,81.3,179.9,81.1z"/>
	<path d="M153.3,91.5c-0.1,0.3-0.1,0.7,0.1,1c0.1,0.1,0.1,0.2,0.2,0.3c0.4,0,0.8,0,1.2,0c0.1-0.2,0.2-0.4,0.4-0.8
		c-0.2-0.3-0.4-0.6-0.5-0.8C154.2,91.2,153.7,91,153.3,91.5z"/>
	<path d="M143.2,91.5c0,0.4,0,0.8,0,1.3c0.6,0,1,0,1.5,0c0.1-0.2,0.3-0.5,0.4-0.8c-0.2-0.3-0.3-0.5-0.5-0.8
		C144.1,91.3,143.6,91,143.2,91.5z"/>
	<path d="M138.2,91.5c-0.1,0.3-0.1,0.7,0.1,1c0.1,0.1,0.1,0.2,0.2,0.3c0.4,0,0.8,0,1.2,0c0.1-0.2,0.2-0.4,0.4-0.8
		c-0.2-0.3-0.4-0.6-0.5-0.8C139.1,91.2,138.6,91,138.2,91.5z"/>
	<path d="M133.3,91.3c-0.3,0.6-0.4,1.1,0.2,1.6c0.3,0,0.7,0,1.1,0c0.1-0.3,0.3-0.5,0.4-0.8c-0.1-0.3-0.3-0.6-0.4-0.8
		C134.1,91.3,133.7,91.3,133.3,91.3z"/>
	<path d="M128.3,91.2c-0.2,0.3-0.3,0.6-0.3,0.8c0,0.3,0.1,0.5,0.3,0.8c0.4,0,0.8,0,1.3,0c0.1-0.3,0.3-0.6,0.4-0.9
		c-0.2-0.3-0.3-0.5-0.5-0.8C129,91.2,128.7,91.2,128.3,91.2z"/>
	<path d="M124.5,92.8c0.2-0.3,0.3-0.6,0.4-0.9c-0.1-0.2-0.3-0.5-0.4-0.7c-0.4,0-0.8,0-1.3,0c-0.4,0.6-0.4,1.1,0,1.6
		C123.6,92.8,124,92.8,124.5,92.8z"/>
	<path d="M109.4,91.2c-0.5,0-0.8,0-1.2,0c0,0-0.1,0-0.1,0c-0.4,0.6-0.4,0.6-0.2,1.4c0.2,0.2,0.5,0.3,0.7,0.2c0.2,0,0.5,0,0.8,0
		c0-0.1,0.1-0.1,0.1-0.2c0.1-0.1,0.2-0.3,0.3-0.6C109.7,91.7,109.5,91.5,109.4,91.2C109.5,91.2,109.4,91.2,109.4,91.2z"/>
	<path d="M103.1,92.8C103.1,92.8,103.1,92.8,103.1,92.8L103.1,92.8c0.4,0,0.8,0,1.2,0c0.1-0.2,0.3-0.5,0.4-0.8v0l0,0c0,0,0,0,0,0
		c-0.1-0.3-0.3-0.6-0.4-0.8c-0.4,0-0.8,0-1.3,0c-0.2,0.5-0.3,0.9-0.1,1.3C102.9,92.6,103,92.7,103.1,92.8z"/>
	<path d="M99.3,91.2c-0.2,0-0.4,0-0.6,0c-0.3,0-0.7,0.1-1,0.4c0.1,0.4-0.2,0.9,0.4,1.2c0,0,0.1,0,0.1,0c0.4,0,0.7,0,1.1,0
		c0,0,0.1,0,0.1,0c0.1-0.3,0.3-0.5,0.4-0.8c-0.1-0.1-0.2-0.2-0.3-0.3C99.4,91.5,99.4,91.4,99.3,91.2z"/>
	<path d="M89.2,92.8c0.2-0.3,0.3-0.5,0.4-0.8c0,0,0,0,0,0c-0.1-0.3-0.3-0.6-0.4-0.8c-0.4,0-0.8,0-1.3,0c-0.3,0.7-0.4,1.2,0.1,1.6
		C88.4,92.8,88.8,92.8,89.2,92.8z"/>
	<path d="M84.1,91.3c-0.5,0-0.7,0-1.1,0c0,0-0.1,0-0.1,0c-0.4,0.6-0.5,1.1,0,1.6c0,0,0.1,0,0.1,0c0.4,0,0.7,0,1.1,0c0,0,0.1,0,0.1,0
		c0.1-0.2,0.2-0.5,0.4-0.8c-0.2-0.4-0.3-0.6-0.4-0.8C84.2,91.3,84.1,91.3,84.1,91.3z"/>
	<path d="M77.9,91.2c-0.3,0.6-0.4,1.1,0.1,1.6c0.3,0,0.7,0,1.2,0c0.1-0.3,0.3-0.5,0.4-0.8c0,0,0,0,0,0c-0.1-0.3-0.3-0.6-0.4-0.8
		C78.7,91.2,78.4,91.2,77.9,91.2z"/>
	<path d="M64.4,92c-0.1-0.3-0.3-0.5-0.4-0.7c-0.5,0-0.9,0-1.2,0c-0.5,0.4-0.3,0.8-0.3,1.3c0.5,0.5,1,0.3,1.5,0.3
		C64.2,92.6,64.3,92.3,64.4,92C64.4,92,64.4,92,64.4,92L64.4,92L64.4,92C64.4,92,64.4,92,64.4,92z"/>
	<path d="M52.3,91.5c0.1,0.4-0.1,0.9,0.2,1.2c0.1,0.1,0.1,0.1,0.3,0.2c0.4,0,0.8,0,1.2,0c0.1-0.3,0.3-0.5,0.4-0.8
		c-0.2-0.3-0.3-0.6-0.5-0.9C53.4,91.2,52.9,91,52.3,91.5z"/>
	<path d="M47.6,91.2c-0.4,0.6-0.4,1.1,0,1.6c0.4,0,0.8,0,1.3,0c0.2-0.3,0.3-0.6,0.4-0.9c-0.1-0.2-0.3-0.5-0.4-0.7
		C48.5,91.2,48.1,91.2,47.6,91.2z"/>
	<path d="M43.8,91.3c-0.5,0-0.7,0-1.1,0c0,0-0.1,0-0.1,0c-0.4,0.6-0.5,1.1,0,1.6c0,0,0.1,0,0.1,0c0.4,0,0.7,0,1.1,0c0,0,0.1,0,0.1,0
		c0.1-0.2,0.2-0.5,0.4-0.8c-0.2-0.4-0.3-0.6-0.4-0.8C43.9,91.3,43.8,91.3,43.8,91.3z"/>
	<path d="M37.2,91.5c0.1,0.4-0.1,0.9,0.2,1.2c0.1,0.1,0.1,0.1,0.3,0.2c0.4,0,0.8,0,1.2,0c0.1-0.3,0.3-0.5,0.4-0.8
		c-0.2-0.3-0.3-0.6-0.5-0.9C38.3,91.2,37.8,91,37.2,91.5z"/>
	<path d="M162.2,86.1C162.2,86.1,162.1,86.1,162.2,86.1C162.1,86.1,162.1,86.1,162.2,86.1c-0.5,0-1-0.2-1.4,0.4
		c0.1,0.4,0,0.8,0.4,1.3c0.2,0,0.3,0,0.5,0c0.3,0,0.6-0.1,0.9-0.4C162.6,87,162.8,86.5,162.2,86.1z"/>
	<path d="M167.2,86.2c-0.4,0-0.8-0.2-1.3,0.3c0,0.2-0.1,0.4,0,0.7c0,0.2,0.1,0.5,0.3,0.7c0.4-0.1,0.8-0.1,1.3-0.1
		C167.6,87.1,167.8,86.7,167.2,86.2z"/>
	<path d="M142.1,87.8c0.4-0.5,0.3-1,0.2-1.5c-0.4-0.2-0.9-0.2-1.3-0.1c0,0,0,0.1,0,0.1c0,0,0,0-0.1,0c-0.3,0.4-0.3,0.9-0.1,1.3
		C141.2,88,141.7,87.8,142.1,87.8z"/>
	<path d="M125.9,87.8c0.4,0,0.9,0.2,1.3-0.3c0-0.3,0-0.7,0-1.1c-0.3-0.2-0.5-0.3-0.8-0.3c-0.3,0-0.5,0.1-0.8,0.3
		c0,0.2-0.1,0.4,0,0.7C125.6,87.3,125.6,87.6,125.9,87.8z"/>
	<path d="M121.5,86.2c-0.2,0-0.4,0-0.6,0c-0.5,0.4-0.3,0.9-0.3,1.3c0.2,0.3,0.5,0.3,0.7,0.3c0.2,0,0.4,0,0.7,0
		c0.4-0.4,0.3-0.9,0.2-1.3C122,86.2,121.7,86.2,121.5,86.2z"/>
	<path d="M116.9,86.2c-0.3-0.1-0.7-0.2-1,0c-0.1,0-0.3,0.1-0.4,0.2c0.1,0.4,0.1,0.8,0.1,1.3c0.3,0.1,0.6,0.1,0.8,0.1
		c0.3,0,0.5-0.1,0.8-0.3C117.2,87.1,117.4,86.6,116.9,86.2z"/>
	<path d="M111.4,86.2c-0.2,0-0.4,0-0.6,0c-0.5,0.4-0.3,0.9-0.3,1.3c0.2,0.3,0.5,0.3,0.7,0.3c0.2,0,0.4,0,0.7,0
		c0.4-0.4,0.3-0.9,0.2-1.3C111.9,86.2,111.7,86.2,111.4,86.2z"/>
	<path d="M105.7,87.8c0.4,0.1,0.9,0.2,1.3-0.2c0.1-0.4,0.2-0.9-0.2-1.3c-0.4-0.1-0.9-0.2-1.3,0.2c-0.1,0.2-0.1,0.4-0.1,0.6
		C105.4,87.4,105.5,87.6,105.7,87.8z"/>
	<path d="M102,87.6C102,87.6,102,87.6,102,87.6c0,0,0.1-0.1,0.1-0.1c-0.1-0.3-0.1-0.7-0.1-1.2c-0.6-0.1-1-0.3-1.4,0.1
		c-0.1,0.1-0.1,0.1-0.2,0.2c0,0.4-0.2,0.8,0.3,1.3C101.1,87.9,101.6,88.1,102,87.6z"/>
	<path d="M96.8,87.8C96.8,87.8,96.8,87.7,96.8,87.8c0.1-0.1,0.1-0.1,0.1-0.1c0.2-0.4,0.1-0.8,0.1-1.2c-0.4-0.4-0.8-0.4-1.2-0.2
		c-0.1,0-0.1,0-0.2,0c0,0,0,0,0,0.1c0,0,0,0-0.1,0c-0.3,0.4-0.3,0.9-0.1,1.3C95.9,88,96.3,88,96.8,87.8z"/>
	<path d="M91.8,87.6c0.1,0,0.1-0.1,0.2-0.1c0-0.2,0-0.5,0-0.7c0-0.2-0.1-0.4-0.3-0.6c-0.2-0.1-0.4-0.1-0.7-0.1
		c-0.2,0-0.5,0.1-0.7,0.3c0,0.4-0.2,0.8,0.3,1.3C91,87.8,91.4,88,91.8,87.6z"/>
	<path d="M86.9,86.5c-0.4-0.4-0.9-0.3-1.3-0.2c-0.4,0.4-0.3,0.9-0.2,1.3c0.4,0.4,0.9,0.3,1.3,0.2c0.2-0.2,0.3-0.4,0.3-0.7
		C87,86.9,87,86.7,86.9,86.5z"/>
	<path d="M76.3,86.2c-0.3-0.1-0.5,0-0.8,0c-0.1,0.1-0.2,0.2-0.3,0.3c-0.2,0.3-0.1,0.7,0,1.1c0.4,0.4,0.9,0.3,1.3,0.2
		c0.1-0.1,0.1-0.1,0.2-0.2c0.3-0.3,0.2-0.7,0.1-1.1C76.6,86.3,76.5,86.2,76.3,86.2z"/>
	<path d="M70.4,86.2c-0.2,0.2-0.3,0.4-0.2,0.7c0,0.2,0,0.4,0,0.6c0.4,0.4,0.8,0.4,1.1,0.3c0.1,0,0.2,0,0.3-0.1
		c0.1-0.1,0.1-0.3,0.2-0.4c0.2-0.4,0.1-0.7-0.1-1.1C71.3,86,70.8,86,70.4,86.2z"/>
	<path d="M61.5,86.2c-0.4-0.1-0.9-0.2-1.3,0.2c-0.1,0.4-0.2,0.9,0.2,1.3c0.4,0.1,0.9,0.2,1.3-0.2c0.1-0.2,0.1-0.4,0.1-0.6
		C61.8,86.6,61.7,86.4,61.5,86.2z"/>
	<path d="M51.5,86.4C51.5,86.4,51.5,86.4,51.5,86.4c-0.4-0.3-0.9-0.3-1.3-0.2c-0.1,0.1-0.1,0.3-0.2,0.4c-0.2,0.3-0.1,0.6,0,1
		c0.3,0.3,0.6,0.3,0.9,0.3c0.2,0,0.4,0,0.5,0C51.8,87.4,51.7,87,51.5,86.4C51.6,86.5,51.5,86.5,51.5,86.4z"/>
	<path d="M46.2,86.2c-0.3,0-0.6-0.1-0.9,0.1c-0.1,0.1-0.3,0.1-0.4,0.3c0,0.4-0.2,0.8,0.4,1.2c0.4,0,0.8,0.2,1.3-0.3
		C46.6,87.1,46.8,86.6,46.2,86.2z"/>
	<path d="M39.9,86.4c0,0.3-0.1,0.5,0,0.7c0,0.2,0.1,0.5,0.3,0.8c0.4-0.1,0.9,0.1,1.3-0.4c0-0.3,0-0.7,0-1.1c0,0,0-0.1,0-0.1
		C40.9,86,40.4,86,39.9,86.4z"/>
	<path d="M30.2,87.8c0.4,0,0.9,0.2,1.3-0.3c0,0,0-0.1,0-0.1c0-0.2,0-0.6,0-1c-0.3-0.2-0.5-0.3-0.8-0.3c0,0,0,0,0,0
		c-0.2,0-0.5,0.1-0.7,0.3c0,0.2-0.1,0.4,0,0.7C29.9,87.3,29.9,87.6,30.2,87.8z"/>
	<path d="M26.2,86.3c-0.2-0.1-0.4-0.2-0.6-0.1c-0.1,0-0.2,0-0.2,0c-0.1,0-0.2,0-0.3,0c-0.5,0.5-0.3,0.9-0.3,1.4c0,0,0.1,0,0.1,0
		c0,0,0,0,0,0.1c0.5,0.3,0.9,0.3,1.4,0.1c0.3-0.4,0.2-0.9,0.1-1.3C26.3,86.4,26.3,86.4,26.2,86.3z"/>
	<path d="M182.4,76C182.4,76,182.3,76,182.4,76c-0.1,0-0.1,0-0.1,0c-0.4,0-0.9-0.2-1.3,0.4c0,0.4-0.1,0.8,0.4,1.3
		c0.4,0,0.9,0.3,1.4-0.4C182.8,76.9,183,76.4,182.4,76z"/>
	<path d="M177.1,76.1c-0.2,0-0.5,0-0.7,0.1c-0.1,0-0.2,0.1-0.3,0.2c-0.1,0.2-0.1,0.4-0.1,0.6c0,0.2,0.1,0.5,0.3,0.7
		c0.2,0.1,0.4,0.1,0.6,0.1c0.2,0,0.5-0.1,0.7-0.3c0.1-0.4,0.2-0.9-0.2-1.3C177.3,76.2,177.2,76.1,177.1,76.1z"/>
	<path d="M167.3,77.6c0.2-0.2,0.2-0.4,0.2-0.7c0-0.2,0-0.4-0.1-0.6c-0.4-0.4-0.8-0.2-1.3-0.2c-0.3,0.5-0.3,1-0.1,1.4
		C166.4,77.8,166.9,77.8,167.3,77.6z"/>
	<path d="M31.1,96.3c-0.3-0.1-0.6-0.1-1,0c-0.1,0.1-0.2,0.3-0.2,0.4c-0.1,0.4,0,0.7,0,1.1c0.2,0.1,0.4,0.2,0.7,0.1
		c0.2,0,0.5,0,0.7-0.1c0.3-0.4,0.3-0.9,0.1-1.3C31.3,96.4,31.2,96.3,31.1,96.3z"/>
	<path d="M45.3,96.3c-0.2,0.2-0.3,0.4-0.3,0.6c-0.1,0.3,0,0.6,0,0.8v0c0,0,0,0,0,0c0.4,0.5,0.9,0.3,1.3,0.2c0.5-0.4,0.3-0.9,0.2-1.3
		C46.2,96.1,45.7,96.3,45.3,96.3z"/>
	<path d="M56.4,96.2C56.4,96.2,56.3,96.2,56.4,96.2c-0.1,0-0.1,0-0.1,0c-0.4,0-0.9-0.2-1.3,0.4c0,0.4-0.1,0.8,0.4,1.3
		c0.2,0,0.3,0,0.5,0c0.3,0,0.6-0.1,0.9-0.4C56.8,97.1,57,96.6,56.4,96.2z"/>
	<path d="M60.4,96.3c-0.5,0.5-0.3,0.9-0.2,1.4c0.4,0.3,0.9,0.3,1.3,0.1c0.4-0.4,0.3-0.9,0.2-1.3C61.3,96.1,60.8,96.2,60.4,96.3z"/>
	<path d="M70.2,96.7c0,0.4-0.2,0.9,0.4,1.3c0.4,0,0.9,0.2,1.2-0.3c0.1-0.7,0.1-0.7-0.2-1.4C71.1,96.3,70.6,96.1,70.2,96.7z"/>
	<path d="M90.4,96.5c-0.1,0.4-0.3,0.8,0.2,1.3c0.4,0.1,0.9,0.3,1.3-0.2c0.1-0.4,0.3-0.8-0.2-1.3C91.3,96.2,90.8,96,90.4,96.5z"/>
	<path d="M96.6,96.3c-0.3,0-0.6-0.1-0.9,0.1c-0.1,0.1-0.3,0.1-0.4,0.3c0,0.4-0.2,0.8,0.4,1.2c0.4,0,0.8,0.1,1.3-0.3
		C97,97.2,97.2,96.7,96.6,96.3z"/>
	<path d="M111.7,96.2c-0.4,0-0.8-0.2-1.2,0.4c0,0.4-0.1,0.8,0.3,1.3c0.1,0,0.2,0,0.3,0c0.1,0,0.1,0,0.2,0s0.1,0,0.2,0
		c0.1,0,0.1,0,0.2,0c0.2-0.1,0.3-0.2,0.5-0.4c0-0.2,0-0.3,0-0.5C112.1,96.7,112.1,96.5,111.7,96.2z"/>
	<path d="M115.8,97.9c0.4,0,0.9,0.2,1.3-0.3c0-0.3,0-0.6,0-1c0,0,0-0.1,0-0.1c-0.5-0.4-1-0.4-1.6,0c0,0.2-0.1,0.4,0,0.7
		C115.5,97.4,115.5,97.7,115.8,97.9z"/>
	<path d="M120.9,97.9c0.4,0,0.9,0.2,1.3-0.3c0-0.3,0-0.6,0-1c0,0,0-0.1,0-0.1c-0.5-0.4-1-0.4-1.6,0c0,0.2-0.1,0.4,0,0.7
		C120.6,97.4,120.6,97.7,120.9,97.9z"/>
	<path d="M126.3,97.9c0.2,0,0.4,0,0.6,0c0.3-0.3,0.4-0.5,0.4-0.7c0-0.2,0-0.5-0.1-0.7c0,0,0,0,0,0c-0.2-0.2-0.4-0.3-0.7-0.3
		c-0.2,0-0.4,0-0.6,0.1c-0.5,0.4-0.3,0.9-0.2,1.3C125.9,97.9,126.1,97.9,126.3,97.9z"/>
	<path d="M130.9,96.3c-0.4,0.4-0.3,0.9-0.2,1.3c0.5,0.5,0.9,0.3,1.3,0.2c0.5-0.4,0.3-0.9,0.2-1.3C131.8,96.1,131.3,96.2,130.9,96.3z
		"/>
	<path d="M136,98C136,98,136.1,98,136,98C136.1,98,136.1,98,136,98c0.5,0,1,0.2,1.4-0.4c0-0.4,0.1-0.8-0.4-1.3
		c-0.4,0-0.9-0.3-1.4,0.4C135.6,97.1,135.4,97.6,136,98z"/>
	<path d="M141.3,96.3c-0.2,0-0.4,0.1-0.5,0.3c-0.1,0.2-0.1,0.6,0,0.9c0,0.1,0.1,0.3,0.2,0.4c0.4,0.1,0.9,0.2,1.3-0.2
		c0-0.1,0.1-0.2,0.1-0.4c0.1-0.3,0.1-0.6-0.3-1C141.8,96.3,141.6,96.2,141.3,96.3z"/>
	<path d="M151.9,96.2c-0.1,0-0.2,0-0.3,0s-0.2,0-0.3,0.1c-0.1,0-0.2,0.1-0.3,0.2c-0.1,0.4-0.2,0.9,0.2,1.3c0.4,0.1,0.8,0.3,1.3-0.2
		c0.1-0.4,0.2-0.9-0.2-1.3C152.1,96.3,152,96.3,151.9,96.2z"/>
	<path d="M157.2,96.3c-0.4-0.1-0.9-0.3-1.3,0.2c0,0.4,0,0.8,0,1.3c0.3,0.1,0.6,0.1,0.8,0.1c0.2,0,0.5-0.1,0.7-0.3
		C157.5,97.2,157.7,96.7,157.2,96.3z"/>
	<path d="M161.2,77.8C161.2,77.8,161.3,77.8,161.2,77.8C161.3,77.8,161.3,77.8,161.2,77.8c0.5,0,1,0.2,1.4-0.4
		c0-0.4,0.1-0.8-0.4-1.3c-0.2,0-0.3,0-0.5,0c-0.3,0-0.6,0.1-0.9,0.4C160.8,76.9,160.6,77.4,161.2,77.8z"/>
	<path d="M157.2,76C157.2,76,157.1,76,157.2,76C157.1,76,157.1,76,157.2,76c-0.5,0-1-0.2-1.4,0.4c0,0.4-0.1,0.8,0.4,1.3
		c0.4,0,0.9,0.3,1.4-0.4C157.6,76.9,157.8,76.4,157.2,76z"/>
	<path d="M152.1,77.7c0.1-0.1,0.1-0.1,0.2-0.2c0.3-0.3,0.2-0.7,0.1-1.1c-0.2-0.2-0.3-0.3-0.5-0.3c-0.3-0.1-0.5,0-0.8,0
		c-0.1,0.1-0.2,0.2-0.3,0.3c-0.2,0.3-0.1,0.7,0,1.1C151.2,77.9,151.7,77.8,152.1,77.7z"/>
	<path d="M147.4,77.5c0-0.1,0-0.2,0.1-0.3c0-0.2,0-0.5-0.1-0.7c0-0.1-0.1-0.2-0.2-0.3c-0.5-0.1-0.9-0.3-1.3,0.2
		c-0.1,0.4-0.2,0.9,0.2,1.3C146.5,77.8,147,77.9,147.4,77.5z"/>
	<path d="M142.3,77.5c0.1-0.4,0.2-0.9-0.2-1.3c-0.4-0.1-0.8-0.3-1.3,0.2c-0.1,0.4-0.2,0.9,0.2,1.3C141.4,77.8,141.9,77.9,142.3,77.5
		z"/>
	<path d="M135.8,77.5c0.4,0.3,0.9,0.3,1.3,0.1c0.2-0.2,0.2-0.4,0.2-0.7c0-0.2,0-0.4-0.1-0.6c-0.4-0.4-0.8-0.2-1.3-0.2
		c-0.2,0.3-0.2,0.5-0.2,0.8C135.6,77.1,135.7,77.3,135.8,77.5z"/>
	<path d="M130.7,77.5c0.4,0.4,0.9,0.3,1.3,0.2c0.1-0.1,0.1-0.1,0.2-0.2c0.1-0.2,0.2-0.4,0.1-0.6c0-0.1,0-0.2,0-0.2
		c0-0.1,0-0.2,0-0.3c-0.5-0.5-0.9-0.3-1.3-0.3c-0.1,0.1-0.2,0.2-0.3,0.3C130.6,76.8,130.6,77.2,130.7,77.5z"/>
	<path d="M96.7,76.2c-0.3-0.1-0.7-0.2-1,0c-0.1,0-0.3,0.1-0.4,0.2c0.1,0.3,0.1,0.8,0.1,1.3c0.5,0.1,1,0.3,1.4-0.1
		c0.1,0,0.2-0.1,0.2-0.1C97,77.1,97.2,76.6,96.7,76.2z"/>
	<path d="M90.6,77.7c0.2,0,0.3,0,0.5,0c0.1,0,0.1,0,0.2,0c0.1,0,0.2,0,0.3-0.1c0.1-0.1,0.2-0.1,0.3-0.3c0-0.3,0-0.7,0-1.1
		c-0.3-0.2-0.5-0.3-0.8-0.3c-0.3,0-0.5,0.1-0.8,0.3c0,0.2-0.1,0.4,0,0.7C90.3,77.2,90.3,77.5,90.6,77.7z"/>
	<path d="M86.9,77.3c0-0.2,0-0.3,0-0.5c0-0.3-0.1-0.6-0.4-0.8c-0.4,0-0.8-0.2-1.2,0.4c0,0.4-0.1,0.8,0.3,1.3
		C86,77.7,86.5,78,86.9,77.3z"/>
	<path d="M76.3,77.7c0.2,0,0.4-0.1,0.5-0.3c0.1-0.2,0.1-0.4,0-0.7c0-0.2-0.1-0.4-0.2-0.6c-0.4-0.1-0.9-0.2-1.3,0.2c0,0,0,0,0,0
		c0,0-0.1,0.1-0.1,0.1c0,0.4-0.2,0.8,0.3,1.3C75.8,77.7,76,77.8,76.3,77.7z"/>
	<path d="M70.2,76.5c0,0.4-0.2,0.9,0.4,1.3c0.4,0,0.9,0.2,1.2-0.3c0.1-0.7,0.1-0.7-0.2-1.4C71.1,76.1,70.6,75.9,70.2,76.5z"/>
	<path d="M60.4,76.1c-0.5,0.5-0.3,1-0.2,1.4c0.4,0.3,0.9,0.3,1.3,0.1c0.4-0.4,0.3-0.9,0.2-1.3C61.3,75.9,60.8,76,60.4,76.1z"/>
	<path d="M56.6,76.3c-0.4-0.4-0.9-0.2-1.3-0.2c-0.4,0.5-0.3,1-0.2,1.5c0.2,0.1,0.4,0.2,0.7,0.1c0.2,0,0.5,0,0.7-0.1
		C56.8,77.2,56.8,76.7,56.6,76.3z"/>
	<path d="M45.3,77.8c0.4,0,0.9,0.2,1.3-0.3c0,0,0-0.1,0-0.1c0-0.3,0-0.7,0-1c-0.5-0.4-1-0.4-1.6,0c0,0.2-0.1,0.4,0,0.7
		C45,77.3,45,77.6,45.3,77.8z"/>
	<path d="M40.9,76.1c-0.2,0-0.4,0-0.6,0c-0.6,0.5-0.4,0.9-0.3,1.3c0.4,0.5,0.9,0.3,1.3,0.3c0.5-0.4,0.3-0.9,0.3-1.3
		C41.4,76.1,41.1,76.1,40.9,76.1z"/>
	<path d="M25.1,76.1c-0.4,0.5-0.3,1-0.2,1.4c0.1,0.1,0.3,0.1,0.4,0.2c0.4,0.2,0.7,0.1,1.1-0.1c0.2-0.4,0.2-0.9,0-1.3
		C26,75.9,25.5,76.1,25.1,76.1z"/>
	<path d="M19.8,76.3c0,0.3-0.1,0.5,0,0.7c0,0.2,0.1,0.5,0.3,0.8c0.4-0.1,0.9,0.1,1.3-0.4c0-0.3,0-0.7,0-1.1c0,0,0-0.1,0-0.1
		C20.8,75.9,20.3,75.9,19.8,76.3z"/>
	<path d="M15,76.2c-0.2,0.2-0.3,0.4-0.3,0.7c0,0.2,0,0.5,0.1,0.7c0.4,0.3,0.9,0.3,1.3,0.1c0.4-0.5,0.3-0.9,0.2-1.4
		C15.9,76,15.4,76,15,76.2z"/>
	<path d="M11.1,76.2c-0.7-0.1-0.7-0.1-1.4,0.2c0,0.2,0,0.3,0,0.5c0,0.3,0,0.6,0.4,0.9c0.4,0,0.9,0.2,1.3-0.4
		C11.4,77,11.6,76.5,11.1,76.2z"/>
	<path d="M56.4,106.3c-0.4,0-0.9-0.2-1.3,0.3c-0.1,0.3-0.2,0.7,0,1c0,0.1,0.1,0.3,0.2,0.4c0.4-0.1,0.8-0.1,1.3-0.1
		c0.1-0.3,0.1-0.6,0.1-0.8C56.7,106.8,56.7,106.6,56.4,106.3z"/>
	<path d="M60.4,106.3c-0.1,0.1-0.2,0.2-0.2,0.3c-0.2,0.4-0.2,0.8-0.1,1.1v0c0,0,0,0,0,0c0.4,0.5,0.9,0.3,1.3,0.2
		c0.5-0.4,0.3-0.9,0.2-1.3C61.3,106.1,60.8,106.3,60.4,106.3z"/>
	<path d="M66.8,106.6c-0.4-0.4-0.9-0.3-1.3-0.2c-0.1,0.1-0.1,0.1-0.2,0.2c-0.3,0.3-0.2,0.7-0.1,1.1c0.2,0.2,0.3,0.3,0.5,0.3
		c0.3,0.1,0.5,0,0.8,0c0.1-0.1,0.2-0.2,0.3-0.3C66.9,107.3,66.9,106.9,66.8,106.6z"/>
	<path d="M71.8,106.6c-0.5-0.4-1-0.3-1.4-0.2c-0.2,0.3-0.2,0.5-0.2,0.7c0,0.2,0,0.5,0.1,0.7c0.4,0.3,0.9,0.3,1.3,0.1
		c0.2-0.2,0.2-0.3,0.2-0.5c0,0,0-0.1,0-0.1C71.9,107,71.8,106.8,71.8,106.6z"/>
	<path d="M76.8,106.6c-0.4-0.4-0.9-0.3-1.3-0.2c-0.5,0.4-0.3,0.9-0.3,1.3c0.5,0.5,0.9,0.3,1.3,0.3c0.1-0.1,0.2-0.2,0.3-0.3
		C76.9,107.3,76.9,106.9,76.8,106.6z"/>
	<path d="M101.8,106.4c-0.4-0.1-0.9-0.2-1.3,0.2c0,0,0,0,0,0c0,0-0.1,0-0.1,0.1c0,0.4-0.2,0.8,0.3,1.3c0.4,0,0.8,0.2,1.3-0.3
		c0,0,0,0,0,0c0,0,0.1,0,0.1-0.1c0-0.1,0-0.2,0-0.4C102.2,107,102.1,106.7,101.8,106.4z"/>
	<path d="M122.2,106.6c-0.5-0.4-1-0.3-1.4-0.2c-0.2,0.3-0.2,0.5-0.2,0.7c0,0.2,0,0.5,0.1,0.7c0.4,0.3,0.9,0.3,1.3,0.1
		c0.2-0.2,0.2-0.3,0.2-0.5c0,0,0-0.1,0-0.1C122.3,107,122.2,106.8,122.2,106.6z"/>
	<path d="M125.7,106.6c-0.1,0.4-0.2,0.9,0.2,1.3c0.2,0.1,0.4,0.1,0.6,0.1c0.2,0,0.5-0.1,0.7-0.3c0.1-0.4,0.2-0.9-0.2-1.3
		C126.6,106.3,126.1,106.2,125.7,106.6z"/>
	<path d="M132,106.3c-0.3,0-0.7-0.1-1,0.1c-0.1,0.1-0.3,0.1-0.4,0.3c0,0.4-0.2,0.9,0.4,1.3c0,0,0.1,0,0.1,0c0,0,0,0,0,0
		c0.4,0,0.9,0.2,1.3-0.4c-0.1-0.2-0.1-0.5-0.1-0.8C132.2,106.7,132.1,106.5,132,106.3z"/>
	<path d="M137,106.3c-0.4,0-0.9-0.2-1.2,0.3c-0.1,0.7-0.1,0.7,0.2,1.4c0.5,0,1,0.2,1.4-0.4c0-0.2,0-0.3,0-0.5
		C137.4,106.8,137.4,106.6,137,106.3z"/>
	<path d="M152.2,106.3c-0.4,0-0.8-0.2-1.3,0.3c-0.1,0.4-0.3,0.8,0.1,1.1c0,0.1,0,0.1,0.1,0.2c0.4,0.1,0.9,0.2,1.3-0.2
		c0-0.1,0.1-0.2,0.1-0.4C152.6,107,152.6,106.7,152.2,106.3z"/>
	<path d="M14.8,66.3c-0.1,0.4-0.3,0.8,0.2,1.3c0.4,0.1,0.9,0.2,1.3-0.2c0.1-0.4,0.3-0.8-0.2-1.3C15.7,66,15.2,65.8,14.8,66.3z"/>
	<path d="M156.3,67.7c0.4,0,0.8,0.2,1.2-0.4c0-0.4,0.1-0.8-0.3-1.3c-0.4,0-0.9-0.2-1.3,0.4C155.9,66.8,155.7,67.3,156.3,67.7z"/>
	<path d="M75.8,66c-0.2,0-0.4,0.1-0.5,0.3c-0.1,0.4-0.3,0.8,0.1,1.1c0,0.1,0,0.1,0.1,0.2c0.4,0.1,0.9,0.2,1.3-0.2
		c0-0.1,0.1-0.2,0.1-0.4c0.1-0.3,0.1-0.6-0.3-1C76.3,66,76.1,65.9,75.8,66z"/>
	<path d="M70.2,67.4c0.4,0.4,0.9,0.3,1.3,0.2c0.1-0.1,0.2-0.2,0.2-0.4c0.2-0.3,0.1-0.7,0-1c-0.1-0.1-0.2-0.1-0.3-0.2
		c-0.3-0.2-0.6-0.1-1,0c-0.3,0.4-0.3,0.7-0.3,1.1C70.2,67.2,70.2,67.3,70.2,67.4z"/>
	<path d="M61.4,66c-0.2,0-0.4-0.1-0.6,0c-0.2,0-0.4,0.1-0.6,0.3c-0.1,0.7-0.1,0.7,0.2,1.4c0.5,0,1,0.2,1.4-0.4c0-0.2,0-0.3,0-0.5
		C61.8,66.5,61.8,66.3,61.4,66z"/>
	<path d="M45.2,67.6C45.2,67.6,45.2,67.6,45.2,67.6C45.2,67.6,45.3,67.7,45.2,67.6c0.4,0,0.8,0,1.3,0c0.1-0.6,0.3-1-0.1-1.4
		c-0.1-0.1-0.1-0.1-0.2-0.2c-0.4,0-0.8-0.2-1.3,0.3C44.9,66.7,44.7,67.2,45.2,67.6z"/>
	<path d="M40.3,66c-0.1,0.1-0.2,0.2-0.3,0.3c-0.2,0.3-0.1,0.6,0,1c0.1,0.1,0.1,0.1,0.2,0.2c0.3,0.2,0.6,0.2,0.9,0.2
		c0.1,0,0.2,0,0.3,0c0.1-0.1,0.2-0.2,0.3-0.3c0.2-0.3,0.1-0.7,0-1.1C41.2,65.8,40.7,65.9,40.3,66z"/>
	<path d="M36,67.7c0.1,0,0.2,0,0.3-0.1c0.4-0.4,0.3-0.8,0.2-1.3C36.3,66,36.1,66,35.8,66c-0.1,0-0.1,0-0.2,0c-0.2,0-0.4,0-0.5,0
		c-0.4,0.5-0.3,0.9-0.2,1.4C35.2,67.7,35.6,67.7,36,67.7z"/>
	<path d="M30.2,66c-0.1,0.1-0.2,0.2-0.2,0.3c0,0,0,0.1,0,0.1c0,0,0,0.1,0,0.1c0,0.2,0,0.4,0,0.5c0,0.1,0,0.2,0,0.3
		c0.2,0.2,0.5,0.3,0.7,0.3c0.2,0,0.5,0,0.7-0.1c0.4-0.4,0.3-0.9,0.2-1.3C31.1,65.8,30.6,66,30.2,66z"/>
	<path d="M162.3,67.6c0.2-0.2,0.3-0.4,0.2-0.7c0-0.2,0-0.4,0-0.6c-0.5-0.1-1-0.1-1.4-0.2c-0.4,0.4-0.2,0.9-0.2,1.3
		C161.4,67.8,161.9,67.7,162.3,67.6z"/>
	<path d="M151,67.2c0,0.1,0.1,0.2,0.1,0.4h0c0.3,0,0.7,0,1.1,0c0.4-0.4,0.4-0.7,0.1-1.2c-0.2,0-0.3,0.1-0.5,0.1
		c-0.3,0.1-0.7,0.2-1,0.3C150.9,66.9,150.9,67.1,151,67.2z"/>
	<path d="M28.7,62.7c0.2-0.3,0.4-0.5,0.4-0.9c0-0.1,0-0.2-0.1-0.3c-0.5,0.2-1.1,0.1-1.5,0.4c-0.1,0.1-0.2,0.2-0.3,0.3c0,0,0,0,0,0
		c0,0,0,0,0,0.1C27.6,63,28.2,62.7,28.7,62.7z"/>
	<path d="M168.7,100.1c1.3-0.1,2.5-0.5,3.6-1.1c-1.1,0.3-2.3,0.7-3.4,1C168.8,100,168.8,100,168.7,100.1z"/>
	<path d="M188.3,49.5c-4.4-5.5-10.9-9.5-17.7-11.6c0.8-3.5,1.6-7.1,0.7-10.6c-1-4.2-2.6-8.2-5.1-11.7c-4.7-6.5-11.8-11.1-19.4-13.4
		C133.1-2,116-0.2,104.2,8.3c-1.8,1.3-3.6,2.8-5.1,4.5c-6.8-3.4-14.5-5.9-22.2-4.6c-6.1,1.1-11.6,4.7-14.4,10.2
		c-9.6-6.1-22.9-6-32.2,0.9c-8.8,6.5-13,18.1-10.8,28.7c-5.9,0.8-11.2,2.4-15.2,7.4c-3.7,4.7-5.2,10.7-3.8,16.5
		c1.3,5.4,5.5,8.8,10.6,10.6c3,1.1,6.7,2.1,10,2.4c1,14.7,12.3,25.2,26,29.2c7.9,2.4,16.3,2.4,24.4,1c3.9-0.7,7.7-1.6,11.3-3.3
		c3.2-1.5,6-3.7,8.6-6.1c7.9,10.5,21.9,15.1,34.8,14.3c7.5-0.4,14.9-2.4,21.8-5.5c6.7-3.1,11.8-8.6,15.7-14.8
		c3.7-0.4,7.4-1,10.8-2.4c3.6-1.5,6.8-3.9,9.8-6.4c5.5-4.7,10.3-11,11-18.4C196.2,64.7,193.2,55.4,188.3,49.5z M191.2,76.9
		c-0.6,1.5-1.4,3-2.2,4.3c-0.1,0-0.1,0-0.2,0c0,0-0.1,0-0.1,0c-0.1,0.3-0.2,0.5-0.2,0.8c-1.8,2.5-3.9,4.7-6.3,6.6
		c-4.4,3.7-9.2,6.4-14.8,7.5c-1.3,0.2-3.4,0.1-4.8,0.7c0-0.2-0.1-0.3-0.3-0.5c-0.4-0.1-0.9-0.3-1.3,0.2c-0.1,0.4-0.3,0.9,0.2,1.3
		c0,0,0,0,0,0c-0.8,1-1.4,2.4-2.1,3.4c0,0,0,0,0,0c-0.1,0-0.3,0-0.4,0.1c-0.2,0-0.3,0.1-0.5,0.2c0,0.3-0.1,0.6,0,0.9
		c-0.8,1-1.5,1.9-2.4,2.7c-3,3.2-6.8,5.7-11,7.6c0.1-0.1,0.1-0.3,0.2-0.5c-0.1-0.3-0.3-0.6-0.4-0.8c-0.5,0-0.9,0-1.3,0
		c0,0.1-0.1,0.1-0.1,0.2c-0.1,0.2-0.1,0.4-0.1,0.6c0,0.3,0.1,0.5,0.4,0.8c0.2,0,0.3,0,0.5,0c-5.3,2.2-11.2,3.4-16.8,3.8
		c0-0.1,0-0.1,0-0.2c-0.4-0.3-0.9-0.3-1.3-0.1c-0.1,0.1-0.2,0.2-0.2,0.4c-0.5,0-1.1,0-1.6,0c-0.6,0-1.3,0-1.9,0c0-0.1,0-0.2,0-0.3
		c0,0-0.1,0-0.1,0c0,0,0,0,0-0.1c-0.5-0.3-0.9-0.3-1.4-0.1c-0.1,0.1-0.1,0.2-0.2,0.4c-5.5-0.4-11-1.7-15.9-4.2
		c0.1-0.1,0.1-0.2,0.2-0.4c-0.1-0.3-0.3-0.6-0.4-0.8c-0.5,0-0.9,0-1.3,0c-0.1,0.1-0.1,0.2-0.1,0.2c-2.2-1.2-4.2-2.7-5.9-4.5
		c0-0.3,0-0.6-0.3-0.8c-0.2,0-0.4-0.1-0.6-0.1c-1-1-1.8-2.1-2.6-3.3c0.3,0,0.5,0,0.8,0c0.1-0.3,0.3-0.6,0.4-0.9c0,0,0,0,0,0
		c0,0,0,0,0-0.1c-0.1-0.2-0.3-0.5-0.4-0.7c-0.4,0-0.8,0-1.2,0c-0.3,0.3-0.4,0.5-0.4,0.7c0,0,0,0.1,0,0.1c-0.6-0.4-1.4-0.5-2,0.1
		c-1.6,1.5-3.2,2.9-4.9,4.2c-0.2,0-0.4,0.1-0.5,0.2c0,0,0,0.1,0,0.2c-1,0.7-2,1.4-3.1,1.9c-2.5,1.3-5.3,2.1-8.1,2.7c0,0,0,0,0,0
		c-0.5,0-0.9,0-1.2,0c-0.1,0.1-0.2,0.2-0.3,0.3c-0.3,0.1-0.6,0.1-0.8,0.2c-0.8,0.2-1.6,0.3-2.3,0.4c0,0,0-0.1,0-0.1
		c-0.1-0.3-0.3-0.6-0.4-0.8c0,0,0,0,0,0h0c-0.5,0-0.8,0-1.2,0c-0.4,0.4-0.5,0.7-0.3,1.2c-1.1,0.1-2.3,0.2-3.4,0.3
		c0.1-0.2,0.2-0.4,0.3-0.7c-0.1-0.3-0.3-0.6-0.4-0.8c-0.5,0-0.9,0-1.3,0c-0.5,0.5-0.3,0.9-0.2,1.4c0.1,0.1,0.2,0.1,0.2,0.1
		c-1.2,0-2.4,0-3.6,0c0.1-0.2,0.2-0.4,0.3-0.6c-0.2-0.4-0.4-0.7-0.5-0.9c-0.5,0-1.1-0.2-1.6,0.3c0.1,0.4-0.1,0.8,0.2,1.1
		c-1.1-0.1-2.2-0.2-3.3-0.4c0-0.1,0.1-0.2,0.1-0.3c-0.2-0.3-0.3-0.6-0.3-0.8c-0.5,0-0.9,0-1.4,0c0,0,0,0.1,0,0.1c0,0,0,0-0.1,0
		c-0.1,0.2-0.1,0.4-0.1,0.6c-1.2-0.2-2.4-0.5-3.7-0.8c-2.8-0.8-5.6-1.9-8.2-3.3c0.2,0,0.4,0,0.6,0c0.6-0.5,0.4-1,0.3-1.4
		c-0.4-0.5-0.9-0.3-1.3-0.2c-0.5,0.4-0.3,0.9-0.2,1.3c-2.4-1.4-4.7-3-6.7-4.8c0.2,0,0.3,0,0.5,0c0,0,0.1,0,0.1,0
		c0.1-0.3,0.2-0.5,0.4-0.8c-0.2-0.3-0.3-0.5-0.5-0.8c-0.3,0-0.5-0.1-0.7,0c-0.3,0-0.5,0.1-0.8,0.3c0,0.1,0,0.2,0,0.3
		c-4.9-4.8-8-11.1-8.2-18.6c0-0.3-0.1-0.6-0.2-0.8c0.1-0.2,0.2-0.3,0.2-0.5c-0.1-0.3-0.3-0.6-0.4-0.8c-0.5,0-0.9,0-1.3,0
		c-0.1,0.2-0.2,0.4-0.2,0.6c-1.1-0.1-2.3-0.2-3.4-0.5c0,0,0-0.1,0-0.1c-0.1,0-0.2,0-0.3,0c-1.7-0.4-3.4-0.9-5-1.3
		c-3.9-1.1-8.1-3.5-9.4-7.5c-1.7-5-0.7-10.5,2.5-14.8c3.7-5.1,9.2-6.4,15.1-7c1-0.1,1.7-0.9,1.4-1.9c-2.7-10,1.1-21.4,9.6-27.4
		c8.9-6.3,21.3-5.8,30,0.5c0.9,0.6,1.9-0.1,2.2-0.9c2.2-5.8,8.1-9.4,14.1-10.1c7-0.8,13.9,1.8,20,5c0.6,0.3,1.1,0.2,1.5-0.1
		c0.2-0.1,0.4-0.3,0.5-0.5c-0.3,0.4,0.5-0.6,0.8-0.9c0.9-0.9,1.8-1.8,2.9-2.6c3.5-2.9,7.7-4.9,12-6.3c14.5-4.7,32.8-3,44,8
		c3.3,3.3,5.7,7.2,7.1,11.6c0.6,2,1.2,3.9,1.1,6c-0.1,2.5-0.7,5-1.3,7.5c-0.2,0.8,0.2,1.6,1,1.8c10.5,2.9,19.2,10.1,22.4,20.6
		C192.5,66.2,193.3,71.7,191.2,76.9z"/>
</g>
</svg>
