<svg xmlns="http://www.w3.org/2000/svg" width="269" height="171" viewBox="0 0 269 171">
    <g fill="#000" fill-rule="evenodd">
        <path fill-rule="nonzero" d="M126.099 36.683c2.026 2.838 3.9 5.634 6.258 8.151a110.806 110.806 0 0 0-10.778 21.218c-6.362.183-12.628.31-18.991.494-1 .06-1.567.646-1.758 1.66-.634 4.504-1.018 8.992-1.306 13.424-.183 2.82-1.343 7.756 1.138 9.814 2.426 1.96 6.856 1.342 9.815 1.314 3.015.07 6.046.388 8.994 1.013.586 7.289 3.213 14.304 5.825 21.07l-14.498 11.86c-.72.545-.646 1.795-.06 2.362a141.803 141.803 0 0 1 16.122 17.84c.545.72 1.795.644 2.362.058 2.821-3.18 5.949-6.279 9.3-8.99.526-.432 1.15-.921 1.828-1.313.21.137.265.234.474.372.765.205 1.728 1.2 2.452 1.558a79.226 79.226 0 0 0 5.154 3.1c5.027 2.657 10.274 4.799 15.7 6.578-1.407 5.854-2.411 11.734-2.456 17.707.004.902.646 1.566 1.508 1.715 8.55 1.14 17.222 1.82 25.675 3.016.862.149 1.664-.702 1.716-1.508.49-6.1 1.325-12.27 2.314-18.4 7.232-1.59 14.267-3.971 21.204-6.296 1.69 2.256 3.381 4.512 5.169 6.712 1.579 2.062 3.41 5.011 5.5 6.39 1.729 1.2 3.266.054 4.554-1.077 2.686-2.069 5.358-4.387 8.045-6.455 2.534-2.11 5.027-4.066 7.561-6.175 1.344-1.035 2.84-2.028 2.22-3.997-.73-2.163-3.478-4.456-4.985-6.17-1.788-2.2-3.672-4.344-5.516-6.641.94-1.06 1.616-2.355 2.403-3.456 1.713-2.411 3.467-4.975 4.915-7.62 1.889-3.677 3.109-7.613 4.33-11.55 5.504.572 10.941 1.698 16.516 2.616.862.149 1.568-.646 1.773-1.41a352.416 352.416 0 0 0 2.101-26.164c-.004-.903-.702-1.663-1.508-1.715-6.101-.485-12.3-.913-18.401-1.398-.198-4.152-.799-8.33-1.747-12.436-.354-1.735-.806-3.413-1.451-4.98-.55-1.622-2.352-4.072-1.441-5.632.91-1.56 3.336-2.96 4.72-4.147 1.814-1.564 3.934-3.047 5.636-4.805 2.933-2.986.142-6.028-1.829-8.77-2.795-3.944-5.784-7.777-9.008-11.345-1.02-1.092-2.22-2.726-3.93-2.773-1.556-.006-2.814 1.625-3.81 2.588-3.127 3.098-6.408 6.155-9.591 9.157-.978-1.246-2.288-2.17-3.597-3.094a37.634 37.634 0 0 0-6.27-4.137c-3.329-1.956-7.535-4.311-11.636-4.917.508-1.586.597-3.447.829-4.615l.123-.459c.272-1.32.6-2.544.873-3.865.407-2.433 1.418-6.507-.12-8.722-1.48-2.118-5.037-2.004-7.359-2.215-3.989-.411-7.963-.573-11.84-.79-2.516-.1-6.035-1.041-7.972.982-1.605 1.702-1.731 4.62-1.903 6.787-.332 3.682-.205 7.487-.037 11.139-6.233 1.53-12.603 3.269-18.47 5.88-.734.295-1.414.687-2.093 1.08-1.22.575-1.026.463-1.989-.533-1.452-1.618-3.041-3.027-4.534-4.492-3.097-3.124-6.25-6.345-9.348-9.47-.586-.566-1.504-.812-2.168-.17a259.193 259.193 0 0 0-9.718 8.713c-1.564 1.55-3.03 3.043-4.594 4.592-.9.907-2.437 2.053-2.653 3.47-.232 1.169.272 2.041.929 2.955.828 2.107 2.127 3.684 3.329 5.317zm-.631-8.038c1.907-2.523 4.635-4.745 6.863-6.936 2.228-2.191 4.568-4.189 7.004-6.242 3.098 3.124 6.195 6.248 9.446 9.413 1.548 1.563 3.015 3.43 4.855 4.825.739.607 1.56.909 2.6.695 1.39-.284 2.83-1.374 4.147-2.005 1.761-.759 3.523-1.517 5.34-2.179 4.37-1.618 8.77-2.736 13.323-3.813.791-.199 1.358-.785 1.257-1.631-.164-2.75-.328-5.499-.34-8.207-.021-2.056-.003-4.264.475-6.35.34-1.876.836-2.81 2.836-2.93 1.25-.075 2.668.14 3.974.162 2.766.084 5.684.209 8.505.39 1.362.118 2.822.18 4.184.3 1.612.103 3.612-.018 4.258 1.548.168.291.295.735.365 1.082-.388.224-.608.739-.578 1.239.388 3.137-.433 6.196-1.1 9.297-.396 1.78-1.788 4.522-.78 6.267.167.291.473.373.82.302l.097-.056c3.844 2.176 8.225 3.266 12.125 5.54 1.922 1.088 3.706 2.385 5.49 3.682 1.686 1.353 3.194 3.068 5.142 3.753a.616.616 0 0 0 .653.01c.25-.014.444-.126.68-.391 3.044-2.793 6.145-5.488 9.247-8.184.76-.698 1.563-1.549 2.38-2.15 1.109-.769.762-.698 1.572.257 1.731 2.102 3.6 3.996 5.235 6.155 1.355 1.674 2.613 3.404 3.87 5.135.601.816 1.258 1.73 1.818 2.7.727 1.26.866 1.05.175 2.096-.813 1.503-3.53 3.072-4.874 4.106-1.578 1.3-3.407 2.614-4.817 4.204-2.075 2.232-2.109 4.19-.75 6.767 1.317 2.73 2.134 5.49 2.66 8.418.836 3.913 1.381 7.994 1.523 12.049.004.902.701 1.663 1.66 1.756 6.102.484 12.148.872 18.25 1.357-.4 7.6-.953 15.157-1.755 22.73-5.325-.932-10.762-2.06-16.21-2.533-.654-.01-1.486.34-1.594 1.05-1.165 4.033-2.37 8.219-4.202 11.992-1.254 2.533-2.926 4.791-4.445 7.09-.69 1.045-1.437 1.993-2.183 2.941-.235.265-.609.74-.788 1.101-.04.153-.802.851-.373.474-.623.49-.87 1.407-.269 2.224 3.184 3.72 6.27 7.498 9.453 11.219.265.234.84 1.454 1.243 1.48-.705.795-2.743 1.971-3.172 2.348-1.87 1.468-3.586 2.976-5.456 4.443-1.87 1.467-3.586 2.975-5.456 4.443-.43.377-2.892 2.833-3.351 2.71-.556-.067-1.172-1.133-1.549-1.562-3.183-3.72-6.172-7.554-9.12-11.54-.433-.525-1.142-.633-1.837-.491-7.284 2.396-14.36 4.93-21.842 6.535-.877-.399-1.96-.032-2.232 1.288-1.142 6.09-1.88 12.204-2.522 18.262-7.494-1.103-15.11-1.747-22.645-2.697.254-5.835 1.328-11.368 2.75-16.972a1.73 1.73 0 0 0-1.078-2.092c-7.36-2.215-14.36-5.153-20.88-9.275-2.66-1.696-4.77-4.227-7.86-2.185-3.518 2.42-6.784 5.727-9.702 8.963-4.232-5.313-8.852-10.402-13.748-15.073 4.639-3.842 9.277-7.683 14.069-11.484.623-.49.62-1.392.38-2.03-2.683-7.112-5.784-14.5-6.037-22.11-.045-.75-.493-1.525-1.202-1.633-2.24-.517-4.478-1.034-6.8-1.245-3.28-.304-6.571.045-9.852-.259-2.724-.237-2.246-2.323-2.171-4.434.048-1.709.194-3.473.242-5.182.21-3.223.612-6.558.918-9.838 6.21-.224 12.379-.295 18.588-.519.75-.045 1.43-.437 1.635-1.202a115.02 115.02 0 0 1 11.397-22.61c.317-.571.314-1.474-.12-2-2.19-2.225-4.033-4.522-5.795-7.125-.769-1.107-1.593-2.312-2.362-3.42-.489-.622-1.034-1.341-1.523-1.964-.504-.873-1.06-.94-.134-2.25z"/>
        <path fill-rule="nonzero" d="M194.663 94.997c.097-.056.04-.152.138-.208 3.589-3.619 5.37-9.029 3.965-14.145-1.617-6.154-7.303-10.861-13.72-11.022-7.069-.172-14.146 4.559-15.991 11.423-1.543 6.045.617 12.917 5.786 16.505 6.058 4.234 15.2 3.08 19.822-2.553zM174.237 77.28c5.202-5.968 14.735-6.446 19.72-.046 3.636 4.731 2.703 10.94-.786 15.403-.346.071-.692.142-.927.406-4.557 4.178-11.69 5.46-16.847 1.222-4.7-4.117-5.133-12.243-1.16-16.985z"/>
        <path fill-rule="nonzero" d="M140.628 82.447c-.58 9.548 1.555 19.085 7.457 26.838 5.902 7.752 13.932 14.924 23.403 17.63 9.988 2.928 20.72 1.533 30.116-2.854 5.726-2.657 11.028-6.497 15.436-10.988 2.468-2.463 4.961-5.33 6.268-8.68 2.613-4.233 4.54-8.979 5.117-13.594 1.194-9.383-1.488-19.643-5.916-27.987-8.913-16.784-27.166-26.618-46.065-22.973-10.048 1.908-19.296 7.897-26.085 15.45-6.594 7.44-9.15 17.61-9.73 27.158zm8.636-20.298c5.127-8.41 14.678-15.222 23.913-18.088 16.496-5.112 34.26 1.63 43.912 15.652 5.738 8.366 9.37 19.374 8.472 29.495-.438 4.406-2.033 8.83-4.2 12.936-.43.378-.9.91-1.274 1.384-1.414 1.595-2.658 3.481-4.071 5.076-3.339 3.873-7.571 7.096-11.835 9.817-7.763 4.742-16.666 7.286-25.724 6.417-8.961-.925-16.114-5.23-22.426-11.447-6.9-6.786-11.493-14.516-12.237-24.338-.627-8.72.896-19.332 5.47-26.904z"/>
        <path d="M-966.965 413.222c36.753 1.857 73.7-.653 109.868-7.87 37.305-7.485 72.941-20.325 107.429-36.498 70.638-33.048 134.175-77.724 195.9-125.092 64.506-49.49 128.063-100.623 196.892-143.971 67.139-42.244 140.815-75.628 220.361-83.394 71.32-7.014 142.771 5.234 211.44 23.858 8.459 2.336 17.014 4.615 25.376 7.007 1.375.366 2.257-1.69.882-2.056-66.983-20.63-137.22-35.253-207.6-33.553-77.33 1.976-150.437 27.167-217.493 64.85-70.41 39.491-134.678 89.617-198.45 138.812-62.236 48.05-124.61 96.308-194.319 133.203-35.921 19.064-73.28 35.863-112.503 46.52-35.869 9.75-73.015 14.824-110.135 15.242a502.348 502.348 0 0 1-27.395-.427c-1.845.163-2.265 3.242-.253 3.369z"/>
    </g>
</svg>
